<svg xmlns="http://www.w3.org/2000/svg" width="65.998" height="40.001" viewBox="0 0 65.998 40.001">
  <g id="icon_쿠폰발급" transform="translate(-1052.002 -719.999)">
    <g id="coupon" transform="translate(1108 752) rotate(180)" fill="#fff">
      <path d="M 37.16891860961914 31.00137710571289 L 1.998030304908752 31.00040054321289 C 1.446710228919983 31.00040054321289 0.9982002973556519 30.55149078369141 0.9982002973556519 29.99970054626465 L 0.9982002973556519 1.999799966812134 C 0.9982002973556519 1.448510050773621 1.446710228919983 1 1.998000264167786 1 L 37.1685905456543 1 C 37.3158073425293 1.416774392127991 37.55561065673828 1.798835873603821 37.87741088867188 2.12064003944397 C 38.44435119628906 2.687570095062256 39.19738006591797 2.999799966812134 39.99779891967773 2.999799966812134 C 41.30147552490234 2.999799966812134 42.41353988647461 2.163993120193481 42.82623291015625 1 L 53.99819946289062 1 C 54.54949188232422 1 54.99800109863281 1.448510050773621 54.99800109863281 1.999799966812134 L 54.99800109863281 29.99970054626465 C 54.99800109863281 30.55149078369141 54.54949188232422 31.00040054321289 53.99819946289062 31.00040054321289 L 42.82711410522461 31.00040054321289 C 42.67993545532227 30.58342933654785 42.44016265869141 30.20123863220215 42.11835098266602 29.87928009033203 C 41.5513916015625 29.31207084655762 40.79830169677734 28.99970054626465 39.99779891967773 28.99970054626465 C 38.69372177124023 28.99970054626465 37.58130645751953 29.83647155761719 37.16891860961914 31.00137710571289 Z" stroke="none"/>
      <path d="M 36.53402709960938 30.0013599395752 C 37.22642517089844 28.8056640625 38.51974868774414 27.99970054626465 39.99779891967773 27.99970054626465 C 41.06550216674805 27.99970054626465 42.06977081298828 28.4161491394043 42.82561111450195 29.17233085632324 C 43.07634353637695 29.42317581176758 43.28971099853516 29.70145416259766 43.46291351318359 30.00039482116699 L 53.99665451049805 30.0003604888916 C 53.99727630615234 29.99985694885254 53.997802734375 29.99943923950195 53.99798202514648 29.99943923950195 C 53.99798965454102 29.99943923950195 53.99799346923828 29.99943923950195 53.99800109863281 29.99970054626465 L 53.99937057495117 2.003010034561157 C 53.99878692626953 2.001991987228394 53.99731063842773 2.000411748886108 53.99749374389648 2 L 43.46075820922852 2 C 42.76813125610352 3.194527149200439 41.47517776489258 3.999799966812134 39.99779891967773 3.999799966812134 C 38.93027877807617 3.999799966812134 37.92612075805664 3.583559989929199 37.17031097412109 2.827739953994751 C 36.9195556640625 2.576987504959106 36.70614242553711 2.298780918121338 36.53290939331055 1.99994421005249 L 2.00121021270752 1.998630046844482 C 2.000250577926636 1.999178409576416 1.998790860176086 2.000523567199707 1.998281717300415 2.000523567199707 C 1.998250842094421 2.000523567199707 1.998223900794983 2.000517845153809 1.998200297355652 1.999799966812134 L 1.997020244598389 29.99727058410645 C 1.997499942779541 29.99812889099121 1.998600125312805 29.9993839263916 1.999695301055908 30.00040054321289 L 36.53402709960938 30.0013599395752 M 37.99800109863281 32.00139999389648 L 1.998000264167786 32.00040054321289 C 0.8953102827072144 32.00040054321289 -0.001799719291739166 31.10289001464844 -0.001799719291739166 29.99970054626465 L -0.001799719291739166 1.999799966812134 C -0.001799719291739166 0.8971099853515625 0.8953102827072144 -3.051759733807557e-09 1.998000264167786 -3.051759733807557e-09 L 37.99800109863281 -3.051759733807557e-09 C 37.99851989746094 0.5338299870491028 38.20645904541016 1.035470008850098 38.58451843261719 1.413529992103577 C 38.96258163452148 1.791589975357056 39.4644889831543 1.999799966812134 39.99779891967773 1.999799966812134 C 41.10049057006836 1.999799966812134 41.99760055541992 1.102689981460571 41.99760055541992 -3.051759733807557e-09 L 53.99819946289062 -3.051759733807557e-09 C 55.10089111328125 -3.051759733807557e-09 55.99800109863281 0.8971099853515625 55.99800109863281 1.999799966812134 L 55.99800109863281 29.99970054626465 C 55.99800109863281 31.10289001464844 55.10089111328125 32.00040054321289 53.99819946289062 32.00040054321289 L 41.99760055541992 32.00040054321289 C 41.9970817565918 31.46632957458496 41.78913879394531 30.9644603729248 41.41107940673828 30.58622932434082 C 41.03302001953125 30.20800018310547 40.53110885620117 29.99970054626465 39.99779891967773 29.99970054626465 C 38.89511108398438 29.99970054626465 37.99800109863281 30.89720916748047 37.99800109863281 32.00040054321289 L 37.99800109863281 32.00139999389648 Z" stroke="none" fill="#101010"/>
    </g>
    <path id="dash" d="M0,22V18H2v4Zm0-6V12H2v4Zm0-6V6H2v4ZM0,4V0H2V4Z" transform="translate(1069 747) rotate(180)" fill="#4a4a4a"/>
    <g id="check" transform="translate(-4 -5)">
      <circle id="타원" cx="14" cy="14" r="14" transform="translate(1094 737)" fill="#4a4a4a"/>
      <path id="합치기" d="M5.192,12.264a1.139,1.139,0,0,1-.946-.471L.219,6.251A1.142,1.142,0,1,1,2.066,4.909L5.129,9.123,9.859.589a1.142,1.142,0,1,1,2,1.107L6.322,11.683a1.143,1.143,0,0,1-1.129.582Z" transform="matrix(1, 0.017, -0.017, 1, 1102.19, 744.375)" fill="#fff"/>
    </g>
  </g>
</svg>
