<svg xmlns="http://www.w3.org/2000/svg" width="46.744" height="53.196" viewBox="0 0 46.744 53.196">
  <g id="icon_목표달성" transform="translate(-1057.705 -712)">
    <g id="flag" transform="translate(-374 171)">
      <path id="다각형_" data-name="다각형 " d="M4,0,8,9.5H0Z" transform="translate(1465 541) rotate(90)" fill="#11b7a6"/>
      <rect id="사각형_" data-name="사각형 " width="1" height="20" transform="translate(1455 541)" fill="#11b7a6"/>
    </g>
    <path id="people" d="M17064.824-8133.779l-3.1-14.722h-.807l-.445,4.97c-.051.6-.078,1.646-.057,2.246l.262,6.9a2.463,2.463,0,0,1-.664,1.787,2.47,2.47,0,0,1-1.73.792c-.029,0-.061,0-.09,0a2.479,2.479,0,0,1-2.484-2.4l-.262-6.9a26.629,26.629,0,0,1,.072-2.875l.664-7.43c0-.021,0-.039,0-.06l-.719-8.042-4.25-3.153c-.459-.312-1.5-1.093-2.312-1.742-.814.649-1.854,1.431-2.311,1.742l-4.252,3.153-.719,8.042c0,.021,0,.039.008.06l.66,7.43a25.664,25.664,0,0,1,.072,2.875l-.256,6.9a2.484,2.484,0,0,1-2.486,2.4.67.67,0,0,1-.094,0,2.478,2.478,0,0,1-1.73-.792,2.479,2.479,0,0,1-.664-1.787l.262-6.9a22.071,22.071,0,0,0-.057-2.246l-.445-4.97h-.8l-3.1,14.722a2.5,2.5,0,0,1-2.434,1.975,2.34,2.34,0,0,1-.514-.056,2.48,2.48,0,0,1-1.572-1.075,2.491,2.491,0,0,1-.352-1.873l3.313-15.725.959-6.47-.75.625c-1.965,1.534-2.184,3.651-4.154,4.593-.5,0-.84.176-1.252-.124a1.915,1.915,0,0,1-.686-1.47,5.9,5.9,0,0,1,.686-2.811l1.1-1.967.748-.973,1.094-1.187,3.475-3.132a2.183,2.183,0,0,1,1.842-.883l6.564,0,4.336-2.948c.2-.135.365-.256.521-.381-.436-1-.477-1.944-.209-2.2l.484-.579c.512-.441,1.379-.567,2.721.309,1.34-.875,2.205-.75,2.717-.309l.488.579c.268.254.225,1.2-.211,2.2.156.125.322.246.52.38l4.336,2.948,6.564,0a2.183,2.183,0,0,1,1.842.883l3.475,3.132,1.1,1.187.75.973,1.092,1.967a5.836,5.836,0,0,1,.686,2.811,1.915,1.915,0,0,1-.686,1.47c-.406.3-.746.124-1.25.124-1.967-.942-2.186-3.059-4.156-4.593l-.75-.625.959,6.47,3.313,15.725a2.474,2.474,0,0,1-.352,1.873,2.48,2.48,0,0,1-1.572,1.075,2.609,2.609,0,0,1-.514.056A2.5,2.5,0,0,1,17064.824-8133.779Zm-9.568-35.155a4.5,4.5,0,0,1,4.5-4.5,4.5,4.5,0,0,1,4.5,4.5,4.5,4.5,0,0,1-4.5,4.5A4.5,4.5,0,0,1,17055.256-8168.935Zm-21.7,0a4.5,4.5,0,0,1,4.5-4.5,4.5,4.5,0,0,1,4.5,4.5,4.506,4.506,0,0,1-4.5,4.5A4.5,4.5,0,0,1,17033.555-8168.935Z" transform="translate(-15967.828 8897)" fill="#4a4a4a"/>
  </g>
</svg>
