<svg xmlns="http://www.w3.org/2000/svg" width="60" height="43.001" viewBox="0 0 60 43.001">
  <g id="icon_공동구매참여" transform="translate(-1051 -723)">
    <rect id="사각형_" data-name="사각형 " width="60" height="20" rx="10" transform="translate(1051 723)" fill="#4a4a4a"/>
    <path id="check" d="M18723.828-6954.3a1,1,0,0,1-.84-.412l-3.525-4.855a1,1,0,0,1,.221-1.4,1,1,0,0,1,1.4.221l2.682,3.694,4.145-7.478a1,1,0,0,1,1.357-.386,1,1,0,0,1,.391,1.358l-4.846,8.743a1,1,0,0,1-.877.516A1.018,1.018,0,0,1,18723.828-6954.3Z" transform="translate(-17643.365 7692.508)" fill="#fff"/>
    <g id="hand" transform="translate(0 -1)">
      <g id="합치기_" data-name="합치기 " transform="translate(-17641.463 7697)" fill="#fff">
        <path d="M 18738.4609375 -6930.99853515625 C 18736.572265625 -6930.99853515625 18734.763671875 -6931.482421875 18733.23046875 -6932.39794921875 C 18731.759765625 -6933.27734375 18730.650390625 -6934.48583984375 18730.0234375 -6935.8935546875 L 18730.001953125 -6935.94091796875 L 18729.9765625 -6935.98583984375 L 18724.498046875 -6945.484375 C 18724.16015625 -6946.064453125 18724.072265625 -6946.73828125 18724.244140625 -6947.3828125 C 18724.416015625 -6948.02734375 18724.830078125 -6948.5654296875 18725.408203125 -6948.8984375 C 18725.791015625 -6949.1181640625 18726.22265625 -6949.234375 18726.66015625 -6949.234375 C 18727.552734375 -6949.234375 18728.380859375 -6948.75634765625 18728.82421875 -6947.986328125 L 18729.59765625 -6946.64892578125 L 18731.462890625 -6943.41650390625 L 18731.462890625 -6947.14892578125 L 18731.462890625 -6959.00146484375 C 18731.462890625 -6960.10302734375 18732.361328125 -6960.9990234375 18733.46484375 -6960.9990234375 C 18734.56640625 -6960.9990234375 18735.4609375 -6960.10302734375 18735.4609375 -6959.00146484375 L 18735.4609375 -6956.82958984375 L 18735.4609375 -6955.41455078125 L 18736.794921875 -6955.88671875 C 18737.009765625 -6955.96337890625 18737.234375 -6956.001953125 18737.462890625 -6956.001953125 C 18738.361328125 -6956.001953125 18739.154296875 -6955.39599609375 18739.390625 -6954.5283203125 L 18739.68359375 -6953.447265625 L 18740.724609375 -6953.861328125 C 18740.958984375 -6953.95458984375 18741.20703125 -6954.001953125 18741.462890625 -6954.001953125 C 18742.56640625 -6954.001953125 18743.46484375 -6953.10400390625 18743.46484375 -6952 L 18743.46484375 -6951.0009765625 L 18744.462890625 -6951 C 18746.115234375 -6950.998046875 18747.458984375 -6949.65283203125 18747.458984375 -6948.0009765625 L 18747.458984375 -6938.75830078125 L 18747.458984375 -6938.7353515625 L 18747.4609375 -6938.712890625 C 18747.462890625 -6938.642578125 18747.46484375 -6938.57177734375 18747.46484375 -6938.5009765625 C 18747.46484375 -6938.43017578125 18747.462890625 -6938.35888671875 18747.4609375 -6938.28955078125 L 18747.458984375 -6938.2666015625 L 18747.458984375 -6938.24365234375 L 18747.458984375 -6938.001953125 C 18747.458984375 -6937.65185546875 18747.400390625 -6937.31201171875 18747.287109375 -6936.9931640625 L 18747.271484375 -6936.951171875 L 18747.26171875 -6936.908203125 C 18746.8359375 -6935.28076171875 18745.748046875 -6933.7939453125 18744.197265625 -6932.7216796875 C 18742.587890625 -6931.6103515625 18740.55078125 -6930.99853515625 18738.4609375 -6930.99853515625 Z" stroke="none"/>
        <path d="M 18738.4609375 -6931.99853515625 C 18742.220703125 -6931.99853515625 18745.513671875 -6934.16943359375 18746.29296875 -6937.16015625 L 18746.31640625 -6937.24609375 L 18746.345703125 -6937.330078125 C 18746.419921875 -6937.54052734375 18746.458984375 -6937.7666015625 18746.458984375 -6938.001953125 L 18746.4609375 -6938.33544921875 C 18746.462890625 -6938.3896484375 18746.46484375 -6938.4453125 18746.46484375 -6938.5009765625 C 18746.46484375 -6938.556640625 18746.462890625 -6938.6123046875 18746.4609375 -6938.6669921875 L 18746.458984375 -6938.75830078125 L 18746.458984375 -6948.0009765625 C 18746.458984375 -6949.10205078125 18745.5625 -6949.9990234375 18744.462890625 -6950 L 18742.46484375 -6950.00244140625 L 18742.46484375 -6952 C 18742.46484375 -6952.55224609375 18742.015625 -6953.001953125 18741.462890625 -6953.001953125 C 18741.3359375 -6953.001953125 18741.2109375 -6952.978515625 18741.09375 -6952.93212890625 L 18739.01171875 -6952.10400390625 L 18738.42578125 -6954.2666015625 C 18738.30859375 -6954.69970703125 18737.912109375 -6955.001953125 18737.462890625 -6955.001953125 C 18737.349609375 -6955.001953125 18737.236328125 -6954.982421875 18737.12890625 -6954.9443359375 L 18734.4609375 -6954 L 18734.4609375 -6959.00146484375 C 18734.4609375 -6959.5517578125 18734.013671875 -6959.9990234375 18733.46484375 -6959.9990234375 C 18732.912109375 -6959.9990234375 18732.462890625 -6959.5517578125 18732.462890625 -6959.00146484375 L 18732.462890625 -6939.68408203125 L 18727.958984375 -6947.4873046875 C 18727.689453125 -6947.955078125 18727.203125 -6948.234375 18726.66015625 -6948.234375 C 18726.39453125 -6948.234375 18726.140625 -6948.16650390625 18725.908203125 -6948.03173828125 C 18725.560546875 -6947.83203125 18725.3125 -6947.509765625 18725.2109375 -6947.1240234375 C 18725.107421875 -6946.73779296875 18725.16015625 -6946.33447265625 18725.36328125 -6945.98388671875 L 18730.89453125 -6936.3955078125 L 18730.935546875 -6936.30029296875 C 18732.08203125 -6933.7275390625 18735.107421875 -6931.99853515625 18738.4609375 -6931.99853515625 M 18738.4609375 -6929.99853515625 C 18734.185546875 -6929.99853515625 18730.5390625 -6932.2783203125 18729.109375 -6935.486328125 L 18723.630859375 -6944.98486328125 C 18722.66015625 -6946.65966796875 18723.234375 -6948.80078125 18724.91015625 -6949.76513671875 C 18726.583984375 -6950.728515625 18728.7265625 -6950.162109375 18729.69140625 -6948.4853515625 L 18730.462890625 -6947.14892578125 L 18730.462890625 -6959.00146484375 C 18730.462890625 -6960.65771484375 18731.80859375 -6961.9990234375 18733.46484375 -6961.9990234375 C 18735.12109375 -6961.9990234375 18736.4609375 -6960.65771484375 18736.4609375 -6959.00146484375 L 18736.4609375 -6956.82958984375 C 18736.775390625 -6956.94091796875 18737.11328125 -6957.001953125 18737.462890625 -6957.001953125 C 18738.845703125 -6957.001953125 18740.009765625 -6956.06396484375 18740.35546875 -6954.79052734375 C 18740.69921875 -6954.92724609375 18741.072265625 -6955.001953125 18741.462890625 -6955.001953125 C 18743.119140625 -6955.001953125 18744.46484375 -6953.65625 18744.46484375 -6952 C 18746.673828125 -6951.99755859375 18748.458984375 -6950.2060546875 18748.458984375 -6948.0009765625 L 18748.458984375 -6938.75830078125 C 18748.462890625 -6938.6728515625 18748.46484375 -6938.5869140625 18748.46484375 -6938.5009765625 C 18748.46484375 -6938.4150390625 18748.462890625 -6938.32861328125 18748.458984375 -6938.24365234375 L 18748.458984375 -6938.001953125 C 18748.458984375 -6937.52978515625 18748.37890625 -6937.07666015625 18748.228515625 -6936.65625 C 18747.236328125 -6932.84716796875 18743.240234375 -6929.99853515625 18738.4609375 -6929.99853515625 Z" stroke="none" fill="#101010"/>
      </g>
      <path id="합치기_2" data-name="합치기 " d="M18727-6954v-6.251a1,1,0,0,1,1-1,1,1,0,0,1,1,1V-6954a1,1,0,0,1-1,1A1,1,0,0,1,18727-6954Zm-4-.917v-7.168a1,1,0,0,1,1-1,1,1,0,0,1,1,1v7.168a1,1,0,0,1-1,1A1,1,0,0,1,18723-6954.917Zm-4-.917V-6963a1,1,0,0,1,1-1,1,1,0,0,1,1,1v7.168a1,1,0,0,1-1,1A1,1,0,0,1,18719-6955.833Z" transform="translate(-17626 7705)" fill="#101010"/>
    </g>
  </g>
</svg>
