<svg xmlns="http://www.w3.org/2000/svg" xmlns:xlink="http://www.w3.org/1999/xlink" width="59.963" height="58.799" viewBox="0 0 59.963 58.799">
  <defs>
    <clipPath id="clip-path">
      <rect id="사각형_" data-name="사각형 " width="28" height="18" transform="translate(1069 703)" fill="#fff" stroke="#767676" stroke-width="1"/>
    </clipPath>
    <clipPath id="clip-path-2">
      <rect id="사각형" width="32" height="18" fill="#fff" stroke="#767676" stroke-width="1"/>
    </clipPath>
  </defs>
  <g id="icon_상품구매" transform="translate(-1062 -699.465)">
    <g id="bag2" transform="translate(-2 -1)">
      <g id="패스_" data-name="패스 " transform="translate(1065 721)" fill="#fff">
        <path d="M 35 35 L 1 35 C 0.4529078006744385 35 0.007015871815383434 34.55839538574219 8.219842129619792e-05 34.01292037963867 L 0.9995099902153015 2.031229972839355 L 1 2.015619993209839 L 1 2 C 1 1.448600053787231 1.448600053787231 1 2 1 L 34 1 C 34.55139923095703 1 35 1.448600053787231 35 2 L 35 2.015619993209839 L 35.00048828125 2.031229972839355 L 35.99991607666016 34.01292037963867 C 35.99298477172852 34.55839538574219 35.54709243774414 35 35 35 Z" stroke="none"/>
        <path d="M 2 2 L 1.999019622802734 2.062469482421875 L 1 34 L 34.99902725219727 34 L 34 2 L 2 2 M 2 0 L 34 0 C 35.10456848144531 0 36 0.8954315185546875 36 2 L 37 34 C 37 35.10456848144531 36.10456848144531 36 35 36 L 1 36 C -0.1045684814453125 36 -1 35.10456848144531 -1 34 L 0 2 C 0 0.8954315185546875 0.8954315185546875 0 2 0 Z" stroke="none" fill="#101010"/>
      </g>
      <g id="마스크_그룹" data-name="마스크 그룹" transform="translate(1 4)" clip-path="url(#clip-path)">
        <g id="패스_2" data-name="패스 " transform="translate(1073 710)" fill="none">
          <path d="M.947,0H17.053L18,13.2H0Z" stroke="none"/>
          <path d="M 2.808976173400879 1.999998092651367 L 2.148683547973633 11.20019721984863 L 15.85131645202637 11.20019721984863 L 15.19102382659912 1.999998092651367 L 2.808976173400879 1.999998092651367 M 0.9473705291748047 -1.9073486328125e-06 L 17.0526294708252 -1.9073486328125e-06 L 18 13.20019721984863 L 0 13.20019721984863 L 0.9473705291748047 -1.9073486328125e-06 Z" stroke="none" fill="#101010"/>
        </g>
      </g>
    </g>
    <g id="bag1" transform="translate(15 8)">
      <g id="패스" transform="translate(1065 726.263)" fill="#fff">
        <path d="M 29.31578636169434 23 L 0.6842071413993835 23 C 0.2689846158027649 23 0.01284701470285654 22.77976226806641 0.0004676753305830061 22.67443084716797 L 0.8413271307945251 1.372769951820374 L 0.8421071171760559 1.353060007095337 L 0.8421071171760559 1.333330035209656 C 0.8421071171760559 1.231510043144226 1.100597143173218 1 1.526317119598389 1 L 28.47367668151855 1 C 28.8993968963623 1 29.15788650512695 1.231510043144226 29.15788650512695 1.333330035209656 L 29.15788650512695 1.353060007095337 L 29.15866661071777 1.372769951820374 L 29.99952697753906 22.67443084716797 C 29.98714637756348 22.77976226806641 29.73101043701172 23 29.31578636169434 23 Z" stroke="none"/>
        <path d="M 1.817344665527344 2 L 1.027866363525391 22 L 28.97212600708008 22 L 28.18264961242676 2 L 1.817344665527344 2 M 1.526317596435547 0 L 28.47367668151855 0 C 29.40384674072266 0 30.15788650512695 0.5969505310058594 30.15788650512695 1.333330154418945 L 30.99999618530273 22.66666984558105 C 30.99999618530273 23.40304946899414 30.24594688415527 24 29.31578636169434 24 L 0.6842079162597656 24 C -0.2459526062011719 24 -1.000001907348633 23.40304946899414 -1.000001907348633 22.66666984558105 L -0.1578922271728516 1.333330154418945 C -0.1578922271728516 0.5969505310058594 0.5961475372314453 0 1.526317596435547 0 Z" stroke="none" fill="#101010"/>
      </g>
      <g id="마스크_그룹-2" data-name="마스크 그룹" transform="translate(1065 713)" clip-path="url(#clip-path-2)">
        <g id="패스-2" data-name="패스" transform="translate(6.571 8)" fill="none">
          <path d="M.842,0H15.158L16,13.2H0Z" stroke="none"/>
          <path d="M 2.718573570251465 1.999998092651367 L 2.131651878356934 11.20019721984863 L 13.86834621429443 11.20019721984863 L 13.28141784667969 1.999998092651367 L 2.718573570251465 1.999998092651367 M 0.8421001434326172 -1.9073486328125e-06 L 15.15789031982422 -1.9073486328125e-06 L 16 13.20019721984863 L 0 13.20019721984863 L 0.8421001434326172 -1.9073486328125e-06 Z" stroke="none" fill="#101010"/>
        </g>
      </g>
    </g>
    <g id="celebration" transform="translate(-32.805 61.764) rotate(-3)">
      <path id="패스_3" data-name="패스 " d="M0,2.595S9.465,3.611,11.424.539s-1.71,8-1.71,8c0-.023-6.588,0-6.588,0Z" transform="translate(1104.593 706.515) rotate(-30)" fill="#8ed162"/>
      <path id="패스_4" data-name="패스 " d="M1090.84,703.713l2.578,4.053c-.034-.1,3.422,0,3.422,0l-1.727-6.376Z" transform="translate(-2.895 -5.484)" fill="#ffa9a9"/>
      <path id="패스_5" data-name="패스 " d="M0,3.1,3.437,8.5C3.391,8.361,8,8.5,8,8.5L5.7,0Z" transform="translate(1116.535 722.263) rotate(132)" fill="#b1bef2"/>
    </g>
  </g>
</svg>
