<svg xmlns="http://www.w3.org/2000/svg" width="45" height="34.002" viewBox="0 0 45 34.002">
  <g id="icon_주문배송조회" transform="translate(0 0)">
    <line id="선" x2="1.99" transform="translate(42.99 15.949)" fill="none"/>
    <path id="패스" d="M152.83,685.93l.01,12.68-1.02,1H108.85l-1.01-1V685.02l9.01-11.04h7.97v2h12.01v-.09h2v.09" transform="translate(-107.84 -669.98)" fill="none"/>
    <path id="패스-2" data-name="패스" d="M152.82,685.93h-1.99l.01,7.05v4.63h-41V685.73l7.95-9.75h7.03v-2h-7.98l-9,11.04v13.59l1.01,1h42.97l1.02-1-.01-12.68m-14-10.04h-2v.09h2Z" transform="translate(-107.84 -669.98)" fill="#4a4a4a"/>
    <path id="패스-3" data-name="패스" d="M150.82,690.98h-26v-19h13.02v-2H122.82v23h30v-7.05h-1.99" transform="translate(-107.84 -669.98)" fill="#4a4a4a"/>
    <circle id="타원" cx="4.5" cy="4.5" r="4.5" transform="translate(32.104 24.998)" fill="#fff"/>
    <path id="패스-4" data-name="패스" d="M148.53,697.61a4.5,4.5,0,0,0-8.59,1.87.57.57,0,0,0,.01.13,4.492,4.492,0,0,0,8.98,0,.569.569,0,0,0,.01-.13A4.487,4.487,0,0,0,148.53,697.61Zm-4.09,4.37a2.494,2.494,0,0,1-2.49-2.37.57.57,0,0,1-.01-.13,2.5,2.5,0,1,1,5,0v.13A2.5,2.5,0,0,1,144.44,701.98Z" transform="translate(-107.84 -669.979)" fill="#4a4a4a"/>
    <circle id="타원-2" data-name="타원" cx="4.5" cy="4.5" r="4.5" transform="translate(4.67 24.998)" fill="#fff"/>
    <path id="패스-5" data-name="패스" d="M121.31,698.14a3.11,3.11,0,0,0-.22-.53,3.978,3.978,0,0,0-.35-.64,4.491,4.491,0,0,0-7.46,0,3.979,3.979,0,0,0-.35.64,3.11,3.11,0,0,0-.22.53,4.525,4.525,0,0,0-.2,1.34.57.57,0,0,0,.01.13,3.966,3.966,0,0,0,.19,1.2,4.773,4.773,0,0,0,.57,1.18,4.491,4.491,0,0,0,7.46,0,4.772,4.772,0,0,0,.57-1.18,3.966,3.966,0,0,0,.19-1.2.57.57,0,0,0,.01-.13A4.524,4.524,0,0,0,121.31,698.14Zm-4.3,3.84a2.487,2.487,0,0,1-2.49-2.37.57.57,0,0,1-.01-.13,2.5,2.5,0,1,1,5,0v.13A2.5,2.5,0,0,1,117.01,701.98Z" transform="translate(-107.84 -669.979)" fill="#4a4a4a"/>
    <rect id="사각형" width="2" height="8" transform="translate(28.99 5.91)" fill="#4a4a4a"/>
    <rect id="사각형-2" data-name="사각형" width="2" height="2" transform="translate(28.992 14.826)" fill="#4a4a4a"/>
    <path id="패스-6" data-name="패스" d="M152.84,685.93h-2.01V671.98H137.84v-2h14.99v4Z" transform="translate(-107.84 -669.98)" fill="#f86363"/>
  </g>
</svg>
