<svg xmlns="http://www.w3.org/2000/svg" xmlns:xlink="http://www.w3.org/1999/xlink" width="55" height="53" viewBox="0 0 55 53">
  <defs>
    <clipPath id="clip-path">
      <rect id="사각형" width="55" height="53" transform="translate(1482 947)" fill="#fff" stroke="#767676" stroke-width="1"/>
    </clipPath>
    <clipPath id="clip-path-2">
      <path id="제외" d="M22.5,49h0L0,37.017V12.25L22.5,0,45,12.385V37.017L22.5,49ZM2.045,14.463V35.792L21.478,46.141V24.562Zm40.91.121h0L23.522,24.566V46.14L42.954,35.792V14.584ZM12.164,7.952h0L3.268,12.8l19.236,10,9.161-4.706L12.164,7.952ZM22.494,2.329,14.327,6.775,33.892,16.942l7.837-4.026Z" fill="#4a4a4a"/>
    </clipPath>
  </defs>
  <g id="icon_오배송" transform="translate(-1482 -947)" clip-path="url(#clip-path)">
    <g id="icon" transform="translate(1482 947.25)">
      <g id="그룹">
        <path id="제외-2" data-name="제외" d="M22.5,49h0L0,37.017V12.25L22.5,0,45,12.385V37.017L22.5,49ZM2.045,14.463V35.792L21.478,46.141V24.562Zm40.91.121h0L23.522,24.566V46.14L42.954,35.792V14.584ZM12.164,7.952h0L3.268,12.8l19.236,10,9.161-4.706L12.164,7.952ZM22.494,2.329,14.327,6.775,33.892,16.942l7.837-4.026Z" fill="#4a4a4a"/>
      </g>
      <circle id="타원" cx="11" cy="11" r="11" transform="translate(32.001 29.5)" fill="#fff"/>
      <path id="패스" d="M206.205,558.523a3.531,3.531,0,0,0-2.551-.955c-2.18,0-3.59,1.55-3.59,3.95h2.011c0-1.486.829-2.013,1.538-2.013a1.322,1.322,0,0,1,1.364,1.226c.063.847-.39,1.277-.962,1.821a3.68,3.68,0,0,0-1.432,3.468h2a2.637,2.637,0,0,1,.935-2.178,4.484,4.484,0,0,0,1.536-3.022A3.129,3.129,0,0,0,206.205,558.523Zm-1.393,10a1.25,1.25,0,1,1-1.25-1.251A1.25,1.25,0,0,1,204.813,568.521Zm-1.25-17a12,12,0,1,0,12,12A12,12,0,0,0,203.563,551.521Zm0,2a10,10,0,1,1-10,10A10.011,10.011,0,0,1,203.563,553.521Z" transform="translate(-160.563 -523.021)" fill="#f84f34"/>
    </g>
  </g>
</svg>
