<svg xmlns="http://www.w3.org/2000/svg" xmlns:xlink="http://www.w3.org/1999/xlink" width="62" height="62" viewBox="0 0 62 62">
  <defs>
    <clipPath id="clip-path">
      <circle id="타원" cx="31" cy="31" r="31" transform="translate(570 406.43)" fill="#0050ff"/>
    </clipPath>
  </defs>
  <g id="toss_img" transform="translate(-570 -406.43)" clip-path="url(#clip-path)">
    <circle id="타원-2" data-name="타원" cx="31" cy="31" r="31" transform="translate(570 406.43)" fill="#0050ff"/>
    <path id="패스" d="M15.906,40.9A6.96,6.96,0,0,0,9.07,34.744H8.994a7.041,7.041,0,0,0-.806.047,6.935,6.935,0,0,0-2.69.894h0l-.053.031-.046.027C1.419,38.114,0,43.585,0,46.916l3.2-1.85a6.578,6.578,0,0,0,5.712,3.6h.077A6.959,6.959,0,0,0,15.906,40.9" transform="translate(593.322 386.129)" fill="#fff"/>
    <path id="패스-2" data-name="패스" d="M1176.235,96.675a2.527,2.527,0,0,0,2.42,1.416c1.091,0,1.675-.53,1.673-1.154,0-.76-1.133-.932-2.478-1.2-1.774-.365-3.744-.905-3.75-3.127,0-1.773,1.706-3.317,4.3-3.3a5,5,0,0,1,4.308,1.931l-2.233,1.3a2.254,2.254,0,0,0-2.069-1.1c-1.052,0-1.558.433-1.556,1.017,0,.662.86.836,2.4,1.163,1.755.346,3.822.944,3.828,3.2,0,1.637-1.453,3.491-4.512,3.48-2.306.006-3.832-.789-4.715-2.232l0-.006Z" transform="translate(-562.754 351.836)" fill="#fff"/>
    <path id="패스-3" data-name="패스" d="M944.815,96.675a2.527,2.527,0,0,0,2.42,1.416c1.091,0,1.675-.53,1.673-1.154,0-.76-1.133-.932-2.478-1.2-1.774-.365-3.744-.905-3.75-3.127,0-1.773,1.706-3.317,4.3-3.3a5,5,0,0,1,4.308,1.931l-2.233,1.3a2.254,2.254,0,0,0-2.069-1.1c-1.052,0-1.558.433-1.556,1.017,0,.662.859.836,2.4,1.163,1.755.346,3.822.944,3.828,3.2,0,1.637-1.452,3.491-4.512,3.48-2.306.006-3.831-.789-4.714-2.232l0-.006Z" transform="translate(-340.949 351.836)" fill="#fff"/>
    <path id="패스-4" data-name="패스" d="M669.013,89.3a5.494,5.494,0,1,0,5.494,5.494,5.494,5.494,0,0,0-5.494-5.494m0,8.424a2.93,2.93,0,1,1,2.93-2.93,2.93,2.93,0,0,1-2.93,2.93" transform="translate(-73.63 351.839)" fill="#fff"/>
    <path id="패스-5" data-name="패스" d="M457.035,11.412a3.089,3.089,0,0,1-1.4.6c-.688,0-1.16-.394-1.16-1.515V6.326h3.27v-2.4h-3.27V0l-2.725,1.573V3.926h-2.18v2.4h2.18v4.419c0,2.893,1.348,3.955,3.571,3.955a5.882,5.882,0,0,0,2.983-1.093Z" transform="translate(131.433 437.429)" fill="#fff"/>
  </g>
</svg>
