<svg xmlns="http://www.w3.org/2000/svg" width="90" height="73.601" viewBox="0 0 90 73.601">
  <g id="icon_drag" transform="translate(-10.996 10.502)">
    <path id="패스_28790" data-name="패스 28790" d="M-2154.823-2273.756l.233-3.552-5.914,3.041-1.173.6,1.044.739,5.5,3.9.222-3.375c12.839,1.45,21.664,4.453,21.664,7.925,0,4.141-12.52,7.617-29.437,8.584-.049-.158-.093-.317-.148-.472-.03-.085-.069-.167-.1-.251-.093-.236-.185-.471-.294-.7-.026-.055-.058-.108-.085-.163-.127-.256-.259-.51-.407-.757-.022-.035-.046-.069-.067-.1-.161-.262-.33-.518-.516-.767l-.018-.026c-.024-.032-.052-.06-.076-.092-.177-.231-.36-.455-.553-.666-.063-.071-.132-.137-.2-.206-.162-.169-.326-.336-.5-.491-.111-.1-.228-.194-.344-.288-.138-.114-.274-.229-.415-.334-.157-.115-.322-.223-.486-.33-.091-.06-.175-.126-.269-.183-.026-.016-.052-.027-.077-.042-.175-.1-.353-.2-.533-.287-.122-.063-.242-.131-.366-.189-.145-.068-.292-.121-.438-.18-.166-.067-.329-.138-.5-.2-.084-.029-.172-.049-.258-.076-.229-.071-.458-.141-.691-.194l-.033-.007a9.449,9.449,0,0,0-1.86-.232c-.037,0-.075,0-.11,0-.277,0-.553,0-.828.022-.251.019-.5.055-.746.094-.062.009-.125.014-.187.024a9.6,9.6,0,0,0-1.761.493c-.027.011-.055.018-.082.029-.21.083-.414.181-.619.279-.095.046-.192.084-.285.133-.147.076-.288.165-.431.249s-.3.169-.443.265c-.105.069-.206.147-.309.221-.175.126-.35.249-.52.387-.021.017-.042.031-.063.047-.077.065-.144.135-.219.2-.16.139-.318.28-.467.427-.116.115-.225.24-.335.362s-.225.245-.33.371c-.138.168-.267.343-.4.521-.067.092-.136.183-.2.276-.148.22-.287.45-.421.685-.029.052-.063.1-.091.151l-.022.042c-.134.248-.252.5-.365.752-.029.066-.063.131-.091.2-.1.226-.176.456-.255.685-.035.1-.076.2-.108.3l-.01.03c-17.082-.94-29.761-4.432-29.761-8.6,0-3.472,8.825-6.475,21.664-7.925l.223,3.375,5.5-3.9,1.044-.739-1.174-.6-5.913-3.041.232,3.552c-16.165,1.792-27.511,6-27.511,10.9,0,5.678,15.23,11.436,35.539,12.844a10.564,10.564,0,0,0,.306,1.027l0,.014c.08.225.175.443.268.661.042.1.079.2.124.3.07.146.151.288.225.432.087.165.17.332.266.493.058.1.125.193.185.289.127.2.255.4.4.587.013.018.024.038.038.055l0-.005,1.583-2.886a7.522,7.522,0,0,1-.347-.787,7.826,7.826,0,0,1-.525-2.977,7.765,7.765,0,0,1,.631-2.923,7.094,7.094,0,0,1,6.636-4.4,7.1,7.1,0,0,1,6.3,4.384,7.778,7.778,0,0,1,.645,3.27,7.766,7.766,0,0,1-.519,2.629,7.111,7.111,0,0,1-6.748,4.689l-1.552,2.834-.006.008h0c.047.008.094.01.14.018.249.042.5.073.748.095.093.008.185.018.276.022.25.015.5.016.747.012.093,0,.185,0,.278-.007.251-.014.5-.039.749-.072.085-.011.173-.019.258-.032.266-.042.528-.1.789-.164.066-.016.131-.028.2-.045a9.608,9.608,0,0,0,.978-.322c.021-.008.042-.02.064-.028A9.825,9.825,0,0,0-2166-2244.4l.014-.01c.017-.015.032-.031.05-.045.238-.2.467-.41.683-.629.048-.047.093-.1.139-.149.183-.191.36-.387.526-.59.072-.091.14-.185.211-.279.132-.172.261-.345.381-.525.086-.128.163-.264.244-.4s.159-.247.231-.376c.019-.035.033-.072.052-.107.07-.134.132-.271.2-.407.086-.18.177-.36.253-.544.033-.081.059-.163.09-.243a10.98,10.98,0,0,0,.421-1.335c20.136-1.447,35.195-7.171,35.195-12.817C-2127.312-2267.758-2138.657-2271.963-2154.823-2273.756Z" transform="translate(2228.308 2266.806)" fill="#f84f34"/>
    <path id="swipe" d="M37.451,16.11a4.441,4.441,0,0,0-2.511.778,4.534,4.534,0,0,0-4.263-3.079,4.441,4.441,0,0,0-2.511.778A4.534,4.534,0,0,0,23.9,11.507a4.415,4.415,0,0,0-2.258.619V4.6a4.517,4.517,0,1,0-9.032,0V24.165l-3.924-3a5.837,5.837,0,0,0-7.7.557,3.5,3.5,0,0,0,0,4.881L17.07,42.995a10,10,0,0,0,7.187,3.033h5.29A12.555,12.555,0,0,0,41.967,33.37V20.712A4.565,4.565,0,0,0,37.451,16.11Zm2.258,17.26A10.273,10.273,0,0,1,29.548,43.726h-5.29a7.778,7.778,0,0,1-5.591-2.359L2.587,24.977a1.167,1.167,0,0,1,0-1.627,3.607,3.607,0,0,1,2.574-1.077,3.571,3.571,0,0,1,2.174.734l5.729,4.379a1.115,1.115,0,0,0,1.183.108,1.155,1.155,0,0,0,.623-1.029V4.6a2.258,2.258,0,1,1,4.516,0v17.26a1.129,1.129,0,1,0,2.258,0V16.11a2.258,2.258,0,1,1,4.516,0v5.753a1.129,1.129,0,1,0,2.258,0V18.411a2.258,2.258,0,1,1,4.516,0v3.452a1.129,1.129,0,1,0,2.258,0V20.712a2.258,2.258,0,1,1,4.516,0Z" transform="translate(43.272 2.255) rotate(30)" fill="#fff"/>
  </g>
</svg>
