<svg xmlns="http://www.w3.org/2000/svg" width="42" height="37.001" viewBox="0 0 42 37.001">
  <g id="icon_상담_답변확인" data-name="icon_상담/답변확인" transform="translate(-20.25 -647.429)">
    <rect id="사각형" width="2.099" height="8.51" transform="translate(53.844 664.42)" fill="#4a4a4a"/>
    <path id="패스" d="M55.922,672.62a1.507,1.507,0,0,1-.084.31,7.147,7.147,0,0,1-.494,1.44,6.483,6.483,0,0,1-.566,1.06c-2.3,3.7-7.116,5.591-9.991,6.421-1.281.37-2.173.54-2.3.56l-.084-.46-.293-1.5c.01,0,.22-.04.577-.12.462-.11,1.175-.29,2.025-.56,3.17-1.01,8.207-3.241,9.131-7.451.01-.03.01-.05.021-.08Z" fill="#4a4a4a"/>
    <ellipse id="타원" cx="3.5" cy="3.5" rx="3.5" ry="3.5" transform="translate(37.578 677.43)" fill="#4a4a4a"/>
    <ellipse id="타원-2" data-name="타원" cx="1.5" cy="1.5" rx="1.5" ry="1.5" transform="translate(39.578 679.43)" fill="#fff"/>
    <path id="패스-2" data-name="패스" d="M62.25,666.93c0,.2,0,.4-.011.59-.241,5.19-3.568,6.58-6.895,6.85-.5.04-1.007.06-1.5.06V664.42h2.1v7.87a6.122,6.122,0,0,0,2.361-.82,3.534,3.534,0,0,0,1.27-1.46,7.232,7.232,0,0,0,.577-3.08,8.065,8.065,0,0,0-.346-2.51h2.172a10.1,10.1,0,0,1,.262,1.92C62.25,666.53,62.25,666.73,62.25,666.93Z" fill="none"/>
    <path id="패스-3" data-name="패스" d="M62.239,666.34a10.1,10.1,0,0,0-.262-1.92H59.805a8.065,8.065,0,0,1,.346,2.51,7.232,7.232,0,0,1-.577,3.08,3.534,3.534,0,0,1-1.27,1.46,6.122,6.122,0,0,1-2.361.82v-7.87h-2.1v10.01c.493,0,1-.02,1.5-.06,3.327-.27,6.654-1.66,6.895-6.85.011-.19.011-.39.011-.59S62.25,666.53,62.239,666.34Z" fill="#4a4a4a"/>
    <path id="패스-4" data-name="패스" d="M61.977,664.42H59.805c-.074-.21-.147-.4-.231-.58a3.527,3.527,0,0,0-1.27-1.46,5.81,5.81,0,0,0-2.361-.82v2.86h-2.1v-1.5A13.334,13.334,0,0,0,41.25,649.439v-2.01a15.25,15.25,0,0,1,13.7,9.991,13.8,13.8,0,0,1,.619,2.08C58.356,659.77,61.117,660.88,61.977,664.42Z" fill="#f86363"/>
    <path id="패스-5" data-name="패스" d="M27.586,657.35c-.011.02-.021.05-.032.07a14.905,14.905,0,0,0-.587,1.94c0,.02-.011.05-.011.07a.188.188,0,0,0-.021.07c-.367.04-.745.09-1.1.16a6.115,6.115,0,0,0-5.31,4.76,10.1,10.1,0,0,0-.262,1.92c-.011.19-.011.39-.011.59s0,.4.011.59c.146,3.21,1.479,4.96,3.253,5.9l.063.03a8.936,8.936,0,0,0,2.98.86l.6.06c.5.04,1.007.06,1.5.06V662.92A13.335,13.335,0,0,1,41.25,649.439v-2.01A15.233,15.233,0,0,0,27.586,657.35Zm-1.029,4.21v10.73a7.627,7.627,0,0,1-1.049-.24,4.993,4.993,0,0,1-1.312-.58,3.534,3.534,0,0,1-1.27-1.46,7.232,7.232,0,0,1-.577-3.08,8.065,8.065,0,0,1,.346-2.51c.074-.21.147-.4.231-.58a3.534,3.534,0,0,1,1.27-1.46,4.419,4.419,0,0,1,1.312-.58.027.027,0,0,1,.042-.01A7.4,7.4,0,0,1,26.557,661.56Z" fill="#4a4a4a"/>
  </g>
</svg>
