<svg xmlns="http://www.w3.org/2000/svg" width="46.242" height="33.65" viewBox="0 0 46.242 33.65">
  <g id="icon_쿠폰_적립금" data-name="icon_쿠폰/적립금" transform="translate(-1077.938 -522.34)">
    <path id="패스" d="M1119.7,540.83c-.14.06-.28.12-.43.18v6.97h-29.55v-2.11h-2.39v2.11h-7.39V540.8a5.856,5.856,0,0,0,1.91-2.02,5.242,5.242,0,0,0,.74-2.46c0-.08.01-.14.01-.21v-.16a5.444,5.444,0,0,0-.75-2.83,5.886,5.886,0,0,0-1.91-2v-6.83h7.39v2.12h2.39v-2.12h9.65v-1.95h-21.43v9.96l.15.05a3.993,3.993,0,0,1,2.67,3.72,3.88,3.88,0,0,1-.74,2.28,3.575,3.575,0,0,1-1.93,1.39l-.15.04v10.15h32.73s0,.01.01,0h10.54V539.9A5.762,5.762,0,0,1,1119.7,540.83Z" fill="#4a4a4a"/>
    <rect id="사각형" width="2.38" height="2.38" transform="translate(1087.328 538.59)" fill="#4a4a4a"/>
    <rect id="사각형-2" data-name="사각형" width="2.38" height="2.38" transform="translate(1087.328 542.31)" fill="#4a4a4a"/>
    <rect id="사각형-3" data-name="사각형" width="2.38" height="2.38" transform="translate(1087.328 527.48)" fill="#4a4a4a"/>
    <rect id="사각형-4" data-name="사각형" width="2.38" height="2.38" transform="translate(1087.328 531.23)" fill="#4a4a4a"/>
    <rect id="사각형-5" data-name="사각형" width="2.38" height="2.38" transform="translate(1087.328 534.949)" fill="#4a4a4a"/>
    <path id="패스-2" data-name="패스" d="M1121.216,522.34v9.96l-.15.05c-.14.05-.28.1-.42.16a2.724,2.724,0,0,0-.5.29,2.969,2.969,0,0,0-.35.27c-.01.01-.02.01-.02.02a2.916,2.916,0,0,0-.3.31.134.134,0,0,0-.07.06c-.08.1-.16.2-.24.31a3.8,3.8,0,0,0-.44.74,1.666,1.666,0,0,0-.12.31.494.494,0,0,0-.06.17c-.02.08-.04.15-.06.23a4.027,4.027,0,0,0-.09.85v.21h-.02a3.9,3.9,0,0,0,.77,1.96.708.708,0,0,0,.08.1h-2.09a5.427,5.427,0,0,1-.51-2.02h1.56l.15-.03-.15.02h-1.62c0-.06-.01-.13-.01-.2v-.16a5.227,5.227,0,0,1,.1-1.06c.03-.17.07-.33.11-.5.04-.14.09-.28.14-.42a3.251,3.251,0,0,1,.18-.43c.07-.15.14-.28.22-.42a.862.862,0,0,1,.1-.16.447.447,0,0,1,.08-.11,4.586,4.586,0,0,1,.27-.39,6.006,6.006,0,0,1,1.46-1.33V524.3h-19.85v-1.96Z" fill="#f86363"/>
    <path id="패스-3" data-name="패스" d="M1108.243,538.34a3.358,3.358,0,0,1,.49-.3q-.255.15-.48.3Z" fill="#15a8b5"/>
    <line id="선" x1="0.01" transform="translate(1123.573 538.34)" fill="#15a8b5"/>
    <line id="선-2" data-name="선" x1="0.006" transform="translate(1105.408 538.34)" fill="none"/>
    <path id="패스-4" data-name="패스" d="M1121.633,543.78a4.668,4.668,0,0,0,.51-.36v1.3c0,.42-.31.84-.93,1.28a7.962,7.962,0,0,1-2.66,1.14,16.26,16.26,0,0,1-4.06.48,16.066,16.066,0,0,1-4.05-.48,8.024,8.024,0,0,1-2.67-1.14c-.6-.44-.91-.86-.91-1.28v-1.3a9.589,9.589,0,0,0,2.93,1.5,16.128,16.128,0,0,0,9.4,0,7.209,7.209,0,0,0,.7-.26c.15-.06.3-.11.44-.18a.179.179,0,0,0,.09-.04,1.071,1.071,0,0,0,.22-.1,3.917,3.917,0,0,0,.57-.31A4.241,4.241,0,0,0,1121.633,543.78Z" fill="#fff"/>
    <path id="패스-5" data-name="패스" d="M1122.15,540.29v.1c-.01.05-.01.09-.02.14a2.427,2.427,0,0,1-.91,1.36l-.01.01a5.758,5.758,0,0,1-1.52.93c-.14.06-.28.12-.43.18a7.4,7.4,0,0,1-.71.24,13.978,13.978,0,0,1-4.06.58,13.579,13.579,0,0,1-4.05-.59,6.923,6.923,0,0,1-2.66-1.35,3.04,3.04,0,0,1-.79-.97,1.537,1.537,0,0,1-.08-.19,1.943,1.943,0,0,1-.05-.2c-.01-.05-.01-.09-.02-.14v-.1a2.216,2.216,0,0,1,.94-1.6,5.577,5.577,0,0,1,.88-.61,8.055,8.055,0,0,1,1.7-.74l.09-.03a13.891,13.891,0,0,1,4.04-.58c.36,0,.71.01,1.06.04h.04c.33.02.65.06.96.11a.308.308,0,0,1,.1.01,11.62,11.62,0,0,1,1.81.4.292.292,0,0,1,.09.02h.01c.03.01.05.02.08.03h.01c.18.06.36.12.52.19a8.16,8.16,0,0,1,1.15.54c.05.03.1.06.14.08s.09.05.13.08a1.525,1.525,0,0,1,.16.11h.01c.16.12.31.23.45.35A2.183,2.183,0,0,1,1122.15,540.29Z" fill="#fff"/>
    <path id="패스-6" data-name="패스" d="M1122.4,547.01v.88c0,.5-.34.99-1.03,1.48a5.123,5.123,0,0,1-.76.46,2,2,0,0,1-.21.1,9.953,9.953,0,0,1-1.78.63,17.965,17.965,0,0,1-8.25,0,10.08,10.08,0,0,1-1.69-.58c-.18-.08-.35-.17-.51-.26a3.52,3.52,0,0,1-.56-.35,1.968,1.968,0,0,1-1.02-1.48v-.88a8.581,8.581,0,0,0,3.24,1.54,18.657,18.657,0,0,0,9.31,0c.07-.02.14-.04.2-.06a2.13,2.13,0,0,0,.3-.09.747.747,0,0,0,.16-.05c.16-.05.32-.1.47-.16a9.154,9.154,0,0,0,.94-.41l.33-.18c.1-.06.21-.12.31-.19A5.975,5.975,0,0,0,1122.4,547.01Z" fill="#fff"/>
    <path id="패스-7" data-name="패스" d="M1121.923,550.54a5.9,5.9,0,0,0,.48-.35v.85a1.972,1.972,0,0,1-1.03,1.49,8.7,8.7,0,0,1-2.75,1.21,17.965,17.965,0,0,1-8.25,0,8.786,8.786,0,0,1-2.76-1.2,3.125,3.125,0,0,1-.62-.56,2.168,2.168,0,0,1-.14-.18.672.672,0,0,1-.07-.11,1.886,1.886,0,0,1-.1-.2.742.742,0,0,1-.05-.16.355.355,0,0,1-.02-.1,1.224,1.224,0,0,1-.02-.19v-.85a8.891,8.891,0,0,0,3.24,1.54c.27.08.55.14.83.2,0,0,0,.01.01,0a3.41,3.41,0,0,0,.46.09,3.575,3.575,0,0,0,.57.1c.19.03.38.06.58.08h.01c.31.04.63.06.96.08.4.03.82.04,1.24.04s.83-.01,1.24-.04c.23-.01.46-.03.68-.06a.859.859,0,0,0,.23-.02c.01.01.01.01.03,0,.12-.01.24-.02.36-.04.02,0,.04-.01.06-.01.24-.03.47-.07.7-.12a.088.088,0,0,0,.07-.01,3.445,3.445,0,0,0,.44-.09h.01a7.7,7.7,0,0,0,.83-.2c.39-.11.77-.23,1.11-.36.16-.06.32-.12.47-.19.17-.07.34-.15.49-.23l.33-.18C1121.673,550.7,1121.8,550.62,1121.923,550.54Z" fill="#fff"/>
    <path id="패스-8" data-name="패스" d="M1123.58,538.34h-.01a5.086,5.086,0,0,0-.81-.97l-.03-.03h-4.08a3.239,3.239,0,0,1,.52.19,8.16,8.16,0,0,1,1.15.54c.05.03.1.06.14.08s.09.05.13.08a1.525,1.525,0,0,1,.16.11h.01c.16.12.31.23.45.35a2.183,2.183,0,0,1,.94,1.6v.1c-.01.05-.01.09-.02.14a2.427,2.427,0,0,1-.91,1.36l-.01.01a5.758,5.758,0,0,1-1.52.93c-.14.06-.28.12-.43.18a7.4,7.4,0,0,1-.71.24,13.978,13.978,0,0,1-4.06.58,13.579,13.579,0,0,1-4.05-.59,6.923,6.923,0,0,1-2.66-1.35,3.04,3.04,0,0,1-.79-.97,1.537,1.537,0,0,1-.08-.19,1.943,1.943,0,0,1-.05-.2c-.01-.05-.01-.09-.02-.14v-.1a2.216,2.216,0,0,1,.94-1.6,4.261,4.261,0,0,1,.46-.35,2.951,2.951,0,0,1,.42-.26,8.055,8.055,0,0,1,1.7-.74h-4.11l-.03.03a4.859,4.859,0,0,0-.82.97h.01a3.505,3.505,0,0,0-.61,1.95v10.75a2.675,2.675,0,0,0,.14.89,3.656,3.656,0,0,0,1.25,1.77,8.808,8.808,0,0,0,3.46,1.68,19.467,19.467,0,0,0,9.67,0,8.787,8.787,0,0,0,3.47-1.68,3.436,3.436,0,0,0,1.39-2.66V540.29A3.542,3.542,0,0,0,1123.58,538.34Zm-16.72,5.08a9.589,9.589,0,0,0,2.93,1.5,16.128,16.128,0,0,0,9.4,0,7.2,7.2,0,0,0,.7-.26,3.379,3.379,0,0,0,.44-.18.18.18,0,0,0,.09-.04,1.077,1.077,0,0,0,.22-.1,3.916,3.916,0,0,0,.57-.31,4.241,4.241,0,0,0,.42-.25,4.67,4.67,0,0,0,.51-.36v1.3c0,.42-.31.84-.93,1.28a7.96,7.96,0,0,1-2.66,1.14,16.261,16.261,0,0,1-4.06.48,16.067,16.067,0,0,1-4.05-.48,8.023,8.023,0,0,1-2.67-1.14c-.6-.44-.91-.86-.91-1.28Zm15.54,7.62a1.972,1.972,0,0,1-1.03,1.49,8.7,8.7,0,0,1-2.75,1.21,17.965,17.965,0,0,1-8.25,0,8.787,8.787,0,0,1-2.76-1.2,3.128,3.128,0,0,1-.62-.56,1.1,1.1,0,0,1-.14-.18.671.671,0,0,1-.07-.11,1.84,1.84,0,0,1-.1-.2.748.748,0,0,1-.05-.16.355.355,0,0,1-.02-.1,1.224,1.224,0,0,1-.02-.19v-.85a8.892,8.892,0,0,0,3.24,1.54c.27.08.55.14.83.2h.01a3.4,3.4,0,0,0,.46.09,3.58,3.58,0,0,0,.57.1c.19.03.38.06.58.08h.01c.31.04.63.06.96.08.4.03.82.04,1.24.04s.83-.01,1.24-.04c.23-.01.46-.03.68-.06a.86.86,0,0,0,.23-.02c.01.01.01.01.03,0,.12-.01.24-.02.36-.04.02,0,.04-.01.06-.01.24-.03.47-.07.7-.12a.088.088,0,0,0,.07-.01,3.443,3.443,0,0,0,.44-.09h.01a7.716,7.716,0,0,0,.83-.2c.39-.11.77-.23,1.11-.36.17-.06.32-.12.47-.19.17-.07.34-.15.49-.23a2.683,2.683,0,0,0,.33-.18c.13-.07.26-.15.38-.23a5.94,5.94,0,0,0,.48-.35Zm0-3.15c0,.5-.34.99-1.03,1.48a5.11,5.11,0,0,1-.76.46,2,2,0,0,1-.21.1,9.951,9.951,0,0,1-1.78.63,17.965,17.965,0,0,1-8.25,0,10.079,10.079,0,0,1-1.69-.58c-.18-.08-.35-.17-.51-.26a3.521,3.521,0,0,1-.56-.35,1.968,1.968,0,0,1-1.02-1.48v-.88a8.582,8.582,0,0,0,3.24,1.54,18.658,18.658,0,0,0,9.31,0c.07-.02.14-.04.2-.06a2.132,2.132,0,0,0,.3-.09.751.751,0,0,0,.16-.05c.16-.05.32-.1.47-.16a9.151,9.151,0,0,0,.94-.41l.33-.18a3.2,3.2,0,0,0,.31-.19,5.977,5.977,0,0,0,.55-.4Z" fill="#4a4a4a"/>
    <path id="패스-9" data-name="패스" d="M1122.4,550.19v.85a1.972,1.972,0,0,1-1.03,1.49,8.7,8.7,0,0,1-2.75,1.21,17.965,17.965,0,0,1-8.25,0,8.786,8.786,0,0,1-2.76-1.2,3.125,3.125,0,0,1-.62-.56,2.168,2.168,0,0,1-.14-.18.672.672,0,0,1-.07-.11,1.886,1.886,0,0,1-.1-.2.742.742,0,0,1-.05-.16.355.355,0,0,1-.02-.1,1.224,1.224,0,0,1-.02-.19v-.85a8.891,8.891,0,0,0,3.24,1.54c.27.08.55.14.83.2,0,0,0,.01.01,0a3.41,3.41,0,0,0,.46.09,3.575,3.575,0,0,0,.57.1c.19.03.38.06.58.08h.01c.31.04.63.06.96.08.4.03.82.04,1.24.04s.83-.01,1.24-.04c.23-.01.46-.03.68-.06a.859.859,0,0,0,.23-.02c.01.01.01.01.03,0,.12-.01.24-.02.36-.04.02,0,.04-.01.06-.01.24-.03.47-.07.7-.12a.088.088,0,0,0,.07-.01,3.445,3.445,0,0,0,.44-.09h.01a7.7,7.7,0,0,0,.83-.2c.39-.11.77-.23,1.11-.36.17-.06.32-.12.47-.19.17-.07.34-.15.49-.23a2.682,2.682,0,0,0,.33-.18c.13-.07.26-.15.38-.23A5.9,5.9,0,0,0,1122.4,550.19Z" fill="#fff"/>
    <path id="패스-10" data-name="패스" d="M1122.4,547.01v.88c0,.5-.34.99-1.03,1.48a5.123,5.123,0,0,1-.76.46,2,2,0,0,1-.21.1,9.953,9.953,0,0,1-1.78.63,17.965,17.965,0,0,1-8.25,0,10.08,10.08,0,0,1-1.69-.58c-.18-.08-.35-.17-.51-.26a4.423,4.423,0,0,1-.56-.35,1.968,1.968,0,0,1-1.02-1.48v-.88a8.581,8.581,0,0,0,3.24,1.54,18.657,18.657,0,0,0,9.31,0c.07-.02.14-.04.2-.06a2.13,2.13,0,0,0,.3-.09.747.747,0,0,0,.16-.05c.16-.05.32-.1.47-.16a9.154,9.154,0,0,0,.94-.41l.33-.18a3.2,3.2,0,0,0,.31-.19A5.975,5.975,0,0,0,1122.4,547.01Z" fill="#fff"/>
    <path id="패스-11" data-name="패스" d="M1122.143,543.42v1.3c0,.42-.31.84-.93,1.28a7.962,7.962,0,0,1-2.66,1.14,16.26,16.26,0,0,1-4.06.48,16.066,16.066,0,0,1-4.05-.48,8.024,8.024,0,0,1-2.67-1.14c-.6-.44-.91-.86-.91-1.28v-1.3a9.589,9.589,0,0,0,2.93,1.5,16.128,16.128,0,0,0,9.4,0,7.209,7.209,0,0,0,.7-.26,3.38,3.38,0,0,0,.44-.18.179.179,0,0,0,.09-.04,1.071,1.071,0,0,0,.22-.1,3.917,3.917,0,0,0,.57-.31,2.22,2.22,0,0,0,.42-.25A4.668,4.668,0,0,0,1122.143,543.42Z" fill="#fff"/>
    <path id="패스-12" data-name="패스" d="M1120.753,538.34c-.14-.09-.28-.18-.43-.27.09.05.19.11.27.16A1.538,1.538,0,0,1,1120.753,538.34Z" fill="#15a8b5"/>
    <path id="패스-13" data-name="패스" d="M1122.73,537.34h-4.09c-.03-.01-.05-.02-.08-.03h-.01a.292.292,0,0,0-.09-.02,11.62,11.62,0,0,0-1.81-.4.308.308,0,0,0-.1-.01c-.31-.05-.63-.09-.96-.11h-.04c-.35-.03-.7-.04-1.06-.04a13.891,13.891,0,0,0-4.04.58l-.09.03h-4.11a8.978,8.978,0,0,1,3.44-1.92,15.686,15.686,0,0,1,4.8-.71,16.241,16.241,0,0,1,2.91.25,14.477,14.477,0,0,1,1.89.46c.04.01.08.03.11.04A8.945,8.945,0,0,1,1122.73,537.34Z" fill="#f86363"/>
  </g>
</svg>
