<svg xmlns="http://www.w3.org/2000/svg" width="62" height="62" viewBox="0 0 62 62">
  <g id="naver_img" transform="translate(-570 -406)">
    <circle id="타원" cx="31" cy="31" r="31" transform="translate(570 406)" fill="#39c934"/>
    <rect id="사각형" width="3" height="2" transform="translate(591.841 435.842)" fill="#fff"/>
    <path id="패스" d="M594.672,444.367h2.247v-6.932c0-1.386-.179-2.791-.281-4.123h.1l2.017,2.719,6.817,8.337H608v-14.2h-2.247v7.86c0,1.368.179,2.845.306,4.177h-.128l-1.991-2.719-6.817-9.319h-2.451Z" transform="translate(-0.159 -0.158)" fill="#fff"/>
    <rect id="사각형-2" data-name="사각형" width="3" height="2" transform="translate(607.841 435.842)" fill="#fff"/>
    <g id="사각형-3" data-name="사각형" transform="translate(585 421)" fill="none" stroke="#fff" stroke-width="2">
      <rect width="32.68" height="32" rx="6" stroke="none"/>
      <rect x="1" y="1" width="30.68" height="30" rx="5" fill="none"/>
    </g>
  </g>
</svg>
