<svg xmlns="http://www.w3.org/2000/svg" xmlns:xlink="http://www.w3.org/1999/xlink" width="55" height="53" viewBox="0 0 55 53">
  <defs>
    <clipPath id="clip-path">
      <rect id="사각형" width="55" height="53" transform="translate(1408 947)" fill="#fff" stroke="#767676" stroke-width="1"/>
    </clipPath>
    <clipPath id="clip-path-2">
      <path id="제외" d="M22.5,49h0L0,37.017V12.25L22.5,0,45,12.385V37.017L22.5,49ZM2.045,14.463V35.792l19.433,10.35V24.561Zm40.91.121h0L23.522,24.566V46.14L42.954,35.792V14.584ZM12.164,7.952h0L3.268,12.8l19.236,10,9.161-4.707L12.164,7.952ZM22.494,2.328,14.327,6.774,33.892,16.942l7.837-4.027Z" fill="#dcdcdc"/>
    </clipPath>
  </defs>
  <g id="icon_상품하자" transform="translate(-1408 -947)" clip-path="url(#clip-path)">
    <g id="icon" transform="translate(1408 947)">
      <g id="그룹">
        <path id="제외-2" data-name="제외" d="M22.5,49h0L0,37.017V12.25L22.5,0,45,12.385V37.017L22.5,49ZM2.045,14.463V35.792l19.433,10.35V24.561Zm40.91.121h0L23.522,24.566V46.14L42.954,35.792V14.584ZM12.164,7.952h0L3.268,12.8l19.236,10,9.161-4.707L12.164,7.952ZM22.494,2.328,14.327,6.774,33.892,16.942l7.837-4.027Z" fill="#dcdcdc"/>
      </g>
      <circle id="타원" cx="11" cy="11" r="11" transform="translate(32 30.5)" fill="#fff"/>
      <path id="패스" d="M208.924,394.741l-3.672-3.625,3.621-3.657-1.633-1.633-3.626,3.673-3.67-3.623-1.619,1.619L202,391.134l-3.624,3.671L200,396.424l3.637-3.673,3.659,3.623Zm-5.3-15.616a12,12,0,1,0,12,12A12,12,0,0,0,203.625,379.125Zm0,2a10,10,0,1,1-10,10A10.012,10.012,0,0,1,203.625,381.125Z" transform="translate(-160.625 -350.125)" fill="#dcdcdc"/>
    </g>
  </g>
</svg>
