<svg xmlns="http://www.w3.org/2000/svg" width="38" height="35" viewBox="0 0 38 35">
  <g id="icon_1:1_고객상담" data-name="icon_1:1 고객상담" transform="translate(-0.001)">
    <path id="패스" d="M304.6,553.7c0,.22-.01.43-.02.64v.16h-2.02a7.144,7.144,0,0,0,.04-.8,11.817,11.817,0,0,0-4.81-9.19,17.852,17.852,0,0,0-5.43-2.93,21.131,21.131,0,0,0-6.76-1.08v-2C296.09,538.5,304.6,545.3,304.6,553.7Z" transform="translate(-266.6 -538.5)" fill="#f86363"/>
    <path id="패스-2" data-name="패스" d="M285.6,538.5v2a21.131,21.131,0,0,1,6.76,1.08,17.852,17.852,0,0,1,5.43,2.93,11.817,11.817,0,0,1,4.81,9.19,7.144,7.144,0,0,1-.04.8h2.01a.917.917,0,0,0,.01-.16c.01-.21.02-.42.02-.64C304.6,545.3,296.09,538.5,285.6,538.5Z" transform="translate(-266.6 -538.5)" fill="none"/>
    <path id="패스-3" data-name="패스" d="M302.6,554.477a11.442,11.442,0,0,1-4.742,8.148,20.108,20.108,0,0,1-12.226,3.835H279.9l-.56.469a26.693,26.693,0,0,1-5.473,3.625,10.906,10.906,0,0,0,.921-2.3,12.937,12.937,0,0,0,.46-2.926v-.03l.08-1.128-.94-.639a14.3,14.3,0,0,1-4.242-4.444,10.5,10.5,0,0,1-1.521-5.412,11.775,11.775,0,0,1,4.823-9.177,17.733,17.733,0,0,1,5.433-2.916,20.85,20.85,0,0,1,6.754-1.088v-2c-10.5,0-19.01,6.79-19.01,15.178,0,4.6,2.581,8.718,6.633,11.494-.02.27-.04,3.914-2.551,6.231-1.151,1.118-1.241,1.318-.981,1.777.13.21.28.32.72.32a7.751,7.751,0,0,0,1.181-.13c1.891-.15,5.633-2.057,9-4.913h5c10.085,0,18.32-5.9,18.97-13.78v-.05a.769.769,0,0,1,.02-.15Z" transform="translate(-266.619 -538.5)" fill="#4a4a4a"/>
    <circle id="타원" cx="2" cy="2" r="2" transform="translate(9.014 13.975)" fill="#4a4a4a"/>
    <circle id="타원-2" data-name="타원" cx="2" cy="2" r="2" transform="translate(17.014 13.975)" fill="#4a4a4a"/>
    <circle id="타원-3" data-name="타원" cx="2" cy="2" r="2" transform="translate(25.014 13.975)" fill="#4a4a4a"/>
  </g>
</svg>
