<svg xmlns="http://www.w3.org/2000/svg" xmlns:xlink="http://www.w3.org/1999/xlink" width="49" height="53" viewBox="0 0 49 53">
  <defs>
    <clipPath id="clip-path">
      <rect id="사각형" width="49" height="53" transform="translate(673 677)" fill="#fff"/>
    </clipPath>
  </defs>
  <g id="icon_단순변심" transform="translate(-673 -677)" clip-path="url(#clip-path)">
    <g id="icon" transform="translate(674 677)">
      <g id="사람" transform="translate(-1)">
        <g id="빼기" transform="translate(-6590 6669)" fill="#fff">
          <path d="M 6627.00048828125 -6624.00048828125 L 6591.00048828125 -6624.00048828125 C 6591.00048828125 -6628.2529296875 6592.85888671875 -6632.25732421875 6596.23291015625 -6635.2763671875 C 6599.6376953125 -6638.32275390625 6604.171875 -6640.00048828125 6609.00048828125 -6640.00048828125 C 6613.8291015625 -6640.00048828125 6618.36328125 -6638.32275390625 6621.76806640625 -6635.2763671875 C 6625.14208984375 -6632.25732421875 6627.00048828125 -6628.2529296875 6627.00048828125 -6624.00048828125 Z" stroke="none"/>
          <path d="M 6625.96337890625 -6625.00048828125 C 6625.6962890625 -6628.59033203125 6623.99365234375 -6631.943359375 6621.1015625 -6634.53076171875 C 6617.8798828125 -6637.4130859375 6613.58251953125 -6639.00048828125 6609.00048828125 -6639.00048828125 C 6604.41845703125 -6639.00048828125 6600.12109375 -6637.4130859375 6596.8994140625 -6634.53076171875 C 6594.00732421875 -6631.943359375 6592.3046875 -6628.59033203125 6592.03759765625 -6625.00048828125 L 6625.96337890625 -6625.00048828125 M 6627.96826171875 -6623.00048828125 L 6627.96728515625 -6623.00048828125 L 6627.96826171875 -6623.00048828125 Z M 6627.96826171875 -6623.00048828125 L 6590.03271484375 -6623.00048828125 C 6590.0107421875 -6623.33349609375 6590.00048828125 -6623.669921875 6590.00048828125 -6624.00048828125 C 6590.00048828125 -6628.54150390625 6591.97705078125 -6632.810546875 6595.56591796875 -6636.021484375 C 6599.15478515625 -6639.232421875 6603.92578125 -6641.00048828125 6609.00048828125 -6641.00048828125 C 6614.0751953125 -6641.00048828125 6618.84619140625 -6639.232421875 6622.43505859375 -6636.021484375 C 6626.02392578125 -6632.810546875 6628.00048828125 -6628.54150390625 6628.00048828125 -6624.00048828125 C 6628.00048828125 -6623.6650390625 6627.98974609375 -6623.3291015625 6627.96826171875 -6623.00146484375 L 6627.96826171875 -6623.00048828125 Z" stroke="none" fill="#dcdcdc"/>
        </g>
        <g id="빼기-2" data-name="빼기" transform="translate(-6590 6669)" fill="#fff">
          <path d="M 6627.00048828125 -6624.00048828125 L 6591.00048828125 -6624.00048828125 C 6591.00048828125 -6628.2529296875 6592.85888671875 -6632.25732421875 6596.23291015625 -6635.2763671875 C 6599.6376953125 -6638.32275390625 6604.171875 -6640.00048828125 6609.00048828125 -6640.00048828125 C 6613.8291015625 -6640.00048828125 6618.36328125 -6638.32275390625 6621.76806640625 -6635.2763671875 C 6625.14208984375 -6632.25732421875 6627.00048828125 -6628.2529296875 6627.00048828125 -6624.00048828125 Z" stroke="none"/>
          <path d="M 6625.96337890625 -6625.00048828125 C 6625.6962890625 -6628.59033203125 6623.99365234375 -6631.943359375 6621.1015625 -6634.53076171875 C 6617.8798828125 -6637.4130859375 6613.58251953125 -6639.00048828125 6609.00048828125 -6639.00048828125 C 6604.41845703125 -6639.00048828125 6600.12109375 -6637.4130859375 6596.8994140625 -6634.53076171875 C 6594.00732421875 -6631.943359375 6592.3046875 -6628.59033203125 6592.03759765625 -6625.00048828125 L 6625.96337890625 -6625.00048828125 M 6627.96826171875 -6623.00048828125 L 6627.96728515625 -6623.00048828125 L 6627.96826171875 -6623.00048828125 Z M 6627.96826171875 -6623.00048828125 L 6590.03271484375 -6623.00048828125 C 6590.0107421875 -6623.33349609375 6590.00048828125 -6623.669921875 6590.00048828125 -6624.00048828125 C 6590.00048828125 -6628.54150390625 6591.97705078125 -6632.810546875 6595.56591796875 -6636.021484375 C 6599.15478515625 -6639.232421875 6603.92578125 -6641.00048828125 6609.00048828125 -6641.00048828125 C 6614.0751953125 -6641.00048828125 6618.84619140625 -6639.232421875 6622.43505859375 -6636.021484375 C 6626.02392578125 -6632.810546875 6628.00048828125 -6628.54150390625 6628.00048828125 -6624.00048828125 C 6628.00048828125 -6623.6650390625 6627.98974609375 -6623.3291015625 6627.96826171875 -6623.00146484375 L 6627.96826171875 -6623.00048828125 Z" stroke="none" fill="#dcdcdc"/>
        </g>
        <line id="몸" x1="38" transform="translate(0 45)" fill="#fff" stroke="#dcdcdc" stroke-width="2"/>
        <g id="목" transform="translate(-167.654 -179.514)" fill="#fff">
          <path d="M 187.1218414306641 215.84326171875 L 182.765625 209.9093017578125 L 184.5489196777344 204.5229187011719 L 189.8854064941406 204.5855560302734 L 191.5479583740234 210.0171661376953 L 187.1218414306641 215.84326171875 Z" stroke="none"/>
          <path d="M 185.2684020996094 205.5314331054688 L 183.8771820068359 209.7335968017578 L 187.1355743408203 214.172119140625 L 190.4418334960938 209.8200836181641 L 189.1430511474609 205.5769195556641 L 185.2684020996094 205.5314331054688 M 183.8294372558594 203.514404296875 L 190.6277618408203 203.5942077636719 L 192.6540832519531 210.2142486572266 L 187.1081085205078 217.514404296875 L 181.6540832519531 210.0850067138672 L 183.8294372558594 203.514404296875 Z" stroke="none" fill="#dcdcdc"/>
        </g>
        <g id="얼굴" transform="translate(6)" fill="#fff" stroke="#dcdcdc" stroke-width="2">
          <ellipse cx="13" cy="15" rx="13" ry="15" stroke="none"/>
          <ellipse cx="13" cy="15" rx="12" ry="14" fill="none"/>
        </g>
        <path id="머리" d="M175.179,191.243s.483-.265,7.129-5.228c2.538,4.135,6.05,5.879,11.406,2.376,1.081,1.964,2.059,4.311,5.228,4.753" transform="translate(-168 -179)" fill="#fff" stroke="#dcdcdc" stroke-width="1.75"/>
        <g id="눈" transform="translate(14 17)" fill="#fff" stroke="#dcdcdc" stroke-width="2">
          <circle cx="1.5" cy="1.5" r="1.5" stroke="none"/>
          <circle cx="1.5" cy="1.5" r="0.5" fill="none"/>
        </g>
        <g id="눈-2" data-name="눈" transform="translate(21 17)" fill="#fff" stroke="#dcdcdc" stroke-width="2">
          <circle cx="1.5" cy="1.5" r="1.5" stroke="none"/>
          <circle cx="1.5" cy="1.5" r="0.5" fill="none"/>
        </g>
      </g>
      <circle id="타원" cx="11" cy="11" r="11" transform="translate(25 30)" fill="#fff"/>
      <path id="패스" d="M208.924,222.241l-3.671-3.625,3.621-3.657-1.633-1.633L203.615,217l-3.67-3.623L198.326,215,202,218.634l-3.624,3.671L200,223.924l3.637-3.673,3.659,3.623Zm-5.3-15.616a12,12,0,1,0,12,12A12,12,0,0,0,203.625,206.625Zm0,2a10,10,0,1,1-10,10A10.011,10.011,0,0,1,203.625,208.625Z" transform="translate(-167.625 -177.625)" fill="#dcdcdc"/>
    </g>
  </g>
</svg>
