<svg xmlns="http://www.w3.org/2000/svg" width="16.632" height="14" viewBox="0 0 16.632 14">
  <path id="_0xff14" data-name="0xff14" d="M16.632-4.578A3.032,3.032,0,0,0,16.24-6.1a3.138,3.138,0,0,0-1.064-1.12,3.01,3.01,0,0,0-1.484-.469,5.809,5.809,0,0,0-1.127-2.177A5.637,5.637,0,0,0,10.7-11.354a5.42,5.42,0,0,0-2.38-.546,5.42,5.42,0,0,0-2.38.546A5.637,5.637,0,0,0,4.067-9.863,5.809,5.809,0,0,0,2.94-7.686a3.01,3.01,0,0,0-1.484.469A3.138,3.138,0,0,0,.392-6.1,3.046,3.046,0,0,0,0-4.571,3,3,0,0,0,.42-3.024,3.145,3.145,0,0,0,1.554-1.89a3.011,3.011,0,0,0,1.554.42h.014a.527.527,0,0,0,.392-.175.577.577,0,0,0,.168-.413V-7.014a4.258,4.258,0,0,1,.882-1.9A4.464,4.464,0,0,1,6.2-10.178a5.024,5.024,0,0,1,2.114-.448,4.977,4.977,0,0,1,2.107.448,4.51,4.51,0,0,1,1.638,1.267,4.373,4.373,0,0,1,.889,1.9v4.97a.521.521,0,0,0,.112.336,4.2,4.2,0,0,1-1.078,1.33A4.016,4.016,0,0,1,9.758.476,1.1,1.1,0,0,0,9.331-.1a1.191,1.191,0,0,0-.707-.224A1.15,1.15,0,0,0,7.77.035a1.177,1.177,0,0,0-.35.854,1.177,1.177,0,0,0,.35.854,1.15,1.15,0,0,0,.854.357,1.164,1.164,0,0,0,.721-.238,1.17,1.17,0,0,0,.427-.616A4.914,4.914,0,0,0,11.816.658,4.486,4.486,0,0,0,13.062-.35a4.8,4.8,0,0,0,.756-1.134,2.973,2.973,0,0,0,1.414-.5,3.183,3.183,0,0,0,1.022-1.12A3,3,0,0,0,16.632-4.578Z" transform="translate(0 11.9)" fill="#101010"/>
</svg>
