<svg xmlns="http://www.w3.org/2000/svg" width="9.816" height="11.994" viewBox="0 0 9.816 11.994">
  <path id="_0xff96" data-name="0xff96" d="M7.632-2.568a1.427,1.427,0,0,0-.48.06L6-4.476V-5.568L7.584-8.232A1.071,1.071,0,0,0,7.746-8.7a.937.937,0,0,0-.054-.468l-.384-.984q-.18-.084-.276,0L4.908-6.432l-2.184-3.72a.138.138,0,0,0-.1-.036.185.185,0,0,0-.114.036l-.384.984a.877.877,0,0,0-.048.462,1.351,1.351,0,0,0,.156.474L3.816-5.508v.984L2.676-2.508a1.541,1.541,0,0,0-.492-.06,2.13,2.13,0,0,0-1.092.294,2.181,2.181,0,0,0-.8.8A2.13,2.13,0,0,0,0-.384,2.13,2.13,0,0,0,.294.708a2.181,2.181,0,0,0,.8.8A2.13,2.13,0,0,0,2.184,1.8a2.13,2.13,0,0,0,1.092-.294,2.181,2.181,0,0,0,.8-.8A2.13,2.13,0,0,0,4.368-.384a2.017,2.017,0,0,0-.144-.756,2.269,2.269,0,0,0-.408-.66l.768-1.308h.6L5.952-1.8a2.552,2.552,0,0,0-.348.648,2.174,2.174,0,0,0-.144.768A2.13,2.13,0,0,0,5.754.708a2.2,2.2,0,0,0,.792.8A2.1,2.1,0,0,0,7.632,1.8a2.13,2.13,0,0,0,1.092-.294,2.181,2.181,0,0,0,.8-.8A2.13,2.13,0,0,0,9.816-.384a2.13,2.13,0,0,0-.294-1.092,2.181,2.181,0,0,0-.8-.8A2.13,2.13,0,0,0,7.632-2.568Zm-3.264-2.4a.528.528,0,0,1,.15-.39.528.528,0,0,1,.39-.15.548.548,0,0,1,.4.15.524.524,0,0,1,.156.4.524.524,0,0,1-.156.4.548.548,0,0,1-.4.15.528.528,0,0,1-.39-.15A.543.543,0,0,1,4.368-4.968ZM2.184.708A1.05,1.05,0,0,1,1.416.384,1.056,1.056,0,0,1,1.092-.39a1.037,1.037,0,0,1,.324-.768,1.066,1.066,0,0,1,.774-.318,1.046,1.046,0,0,1,.768.318,1.046,1.046,0,0,1,.318.768,1.066,1.066,0,0,1-.318.774A1.044,1.044,0,0,1,2.184.708Zm5.448,0A1.039,1.039,0,0,1,6.87.39a1.053,1.053,0,0,1-.318-.774,1.053,1.053,0,0,1,.318-.774,1.046,1.046,0,0,1,.768-.318,1.046,1.046,0,0,1,.768.318,1.046,1.046,0,0,1,.318.768,1.066,1.066,0,0,1-.318.774A1.044,1.044,0,0,1,7.632.708Z" transform="translate(0 10.194)"/>
</svg>
