<svg xmlns="http://www.w3.org/2000/svg" width="12" height="12" viewBox="0 0 12 12">
  <path id="_0xf24d" data-name="0xf24d" d="M11.148-.091V-7.375a.193.193,0,0,0-.072-.156.225.225,0,0,0-.144-.06H3.648a.211.211,0,0,0-.156.06.211.211,0,0,0-.06.156V-.091a.2.2,0,0,0,.06.144.259.259,0,0,0,.156.072h7.284a.182.182,0,0,0,.144-.072A.306.306,0,0,0,11.148-.091ZM12-7.375V-.091a1.03,1.03,0,0,1-.312.756,1.03,1.03,0,0,1-.756.312H3.648A1.03,1.03,0,0,1,2.892.665a1.073,1.073,0,0,1-.324-.756V-7.375a1.05,1.05,0,0,1,.324-.768.994.994,0,0,1,.756-.312h7.284a1.03,1.03,0,0,1,.756.312A1.044,1.044,0,0,1,12-7.375ZM9.432-9.955v1.08H8.568v-1.08a.2.2,0,0,0-.06-.144.259.259,0,0,0-.156-.072H1.068a.182.182,0,0,0-.144.072.306.306,0,0,0-.072.144v7.284a.193.193,0,0,0,.072.156.225.225,0,0,0,.144.06h1.08v.864H1.068a1.036,1.036,0,0,1-.756-.324A.994.994,0,0,1,0-2.671V-9.955a1.03,1.03,0,0,1,.312-.756,1.03,1.03,0,0,1,.756-.312H8.352a1.07,1.07,0,0,1,.768.312A.972.972,0,0,1,9.432-9.955Z" transform="translate(0 11.022)"/>
</svg>
