<svg xmlns="http://www.w3.org/2000/svg" width="18" height="10.764" viewBox="0 0 18 10.764">
  <path id="_0xed25" data-name="0xed25" d="M-18-6.3a3.76,3.76,0,0,1,1.152-1.98A12.1,12.1,0,0,1-13.68-10.6,11,11,0,0,1-9-11.682,11.233,11.233,0,0,1-4.32-10.6,11.885,11.885,0,0,1-1.152-8.28,3.769,3.769,0,0,1,0-6.3,3.68,3.68,0,0,1-1.152-4.338,12.1,12.1,0,0,1-4.32-2.016,10.855,10.855,0,0,1-9-.918a11.069,11.069,0,0,1-4.68-1.1,11.885,11.885,0,0,1-3.168-2.322A3.7,3.7,0,0,1-18-6.3Zm4.752,0a3.781,3.781,0,0,0,1.242,2.862A4.225,4.225,0,0,0-9-2.268a4.225,4.225,0,0,0,3.006-1.17A3.781,3.781,0,0,0-4.752-6.3,3.781,3.781,0,0,0-5.994-9.162,4.293,4.293,0,0,0-9-10.35a4.093,4.093,0,0,0-3.006,1.188A3.855,3.855,0,0,0-13.248-6.3Zm1.548-.018a2.443,2.443,0,0,1,.792-1.836A2.664,2.664,0,0,1-9-8.91a2.664,2.664,0,0,1,1.908.756A2.443,2.443,0,0,1-6.3-6.318a2.443,2.443,0,0,1-.792,1.836A2.732,2.732,0,0,1-9-3.708a2.539,2.539,0,0,1-1.908-.774A2.52,2.52,0,0,1-11.7-6.318Z" transform="translate(18 11.682)"/>
</svg>
