<svg xmlns="http://www.w3.org/2000/svg" width="20" height="20" viewBox="0 0 20 20">
  <path id="_0xee3f" data-name="0xee3f" d="M20-6.98a9.8,9.8,0,0,1-1.34,5.02,9.929,9.929,0,0,1-3.64,3.64A9.8,9.8,0,0,1,10,3.02,9.8,9.8,0,0,1,4.98,1.68,9.929,9.929,0,0,1,1.34-1.96,9.8,9.8,0,0,1,0-6.98,9.8,9.8,0,0,1,1.34-12a9.929,9.929,0,0,1,3.64-3.64A9.8,9.8,0,0,1,10-16.98a9.8,9.8,0,0,1,5.02,1.34A9.929,9.929,0,0,1,18.66-12,9.8,9.8,0,0,1,20-6.98ZM11.2-5.82h4.7V-8.18H11.2v-4.7H8.84v4.7H4.12v2.36H8.84V-1.1H11.2Z" transform="translate(0 16.98)"/>
</svg>
