<svg xmlns="http://www.w3.org/2000/svg" width="21.68" height="20" viewBox="0 0 21.68 20">
  <path id="_0xff21" data-name="0xff21" d="M0-17a13.138,13.138,0,0,0-4.22.68A11.169,11.169,0,0,0-7.66-14.5a8.6,8.6,0,0,0-2.32,2.72,6.848,6.848,0,0,0-.86,3.32,7.033,7.033,0,0,0,1.4,4.2A9.461,9.461,0,0,0-5.76-1.22L-6.04-.2q-.8,2.74-.82,2.92v.1a.187.187,0,0,0,.1.14A.4.4,0,0,0-6.58,3l.08-.02A37.521,37.521,0,0,0-2.36.26l.44-.3A15.465,15.465,0,0,0,0,.08,13.138,13.138,0,0,0,4.22-.6,11.169,11.169,0,0,0,7.66-2.42,8.6,8.6,0,0,0,9.98-5.14a6.848,6.848,0,0,0,.86-3.32,6.848,6.848,0,0,0-.86-3.32A8.6,8.6,0,0,0,7.66-14.5a11.169,11.169,0,0,0-3.44-1.82A13.138,13.138,0,0,0,0-17ZM-5.36-6.08a.566.566,0,0,1-.18.43.63.63,0,0,1-.45.17.63.63,0,0,1-.45-.17.566.566,0,0,1-.18-.43v-3.7H-7.6a.531.531,0,0,1-.35-.04.724.724,0,0,1-.28-.23.56.56,0,0,1-.11-.34.56.56,0,0,1,.11-.34.724.724,0,0,1,.28-.23A.531.531,0,0,1-7.6-11h3.2a.531.531,0,0,1,.35.04.724.724,0,0,1,.28.23.56.56,0,0,1,.11.34.56.56,0,0,1-.11.34.724.724,0,0,1-.28.23.531.531,0,0,1-.35.04h-.96Zm5.24.52a1.07,1.07,0,0,1-.4.08.754.754,0,0,1-.34-.07.33.33,0,0,1-.18-.21l-.3-.8h-1.9l-.32.8a.33.33,0,0,1-.18.21.754.754,0,0,1-.34.07,1.07,1.07,0,0,1-.4-.08q-.38-.18-.14-.9l1.5-3.94a.89.89,0,0,1,.31-.42A.822.822,0,0,1-2.29-11a.822.822,0,0,1,.52.18.89.89,0,0,1,.31.42L.04-6.46Q.26-5.72-.12-5.56Zm3.16,0h-2a.583.583,0,0,1-.43-.17.559.559,0,0,1-.17-.41v-4.24a.583.583,0,0,1,.19-.44A.632.632,0,0,1,1.08-11a.632.632,0,0,1,.45.18.583.583,0,0,1,.19.44v3.66H3.04a.583.583,0,0,1,.43.17.559.559,0,0,1,.17.41.559.559,0,0,1-.17.41A.583.583,0,0,1,3.04-5.56Zm4.9-.48a.6.6,0,0,1-.14.34.6.6,0,0,1-.31.19.635.635,0,0,1-.37-.01.61.61,0,0,1-.3-.22L5.36-7.68l-.22.2V-6.1a.6.6,0,0,1-.18.44.6.6,0,0,1-.44.18.632.632,0,0,1-.45-.18.583.583,0,0,1-.19-.44v-4.28a.632.632,0,0,1,.18-.45.594.594,0,0,1,.45-.19.594.594,0,0,1,.45.19.632.632,0,0,1,.18.45v1.34l1.74-1.74a.463.463,0,0,1,.34-.14.583.583,0,0,1,.43.17.67.67,0,0,1,.2.39.459.459,0,0,1-.15.4L6.28-8.54,7.82-6.5A.568.568,0,0,1,7.94-6.04ZM-2.3-9.46l.62,1.78H-2.92Z" transform="translate(10.84 17)" fill="#101010"/>
</svg>
