<svg xmlns="http://www.w3.org/2000/svg" width="20" height="14.73" viewBox="0 0 20 14.73">
  <path id="_0xff94" data-name="0xff94" d="M-15.109-14.28v-4.581a1.309,1.309,0,0,0-.389-.951,1.272,1.272,0,0,0-.943-.4H-30.813a1.309,1.309,0,0,0-.951.389,1.29,1.29,0,0,0-.4.958v9.626a1.272,1.272,0,0,0,.4.943,1.309,1.309,0,0,0,.951.389h10.479a3.438,3.438,0,0,0,1.452,1.826,4.177,4.177,0,0,0,2.26.6,4.2,4.2,0,0,0,2.081-.509l-.314-.778a3.4,3.4,0,0,1-.786.314,3.282,3.282,0,0,1-.861.12,3.528,3.528,0,0,1-1.572-.344,2.753,2.753,0,0,1-1.138-1.048,3.378,3.378,0,0,1-.434-1.751,4.261,4.261,0,0,1,.539-2.126,3.646,3.646,0,0,1,1.34-1.385,3.427,3.427,0,0,1,1.774-.5,3.259,3.259,0,0,1,1.677.4,2.436,2.436,0,0,1,.958,1.048,3.44,3.44,0,0,1,.3,1.467A2.8,2.8,0,0,1-13.253-9.5a1.673,1.673,0,0,1-.487.681,1,1,0,0,1-.636.247.508.508,0,0,1-.509-.247,1.189,1.189,0,0,1,0-.756l.464-2.29h-.853l-.15.434h-.03a.845.845,0,0,0-.808-.524,1.765,1.765,0,0,0-1.093.389,2.462,2.462,0,0,0-.756.958,2.9,2.9,0,0,0-.277,1.228,1.676,1.676,0,0,0,.382,1.16,1.273,1.273,0,0,0,1,.427,1.407,1.407,0,0,0,.689-.2,1.935,1.935,0,0,0,.6-.516h.015a.884.884,0,0,0,.4.6,1.41,1.41,0,0,0,.786.21,2.024,2.024,0,0,0,1.093-.329,2.446,2.446,0,0,0,.9-.958,3.39,3.39,0,0,0,.374-1.617,4.1,4.1,0,0,0-.359-1.737,3.31,3.31,0,0,0-1.025-1.28A3.518,3.518,0,0,0-15.109-14.28ZM-30.6-19.37a.115.115,0,0,0,.045-.015l.269-.015h13.713l-6.482,5.135a1.447,1.447,0,0,1-.763.329,1.258,1.258,0,0,1-.644-.3l-6.153-5.12A.013.013,0,0,0-30.6-19.37Zm14.671,5.03a4.671,4.671,0,0,0-2.328.636A4.512,4.512,0,0,0-19.944-12a5.107,5.107,0,0,0-.644,2.56,6.432,6.432,0,0,0,.06.749H-30.5a.782.782,0,0,1-.584-.247.82.82,0,0,1-.24-.591v-9.042a1.261,1.261,0,0,1,.03-.225l6.3,5.24a1.953,1.953,0,0,0,1.19.479,2.19,2.19,0,0,0,1.265-.509l6.572-5.195.015.135.015.03Zm-.015,5.135q-.419.539-.778.539a.57.57,0,0,1-.457-.2.889.889,0,0,1-.172-.591,2.057,2.057,0,0,1,.142-.734,1.568,1.568,0,0,1,.382-.6.846.846,0,0,1,.614-.269.6.6,0,0,1,.539.359Z" transform="translate(32.16 20.208)" fill="#101010"/>
</svg>
