<svg xmlns="http://www.w3.org/2000/svg" width="18" height="15.1" viewBox="0 0 18 15.1">
  <path id="_0xed26" data-name="0xed26" d="M-18-5.868a3.76,3.76,0,0,1,1.152-1.98,11.769,11.769,0,0,1,3.168-2.3A10.855,10.855,0,0,1-9-11.25q.522,0,1.062.036l1.332-2.322a.619.619,0,0,1,.414-.324.32.32,0,0,1,.144.036l.918.576q.306.126.036.594L-6.12-10.836l-.846,1.422-.738,1.3-2.592,4.5-.738,1.3-.846,1.44-1.026,1.8q-.27.45-.558.27L-14.418.63q-.27-.144,0-.594l.882-1.548-.144-.072a11.885,11.885,0,0,1-3.168-2.322A3.7,3.7,0,0,1-18-5.868Zm4.752,0A3.742,3.742,0,0,0-12.4-3.474l.864-1.512a2.493,2.493,0,0,1-.162-.882,2.459,2.459,0,0,1,.612-1.638,2.616,2.616,0,0,1,1.53-.9l.882-1.512H-9A4.19,4.19,0,0,0-12.006-8.73,3.818,3.818,0,0,0-13.248-5.868Zm3.186,5.31.738-1.278H-9a4.225,4.225,0,0,0,3.006-1.17A3.781,3.781,0,0,0-4.752-5.868,3.742,3.742,0,0,0-5.6-8.262l1.134-1.962a.282.282,0,0,0,.072.054.16.16,0,0,0,.072.018,11.58,11.58,0,0,1,3.168,2.3A3.769,3.769,0,0,1,0-5.868,3.68,3.68,0,0,1-1.152-3.906,12.1,12.1,0,0,1-4.32-1.584,10.855,10.855,0,0,1-9-.486,9.257,9.257,0,0,1-10.062-.558Zm1.62-2.79,1.98-3.4a2.594,2.594,0,0,1,.162.882,2.392,2.392,0,0,1-.612,1.62A2.746,2.746,0,0,1-8.442-3.348Z" transform="translate(18 13.86)"/>
</svg>
