<svg xmlns="http://www.w3.org/2000/svg" width="16.309" height="17.977" viewBox="0 0 16.309 17.977">
  <path id="_0xff06" data-name="0xff06" d="M5.445-2.736A2.71,2.71,0,0,0,4.3-2.484a2.622,2.622,0,0,0-.927.7L-2.853-5.49a2.627,2.627,0,0,0,.126-.8,2.836,2.836,0,0,0-.108-.783l6.3-3.618A2.586,2.586,0,0,0,5.1-9.855a2.68,2.68,0,0,0,1.8-.405,2.6,2.6,0,0,0,1.125-1.449,2.683,2.683,0,0,0-.054-1.836,2.626,2.626,0,0,0-1.206-1.386,2.631,2.631,0,0,0-1.818-.3,2.626,2.626,0,0,0-1.584.927,2.693,2.693,0,0,0-.639,1.719,2.8,2.8,0,0,0,.108.774l-6.3,3.618a2.709,2.709,0,0,0-1.386-.774,2.652,2.652,0,0,0-1.584.126,2.637,2.637,0,0,0-1.242,1,2.661,2.661,0,0,0-.468,1.521A2.7,2.7,0,0,0-7.686-4.8,2.646,2.646,0,0,0-6.462-3.789a2.648,2.648,0,0,0,1.584.144,2.656,2.656,0,0,0,1.4-.765L2.8-.684a3.061,3.061,0,0,0-.072.666A2.612,2.612,0,0,0,3.1,1.341a2.8,2.8,0,0,0,.99.99,2.687,2.687,0,0,0,2.718,0,2.8,2.8,0,0,0,.99-.99A2.612,2.612,0,0,0,8.163-.018a2.612,2.612,0,0,0-.369-1.359,2.8,2.8,0,0,0-.99-.99A2.612,2.612,0,0,0,5.445-2.736Z" transform="translate(8.145 15.277)"/>
</svg>
