<svg xmlns="http://www.w3.org/2000/svg" width="16" height="12.8" viewBox="0 0 16 12.8">
  <path id="_0xe8d2" data-name="0xe8d2" d="M8-7.2a2.3,2.3,0,0,1,1.712.7A2.339,2.339,0,0,1,10.4-4.8a2.312,2.312,0,0,1-.7,1.7A2.312,2.312,0,0,1,8-2.4a2.312,2.312,0,0,1-1.7-.7,2.312,2.312,0,0,1-.7-1.7,2.312,2.312,0,0,1,.7-1.7A2.312,2.312,0,0,1,8-7.2Zm6.4-2.4a1.545,1.545,0,0,1,1.136.464A1.545,1.545,0,0,1,16-8V-.8A1.561,1.561,0,0,1,15.536.32,1.519,1.519,0,0,1,14.4.8H1.6A1.535,1.535,0,0,1,.48.32,1.535,1.535,0,0,1,0-.8V-8A1.519,1.519,0,0,1,.48-9.136,1.561,1.561,0,0,1,1.6-9.6H3.52a.661.661,0,0,0,.64-.48l.48-1.472A.623.623,0,0,1,5.28-12h5.44a.623.623,0,0,1,.64.448l.48,1.472a.661.661,0,0,0,.64.48ZM8-.8a3.857,3.857,0,0,0,2.832-1.168A3.857,3.857,0,0,0,12-4.8a3.857,3.857,0,0,0-1.168-2.832A3.857,3.857,0,0,0,8-8.8,3.857,3.857,0,0,0,5.168-7.632,3.857,3.857,0,0,0,4-4.8,3.857,3.857,0,0,0,5.168-1.968,3.857,3.857,0,0,0,8-.8Zm5.856-6.08a.5.5,0,0,0,.384-.176.578.578,0,0,0,.16-.4.524.524,0,0,0-.16-.384A.524.524,0,0,0,13.856-8q-.576,0-.576.544a.536.536,0,0,0,.176.416A.578.578,0,0,0,13.856-6.88Z" transform="translate(0 12)"/>
</svg>
