<svg xmlns="http://www.w3.org/2000/svg" width="14.866" height="13.728" viewBox="0 0 14.866 13.728">
  <path id="_0xe855" data-name="0xe855" d="M-11.424.112h8V-2.176h-8Zm0-5.712h8V-9.024H-4.848a.831.831,0,0,1-.608-.256.831.831,0,0,1-.256-.608v-1.424h-5.712Zm10.288.576a.543.543,0,0,0-.16-.4A.621.621,0,0,0-1.712-5.6a.435.435,0,0,0-.4.176.758.758,0,0,0-.16.4.525.525,0,0,0,.16.4.438.438,0,0,0,.4.16,1,1,0,0,0,.416-.16A.387.387,0,0,0-1.136-5.024Zm1.152,0v3.712a.242.242,0,0,1-.1.192.408.408,0,0,1-.192.1h-2V.4a.831.831,0,0,1-.256.608.831.831,0,0,1-.608.256h-8.576a.779.779,0,0,1-.592-.256A.923.923,0,0,1-12.56.4V-1.024h-2a.29.29,0,0,1-.208-.1.22.22,0,0,1-.08-.192V-5.024a1.661,1.661,0,0,1,.512-1.216,1.588,1.588,0,0,1,1.2-.5h.576V-11.6a.831.831,0,0,1,.256-.608.813.813,0,0,1,.592-.256h6a1.984,1.984,0,0,1,.8.192,2.43,2.43,0,0,1,.672.416l1.36,1.36a2.461,2.461,0,0,1,.432.688,1.754,1.754,0,0,1,.176.784v2.288h.56A1.653,1.653,0,0,1-.5-6.24,1.71,1.71,0,0,1,.016-5.024Z" transform="translate(14.85 12.464)"/>
</svg>
