<svg xmlns="http://www.w3.org/2000/svg" width="12.468" height="11.916" viewBox="0 0 12.468 11.916">
  <path id="_0xff08" data-name="0xff08" d="M5.55-2.808a.671.671,0,0,0-.492.2.671.671,0,0,0-.2.492V.42h-9.7V-2.112a.671.671,0,0,0-.2-.492.671.671,0,0,0-.492-.2.671.671,0,0,0-.492.2.671.671,0,0,0-.2.492V1.116a.671.671,0,0,0,.2.492.671.671,0,0,0,.492.2H5.55a.651.651,0,0,0,.486-.2.681.681,0,0,0,.2-.492V-2.112a.681.681,0,0,0-.2-.492A.651.651,0,0,0,5.55-2.808ZM-.5-1.164A.727.727,0,0,0,0-.972a.727.727,0,0,0,.5-.192L3.738-4.4a.732.732,0,0,0,.186-.312.669.669,0,0,0,.006-.366A.682.682,0,0,0,3.75-5.4a.682.682,0,0,0-.318-.18.669.669,0,0,0-.366.006.732.732,0,0,0-.312.186L.69-3.336V-9.5a.665.665,0,0,0-.234-.432A.684.684,0,0,0,0-10.1a.684.684,0,0,0-.456.168A.665.665,0,0,0-.69-9.5v6.168l-2.04-2.04a.7.7,0,0,0-.5-.228.647.647,0,0,0-.5.2.655.655,0,0,0-.2.51.707.707,0,0,0,.228.5Z" transform="translate(6.234 10.104)"/>
</svg>
