<svg xmlns="http://www.w3.org/2000/svg" width="11.448" height="12" viewBox="0 0 11.448 12">
  <path id="_0xff90" data-name="0xff90" d="M11.28.876l-2.9-2.928a5.005,5.005,0,0,0,.96-1.5,4.9,4.9,0,0,0,.348-1.824A4.678,4.678,0,0,0,9.024-7.8a4.9,4.9,0,0,0-1.74-1.74A4.816,4.816,0,0,0,4.83-10.2a4.688,4.688,0,0,0-2.43.66A4.9,4.9,0,0,0,.66-7.8,4.688,4.688,0,0,0,0-5.37,4.752,4.752,0,0,0,.66-2.928,4.684,4.684,0,0,0,2.4-1.2a4.678,4.678,0,0,0,2.424.66,4.909,4.909,0,0,0,1.44-.216,5.273,5.273,0,0,0,1.248-.6l2.976,2.988a.551.551,0,0,0,.792,0,.467.467,0,0,0,.168-.372A.5.5,0,0,0,11.28.876ZM4.824-1.488a3.713,3.713,0,0,1-1.932-.528A3.87,3.87,0,0,1,1.5-3.408,3.862,3.862,0,0,1,.972-5.376,3.8,3.8,0,0,1,1.5-7.332,3.87,3.87,0,0,1,2.892-8.724,3.862,3.862,0,0,1,4.86-9.252a3.8,3.8,0,0,1,1.956.528A3.87,3.87,0,0,1,8.208-7.332,3.754,3.754,0,0,1,8.73-5.376a3.84,3.84,0,0,1-.546,1.968A3.87,3.87,0,0,1,6.792-2.016,3.862,3.862,0,0,1,4.824-1.488Z" transform="translate(0 10.2)"/>
</svg>
