<svg xmlns="http://www.w3.org/2000/svg" width="12.001" height="11.022" viewBox="0 0 12.001 11.022">
  <path id="_0xffa1" data-name="0xffa1" d="M10.01-7.326H6.446v-.616a1.31,1.31,0,0,0-.2-.709,1.449,1.449,0,0,0-.55-.512,1.584,1.584,0,0,0-.765-.187H1.639a1.7,1.7,0,0,0-.825.2,1.575,1.575,0,0,0-.594.556A1.406,1.406,0,0,0,0-7.832V.011A1.689,1.689,0,0,0,.215.847a1.581,1.581,0,0,0,.589.6,1.557,1.557,0,0,0,.8.22H10.4a1.548,1.548,0,0,0,.809-.22,1.594,1.594,0,0,0,.583-.6A1.689,1.689,0,0,0,12,.011v-5.3a2.023,2.023,0,0,0-.27-1.029,2,2,0,0,0-.726-.737A1.923,1.923,0,0,0,10.01-7.326ZM1.078-7.6a.749.749,0,0,1,.253-.567A.855.855,0,0,1,1.936-8.4H4.675a.75.75,0,0,1,.528.2.643.643,0,0,1,.22.49v.374H1.078ZM10.934-.209A.782.782,0,0,1,10.7.358a.743.743,0,0,1-.55.237H1.98A.87.87,0,0,1,1.337.319a.923.923,0,0,1-.27-.671V-6.27h9.009a.829.829,0,0,1,.616.259.87.87,0,0,1,.253.633v5.17Z" transform="translate(0 9.35)"/>
</svg>
