<svg xmlns="http://www.w3.org/2000/svg" width="18.998" height="14" viewBox="0 0 18.998 14">
  <path id="_0xffa2" data-name="0xffa2" d="M19-.9V.1H17v2H16V.1H14V-.9h2v-2H17v2ZM2.114-.756a.811.811,0,0,0-.21.448.348.348,0,0,0,.224.336,1.773,1.773,0,0,0,.812.1L11.984.21V1.344H1.2A1.023,1.023,0,0,1,.441.973,1.56,1.56,0,0,1,.028.126.664.664,0,0,1,.014-.028L0-.336v-9.758A1.775,1.775,0,0,1,.245-11a1.751,1.751,0,0,1,.672-.658,1.854,1.854,0,0,1,.917-.238H5.5a1.654,1.654,0,0,1,.847.224,1.712,1.712,0,0,1,.616.609,1.59,1.59,0,0,1,.231.833v.728h5.1a2.117,2.117,0,0,1,1.106.3,2.293,2.293,0,0,1,.8.8,2.117,2.117,0,0,1,.3,1.106V-5.88h2.912a.515.515,0,0,1,.406.175.6.6,0,0,1,.154.413.649.649,0,0,1-.147.42.613.613,0,0,1-.441.21H6.706A2.756,2.756,0,0,0,5.6-4.438a2.313,2.313,0,0,0-.854.616Zm1.4-3.864a3.061,3.061,0,0,1,1.1-.924A3.108,3.108,0,0,1,6.034-5.88h7.28v-1.5a.933.933,0,0,0-.28-.686.933.933,0,0,0-.686-.28h-6.3v-1.61a.8.8,0,0,0-.238-.588.8.8,0,0,0-.588-.238H2.156a.928.928,0,0,0-.672.273.894.894,0,0,0-.28.665l-.014,1.5v6.538Z" transform="translate(0 11.9)"/>
</svg>
