<svg id="kicc" xmlns="http://www.w3.org/2000/svg" width="25" height="28" viewBox="0 0 25 28">
  <g id="Shape_554_copy" data-name="Shape 554 copy" transform="translate(0)" fill="none" stroke-linecap="round">
    <path d="M12.5,28h-.028c-1.771-.08-7.178-3.861-7.4-4.156C-1.795,18.453.3,5,.3,5,6.106,5,11.852.541,12.473.045V0L12.5.022,12.528,0V.045C13.149.541,18.894,5,24.7,5c0,0,2.1,13.453-4.777,18.843-.217.295-5.624,4.076-7.394,4.156H12.5Z" stroke="none"/>
    <path d="M 12.49966621398926 26.49508285522461 C 12.82040023803711 26.44357109069824 13.86309146881104 26.0474853515625 15.84094047546387 24.8353385925293 C 17.24869346618652 23.97257614135742 18.45921516418457 23.11087989807129 18.80022621154785 22.8370304107666 L 18.8354606628418 22.78909873962402 L 18.99684906005859 22.66251945495605 C 20.34044075012207 21.6086597442627 21.40317916870117 20.07991981506348 22.15555953979492 18.1187686920166 C 22.7868595123291 16.47322845458984 23.20153999328613 14.52751922607422 23.38806915283203 12.33568859100342 C 23.59418487548828 9.913779258728027 23.47231101989746 7.720067501068115 23.35419273376465 6.4302659034729 C 18.73835372924805 5.964544296264648 14.42858409881592 3.264323234558105 12.53754806518555 1.922834634780884 L 12.49860954284668 1.954378962516785 L 12.46150207519531 1.924201726913452 C 10.56905364990234 3.266494512557983 6.260595321655273 5.965522766113281 1.644843339920044 6.430393218994141 C 1.527492523193359 7.706029891967773 1.406996846199036 9.868185997009277 1.606879949569702 12.27566909790039 C 1.789819955825806 14.4791088104248 2.202510118484497 16.43536949157715 2.833470106124878 18.0900993347168 C 3.586560010910034 20.06512832641602 4.652999877929688 21.6035099029541 6.00314998626709 22.66251945495605 L 6.163269996643066 22.78809928894043 L 6.198520660400391 22.83584403991699 C 6.53877592086792 23.10917091369629 7.750466823577881 23.97172164916992 9.158989906311035 24.83498954772949 C 11.1390380859375 26.04853439331055 12.18204498291016 26.44427490234375 12.49966621398926 26.49508285522461 M 12.52812957763672 27.99987983703613 C 12.51016330718994 27.99987983703613 12.4910135269165 27.99987983703613 12.47276020050049 27.99987983703613 L 12.47276020050049 27.99853897094727 C 10.70127964019775 27.91869926452637 5.294980049133301 24.13744926452637 5.077410221099854 23.84276962280273 C -1.794620037078857 18.45263862609863 0.3006600141525269 4.999389171600342 0.3006600141525269 4.999389171600342 C 6.106420040130615 4.999389171600342 11.85179042816162 0.5405289530754089 12.47276020050049 0.04467896372079849 L 12.47276020050049 -1.0351562877986e-06 C 12.47276020050049 -1.0351562877986e-06 12.48209953308105 0.0075689647346735 12.50041007995605 0.02245896495878696 C 12.51879024505615 0.0075689647346735 12.52812957763672 -1.0351562877986e-06 12.52812957763672 -1.0351562877986e-06 L 12.52812957763672 0.04467896372079849 C 13.149169921875 0.5405289530754089 18.89447021484375 4.999389171600342 24.6993408203125 4.999389171600342 C 24.6993408203125 4.999389171600342 26.79462051391602 18.45263862609863 19.9225902557373 23.84276962280273 C 19.70598030090332 24.13744926452637 14.29878997802734 27.91869926452637 12.52812957763672 27.99853897094727 L 12.52812957763672 27.99987983703613 Z" stroke="none" fill="#000"/>
  </g>
  <path id="Lorem_Ipsum" data-name="Lorem ｹIpsum" d="M717.508,1994.181a.7.7,0,0,0-.5-.207h-1.281l.38-1.068a.723.723,0,0,0-.024-.546.7.7,0,0,0-.4-.364.645.645,0,0,0-.534.012.752.752,0,0,0-.368.412l-1.613,4.466-.474-1.456-.427-1.456-.38-1.213a.677.677,0,0,0-.261-.352.676.676,0,0,0-.806,0,.677.677,0,0,0-.261.352l-.38,1.213-.427,1.456-.474,1.456-1.613-4.514a.753.753,0,0,0-.368-.413.645.645,0,0,0-.534-.012.7.7,0,0,0-.4.364.721.721,0,0,0-.024.546l.379,1.116h-1.281a.675.675,0,0,0-.5.219.715.715,0,0,0,0,1.019.675.675,0,0,0,.5.218h1.8l1.423,3.98a.672.672,0,0,0,.261.352.675.675,0,0,0,.806,0,.674.674,0,0,0,.261-.352l1.233-3.98,1.234,3.98a.674.674,0,0,0,.261.352.675.675,0,0,0,.807,0,.674.674,0,0,0,.261-.352l1.423-3.98h1.8a.675.675,0,0,0,.5-.218.707.707,0,0,0,.213-.51A.7.7,0,0,0,717.508,1994.181Z" transform="translate(-698.721 -1980.896)"/>
</svg>
