<svg xmlns="http://www.w3.org/2000/svg" width="22.2" height="23.021" viewBox="0 0 22.2 23.021">
  <path id="_0xff05" data-name="0xff05" d="M10.775,1.518,4.381-5.29A8.355,8.355,0,0,0,5.9-7.728a8.511,8.511,0,0,0,.621-2.829,8.614,8.614,0,0,0-1.035-4.416,8.511,8.511,0,0,0-3.013-3.243A8.666,8.666,0,0,0-1.874-19.55a8.413,8.413,0,0,0-3.381.46,8.693,8.693,0,0,0-2.932,1.736,8.74,8.74,0,0,0-2.058,2.725,8.538,8.538,0,0,0-.851,3.312,8.6,8.6,0,0,0,1.058,4.439A8.5,8.5,0,0,0-7-3.657,8.374,8.374,0,0,0-2.656-2.323a8.517,8.517,0,0,0,2.748-.31A9.215,9.215,0,0,0,2.61-3.772L9.05,3.082a1.134,1.134,0,0,0,.8.368,1.164,1.164,0,0,0,.851-.3,1.1,1.1,0,0,0,.391-.8A1.053,1.053,0,0,0,10.775,1.518ZM-2.564-4.163a6.918,6.918,0,0,1-2.6-.6A6.734,6.734,0,0,1-7.348-6.313,6.8,6.8,0,0,1-8.774-8.59,6.58,6.58,0,0,1-9.2-11.224a6.692,6.692,0,0,1,.644-2.6,6.633,6.633,0,0,1,1.61-2.15A6.813,6.813,0,0,1-4.623-17.33a6.983,6.983,0,0,1,2.656-.379A6.77,6.77,0,0,1,1.46-16.652a6.818,6.818,0,0,1,2.369,2.53,6.668,6.668,0,0,1,.793,3.5,6.5,6.5,0,0,1-1.115,3.4,6.645,6.645,0,0,1-2.576,2.3A6.716,6.716,0,0,1-2.564-4.163Z" transform="translate(11.101 19.569)"/>
</svg>
