<svg xmlns="http://www.w3.org/2000/svg" width="18" height="16.173" viewBox="0 0 18 16.173">
  <path id="_0xee4e" data-name="0xee4e" d="M2.418-8.921a1.157,1.157,0,0,1-.437.97,1.668,1.668,0,0,1-1.1.323H-14.046a1.712,1.712,0,0,1-1.084-.34,1.182,1.182,0,0,1-.453-.954,1.956,1.956,0,0,1,.291-.987l7.456-13A1.509,1.509,0,0,1-6.574-23.8a1.441,1.441,0,0,1,1.229.889L2.127-9.892A2,2,0,0,1,2.418-8.921Zm-7.876-8.264v-2.361H-7.706v2.361a2.562,2.562,0,0,0,.032.42q.032.194.1.453a2.964,2.964,0,0,1,.081.437l.42,2.62h.954l.437-2.62.1-.42q.065-.259.1-.469A2.762,2.762,0,0,0-5.458-17.185Zm0,6.259a1.078,1.078,0,0,0-.323-.792,1.078,1.078,0,0,0-.792-.323,1.078,1.078,0,0,0-.792.323,1.136,1.136,0,0,0-.34.792.981.981,0,0,0,.34.792,1.2,1.2,0,0,0,.776.34,1.1,1.1,0,0,0,.809-.34A1.03,1.03,0,0,0-5.458-10.927Z" transform="translate(15.582 23.8)"/>
</svg>
