<svg xmlns="http://www.w3.org/2000/svg" width="11.006" height="10.999" viewBox="0 0 11.006 10.999">
  <path id="_0xe834" data-name="0xe834" d="M-.027-9.35a5.442,5.442,0,0,0-1.848.319,5.419,5.419,0,0,0-1.672.957,4.837,4.837,0,0,1,2.134-.99,4.877,4.877,0,0,1,2.3.11A4.8,4.8,0,0,1,2.921-7.733,4.746,4.746,0,0,1,4.01-6.061a4.659,4.659,0,0,1,.33,1.9A4.862,4.862,0,0,1,3.9-2.288a.835.835,0,0,0-.044.413.664.664,0,0,0,.176.336.636.636,0,0,0,.456.181.616.616,0,0,0,.468-.181.817.817,0,0,0,.088-.116A.642.642,0,0,0,5.121-1.8,5.561,5.561,0,0,0,5.5-3.867a5.365,5.365,0,0,0-.413-2.052,5.47,5.47,0,0,0-1.21-1.815,5.442,5.442,0,0,0-1.826-1.21A5.469,5.469,0,0,0-.027-9.35Zm-4.5,3.014a.561.561,0,0,0-.429.176.721.721,0,0,0-.088.11A.375.375,0,0,0-5.12-5.9a5.353,5.353,0,0,0-.385,2.062A5.575,5.575,0,0,0-5.1-1.782,5.47,5.47,0,0,0-3.888.033a5.44,5.44,0,0,0,2.354,1.4,5.548,5.548,0,0,0,2.64.11A5.4,5.4,0,0,0,3.548.374a4.837,4.837,0,0,1-2.134.99,4.876,4.876,0,0,1-2.3-.11A4.792,4.792,0,0,1-2.931.033,4.745,4.745,0,0,1-4.02-1.639a4.847,4.847,0,0,1-.325-1.9A4.791,4.791,0,0,1-3.91-5.412a.773.773,0,0,0,.055-.412.633.633,0,0,0-.187-.335A.59.59,0,0,0-4.526-6.336Z" transform="translate(5.506 9.35)"/>
</svg>
