<svg xmlns="http://www.w3.org/2000/svg" width="15" height="12" viewBox="0 0 15 12">
  <path id="_0xe8d2" data-name="0xe8d2" d="M7.5-7.5a2.153,2.153,0,0,1,1.605.66A2.193,2.193,0,0,1,9.75-5.25a2.167,2.167,0,0,1-.66,1.59A2.167,2.167,0,0,1,7.5-3a2.167,2.167,0,0,1-1.59-.66,2.167,2.167,0,0,1-.66-1.59,2.167,2.167,0,0,1,.66-1.59A2.167,2.167,0,0,1,7.5-7.5Zm6-2.25a1.448,1.448,0,0,1,1.065.435A1.448,1.448,0,0,1,15-8.25V-1.5a1.463,1.463,0,0,1-.435,1.05A1.424,1.424,0,0,1,13.5,0H1.5A1.439,1.439,0,0,1,.45-.45,1.439,1.439,0,0,1,0-1.5V-8.25A1.424,1.424,0,0,1,.45-9.315,1.463,1.463,0,0,1,1.5-9.75H3.3a.62.62,0,0,0,.6-.45l.45-1.38a.584.584,0,0,1,.6-.42h5.1a.584.584,0,0,1,.6.42l.45,1.38a.62.62,0,0,0,.6.45ZM7.5-1.5a3.615,3.615,0,0,0,2.655-1.1,3.615,3.615,0,0,0,1.1-2.655,3.615,3.615,0,0,0-1.1-2.655A3.615,3.615,0,0,0,7.5-9,3.615,3.615,0,0,0,4.845-7.905,3.615,3.615,0,0,0,3.75-5.25,3.615,3.615,0,0,0,4.845-2.6,3.615,3.615,0,0,0,7.5-1.5Zm5.49-5.7a.47.47,0,0,0,.36-.165.542.542,0,0,0,.15-.375.491.491,0,0,0-.15-.36.491.491,0,0,0-.36-.15q-.54,0-.54.51a.5.5,0,0,0,.165.39A.542.542,0,0,0,12.99-7.2Z" transform="translate(0 12)"/>
</svg>
