<svg xmlns="http://www.w3.org/2000/svg" width="3.9" height="6.684" viewBox="0 0 3.9 6.684">
  <path id="_0xf105" data-name="0xf105" d="M3.984-3.768a.2.2,0,0,1-.06.144L.792-.492a.2.2,0,0,1-.144.06.239.239,0,0,1-.156-.06L.156-.828A.218.218,0,0,1,.084-.984.218.218,0,0,1,.156-1.14L2.784-3.768.156-6.408a.182.182,0,0,1-.072-.144.218.218,0,0,1,.072-.156l.336-.336a.193.193,0,0,1,.156-.072.162.162,0,0,1,.144.072l3.132,3.12A.211.211,0,0,1,3.984-3.768Z" transform="translate(-0.084 7.116)" fill="#767676"/>
</svg>
