<svg xmlns="http://www.w3.org/2000/svg" width="35.031" height="10.372" viewBox="0 0 35.031 10.372">
  <path id="Toss" d="M7408.717,7489.9l-1.877,1.083c0-1.952.832-5.159,3.162-6.549a.2.2,0,0,0,.029-.016l.031-.019a4.049,4.049,0,0,1,1.577-.523,4.281,4.281,0,0,1,.472-.028h.045a4.079,4.079,0,0,1,.429,8.13,4.318,4.318,0,0,1-.474.027l-.044,0A3.863,3.863,0,0,1,7408.717,7489.9Zm29.476,1.718a2.956,2.956,0,0,1-2.762-1.309l0,0,1.4-.81a1.484,1.484,0,0,0,1.419.83c.641,0,.982-.312.981-.676,0-.446-.664-.548-1.453-.706-1.04-.214-2.195-.53-2.2-1.832,0-1.04,1-1.944,2.52-1.937a2.934,2.934,0,0,1,2.525,1.131l-1.31.761a1.319,1.319,0,0,0-1.212-.647c-.617,0-.913.252-.913.6,0,.388.5.49,1.406.682,1.029.2,2.243.555,2.246,1.878,0,.956-.847,2.041-2.63,2.041Zm-5.636,0a2.961,2.961,0,0,1-2.765-1.309l0,0,1.4-.81a1.481,1.481,0,0,0,1.418.83c.641,0,.982-.312.981-.676,0-.446-.664-.548-1.452-.706-1.041-.214-2.194-.53-2.2-1.832,0-1.04,1-1.944,2.52-1.937a2.93,2.93,0,0,1,2.525,1.131l-1.309.761a1.319,1.319,0,0,0-1.213-.647c-.617,0-.914.252-.913.6,0,.388.5.49,1.408.682,1.029.2,2.241.555,2.244,1.878,0,.956-.846,2.041-2.628,2.041Zm-9.559-3.221a3.221,3.221,0,1,1,3.22,3.221A3.22,3.22,0,0,1,7423,7488.394Zm1.5,0a1.718,1.718,0,1,0,1.717-1.717A1.718,1.718,0,0,0,7424.5,7488.394Zm-5.436.9v-2.589h-1.278V7485.3h1.278v-1.379l1.6-.922v2.3h1.916v1.405h-1.916v2.447c0,.657.275.888.678.888a1.809,1.809,0,0,0,.823-.353l.742,1.286a3.438,3.438,0,0,1-1.75.642C7419.856,7491.615,7419.066,7490.993,7419.066,7489.3Z" transform="translate(-7406.34 -7482.134)" stroke="rgba(0,0,0,0)" stroke-width="1"/>
</svg>
