<svg xmlns="http://www.w3.org/2000/svg" width="13.008" height="13.008" viewBox="0 0 13.008 13.008">
  <path id="_0xeb9d" data-name="0xeb9d" d="M1-1.248V-6.832H-.936v5.584ZM.024-7.808a1.1,1.1,0,0,0,.808-.328,1.1,1.1,0,0,0,.328-.808,1.1,1.1,0,0,0-.328-.808,1.1,1.1,0,0,0-.808-.328,1.125,1.125,0,0,0-.816.328,1.076,1.076,0,0,0-.336.8,1.1,1.1,0,0,0,.336.808A1.111,1.111,0,0,0,.024-7.808Zm-.032-4.3a6.348,6.348,0,0,1,3.28.9A6.33,6.33,0,0,1,5.608-8.9a6.362,6.362,0,0,1,.9,3.288,6.278,6.278,0,0,1-.9,3.272A6.454,6.454,0,0,1,3.272,0,6.362,6.362,0,0,1-.016.9,6.278,6.278,0,0,1-3.288,0,6.454,6.454,0,0,1-5.624-2.336,6.365,6.365,0,0,1-6.5-5.608,6.451,6.451,0,0,1-5.624-8.9a6.33,6.33,0,0,1,2.336-2.32A6.293,6.293,0,0,1-.008-12.112Z" transform="translate(6.504 12.112)"/>
</svg>
