<svg xmlns="http://www.w3.org/2000/svg" width="12" height="12" viewBox="0 0 12 12">
  <path id="_0xffb1" data-name="0xffb1" d="M5.352-1.584a5.447,5.447,0,0,1-.624-.852A11.931,11.931,0,0,1,4.2-3.6a12.5,12.5,0,0,1-.372-1.488A15.793,15.793,0,0,1,3.7-6.972a3.111,3.111,0,0,0-.852-2.04A3.547,3.547,0,0,0,.636-10.164l-.168-.024Q.24-10.2,0-10.2t-.456.012l-.18.024a3.509,3.509,0,0,0-2.2,1.146,3.025,3.025,0,0,0-.852,2.046Q-3.756-5.7-3.828-5.088A7.484,7.484,0,0,1-4.188-3.6a10.539,10.539,0,0,1-.54,1.164,3.985,3.985,0,0,1-.612.852A6.952,6.952,0,0,1-6-.936a.942.942,0,0,0,.276.648.881.881,0,0,0,.648.264h3.108a2.462,2.462,0,0,0,.234.666,2.235,2.235,0,0,0,.45.606A1.662,1.662,0,0,0,0,1.8a1.7,1.7,0,0,0,1.3-.552A2.466,2.466,0,0,0,2-.024H5.076A.881.881,0,0,0,5.73-.3.883.883,0,0,0,6-.936Q5.664-1.248,5.352-1.584ZM0,1.14A1.1,1.1,0,0,1-.6.966,1.229,1.229,0,0,1-1.032.5a1.221,1.221,0,0,1-.156-.588L1.188-.1A1.21,1.21,0,0,1,1.032.5,1.291,1.291,0,0,1,.6.96,1.077,1.077,0,0,1,0,1.14ZM-4.848-.8A9.085,9.085,0,0,0-2.856-7.032a1.932,1.932,0,0,1,.18-.78A2.634,2.634,0,0,1-2.16-8.58a2.223,2.223,0,0,1,.888-.606A3.333,3.333,0,0,1-.006-9.42a3.425,3.425,0,0,1,1.278.234,2.175,2.175,0,0,1,.888.594,2.634,2.634,0,0,1,.516.768,2.078,2.078,0,0,1,.18.792A9.085,9.085,0,0,0,4.848-.8Z" transform="translate(6 10.2)" fill="#1f1f1f"/>
</svg>
