<svg xmlns="http://www.w3.org/2000/svg" width="11.232" height="8.008" viewBox="0 0 11.232 8.008">
  <path id="_0xff01" data-name="0xff01" d="M5.136-3.272H-3.936l2.672-2.672A.493.493,0,0,0-1.116-6.3a.472.472,0,0,0-.144-.356A.485.485,0,0,0-1.616-6.8a.479.479,0,0,0-.352.144l-3.5,3.5a.479.479,0,0,0-.144.352.479.479,0,0,0,.144.352l3.5,3.5a.466.466,0,0,0,.352.152.472.472,0,0,0,.352-.148A.492.492,0,0,0-1.12.7.479.479,0,0,0-1.264.352L-3.936-2.312H5.136a.463.463,0,0,0,.34-.14.463.463,0,0,0,.14-.34.463.463,0,0,0-.14-.34A.463.463,0,0,0,5.136-3.272Z" transform="translate(5.616 6.8)" fill="#101010"/>
</svg>
