<svg xmlns="http://www.w3.org/2000/svg" width="15.319" height="18.213" viewBox="0 0 15.319 18.213">
  <path id="Apple" d="M7166.64,8540.138c-1.478-2.133-2.6-6.033-1.089-8.662a4.205,4.205,0,0,1,3.559-2.154c1.109-.022,2.156.746,2.837.746s1.952-.925,3.291-.792a4.041,4.041,0,0,1,3.142,1.71,3.884,3.884,0,0,0-1.856,3.27,3.8,3.8,0,0,0,2.307,3.48,9.589,9.589,0,0,1-1.192,2.443c-.715,1.047-1.458,2.092-2.629,2.116-1.153.017-1.524-.686-2.84-.686s-1.726.661-2.818.7l-.059,0C7168.192,8542.312,7167.35,8541.161,7166.64,8540.138Zm5.167-11.053a3.616,3.616,0,0,1,.915-2.662,3.869,3.869,0,0,1,2.531-1.3,3.776,3.776,0,0,1-.9,2.746,3.259,3.259,0,0,1-2.38,1.224C7171.921,8529.09,7171.865,8529.089,7171.807,8529.085Z" transform="translate(-7164.151 -8524.601)" stroke="rgba(0,0,0,0)" stroke-width="1"/>
</svg>
