<svg xmlns="http://www.w3.org/2000/svg" width="14.91" height="11.004" viewBox="0 0 14.91 11.004">
  <path id="_0xf115" data-name="0xf115" d="M13.916-4.634q0-.266-.42-.266H5a1.617,1.617,0,0,0-.672.168,1.417,1.417,0,0,0-.546.406l-2.3,2.842a.525.525,0,0,0-.154.308q0,.28.42.28h8.5a1.457,1.457,0,0,0,.672-.182,2.065,2.065,0,0,0,.56-.406l2.3-2.842A.5.5,0,0,0,13.916-4.634ZM5-5.894H11v-1.26a.727.727,0,0,0-.224-.532.68.68,0,0,0-.532-.21H5.754a.7.7,0,0,1-.532-.224A.808.808,0,0,1,5-8.652v-.5a.751.751,0,0,0-.21-.532.656.656,0,0,0-.532-.21H1.75a.751.751,0,0,0-.532.21.7.7,0,0,0-.224.532v6.664l2-2.45a2.632,2.632,0,0,1,.91-.686A2.536,2.536,0,0,1,5-5.894Zm9.912,1.26a1.5,1.5,0,0,1-.35.938L12.25-.854a2.468,2.468,0,0,1-.91.686A2.6,2.6,0,0,1,10.248.1H1.75A1.683,1.683,0,0,1,.518-.42,1.683,1.683,0,0,1,0-1.652v-7.5a1.683,1.683,0,0,1,.518-1.232,1.683,1.683,0,0,1,1.232-.518H4.256a1.683,1.683,0,0,1,1.232.518,1.683,1.683,0,0,1,.518,1.232V-8.9h4.242a1.653,1.653,0,0,1,1.232.518A1.758,1.758,0,0,1,12-7.154v1.26h1.5a1.729,1.729,0,0,1,.784.182,1.049,1.049,0,0,1,.518.56A1.2,1.2,0,0,1,14.91-4.634Z" transform="translate(0 10.906)"/>
</svg>
