<svg xmlns="http://www.w3.org/2000/svg" width="11.998" height="11.005" viewBox="0 0 11.998 11.005">
  <path id="_0xf1de" data-name="0xf1de" d="M-9.254-.9V.1H-12V-.9ZM-6.5-1.9a.482.482,0,0,1,.35.154.482.482,0,0,1,.154.35v2a.482.482,0,0,1-.154.35.482.482,0,0,1-.35.154h-2a.482.482,0,0,1-.35-.154A.482.482,0,0,1-9,.6v-2a.453.453,0,0,1,.154-.35A.569.569,0,0,1-8.5-1.9Zm1.246-3v.994H-12V-4.9Zm-5-4V-7.9H-12V-8.9ZM0-.9V.1H-5.754V-.9Zm-7.5-9a.523.523,0,0,1,.364.14A.43.43,0,0,1-7-9.394v1.988a.475.475,0,0,1-.14.35A.543.543,0,0,1-7.5-6.9H-9.492a.453.453,0,0,1-.35-.154A.569.569,0,0,1-10-7.406V-9.394a.5.5,0,0,1,.154-.364.435.435,0,0,1,.35-.14Zm5.012,4a.506.506,0,0,1,.35.14A.413.413,0,0,1-2-5.4v2a.475.475,0,0,1-.14.35.527.527,0,0,1-.35.154h-2a.453.453,0,0,1-.35-.154A.569.569,0,0,1-5-3.4v-2a.482.482,0,0,1,.154-.35.435.435,0,0,1,.35-.14ZM0-4.9v.994H-1.75V-4.9Zm0-4V-7.9H-6.748V-8.9Z" transform="translate(11.998 9.899)"/>
</svg>
