<svg xmlns="http://www.w3.org/2000/svg" width="12" height="13.008" viewBox="0 0 12 13.008">
  <path id="_0xe84d" data-name="0xe84d" d="M2-3.1a.453.453,0,0,0-.154-.35A.569.569,0,0,0,1.5-3.6a.421.421,0,0,0-.35.154.515.515,0,0,0-.154.35.515.515,0,0,0,.154.35.421.421,0,0,0,.35.154.569.569,0,0,0,.35-.154A.453.453,0,0,0,2-3.1Zm9-4.495a.935.935,0,0,0-.308-.7A1.044,1.044,0,0,0,10-8.6H7.253a3.2,3.2,0,0,1,.378-1.246A2.977,2.977,0,0,0,8-11.094a2.116,2.116,0,0,0-.238-1.134,1.16,1.16,0,0,0-1.008-.378,1.411,1.411,0,0,0-.294.672q-.1.462-.238.98a1.939,1.939,0,0,1-.462.854q-.182.182-.6.714-.028.042-.182.224t-.252.322q-.1.14-.266.336l-.308.35a1.66,1.66,0,0,1-.308.266l-.308.21a.411.411,0,0,1-.28.084H3v5h.252q.1,0,.252.014a.842.842,0,0,1,.252.056,1.7,1.7,0,0,0,.294.084.858.858,0,0,1,.28.1.711.711,0,0,0,.28.084q.2.028.224.084A8.617,8.617,0,0,0,7.505-1.6h.938q1.5,0,1.5-1.3a3.5,3.5,0,0,0-.028-.434.908.908,0,0,0,.364-.42,1.33,1.33,0,0,0,.14-.574,1.08,1.08,0,0,0-.14-.532,1.258,1.258,0,0,0,.406-.938,1.551,1.551,0,0,0-.07-.434.841.841,0,0,0-.2-.364q.252-.014.42-.364A1.481,1.481,0,0,0,11.006-7.593ZM12-7.607a2.267,2.267,0,0,1-.378,1.274,1.979,1.979,0,0,1,.07.532A2.309,2.309,0,0,1,11.4-4.667q.014.168.014.336a2.214,2.214,0,0,1-.462,1.386,2.246,2.246,0,0,1-.672,1.722,2.475,2.475,0,0,1-1.764.63H7.505A6.1,6.1,0,0,1,6.021-.774q-.728-.182-1.694-.5A5.759,5.759,0,0,0,3.248-1.6H.994a.956.956,0,0,1-.7-.294A.956.956,0,0,1,0-2.594v-5a.972.972,0,0,1,.294-.714.956.956,0,0,1,.7-.294H3.136a6.838,6.838,0,0,0,1.078-1.2q.448-.588.84-1.008a1.338,1.338,0,0,0,.266-.672,8.285,8.285,0,0,1,.238-.98,1.984,1.984,0,0,1,.49-.84.987.987,0,0,1,.7-.294,2.655,2.655,0,0,1,1.176.252,1.74,1.74,0,0,1,.8.8A3.209,3.209,0,0,1,9-11.094a3.451,3.451,0,0,1-.378,1.5H10a1.958,1.958,0,0,1,1.414.588A1.843,1.843,0,0,1,12-7.607Z" transform="translate(0 13.6)" fill="#101010"/>
</svg>
