<svg xmlns="http://www.w3.org/2000/svg" width="14" height="14.001" viewBox="0 0 14 14.001">
  <path id="_0xf06d" data-name="0xf06d" d="M0-11a6.878,6.878,0,0,1,.553-2.719,6.837,6.837,0,0,1,1.494-2.226,7.355,7.355,0,0,1,2.241-1.494A6.547,6.547,0,0,1,7.007-18a7.246,7.246,0,0,1,2.719.553,6.538,6.538,0,0,1,2.226,1.494,7.663,7.663,0,0,1,1.494,2.226A6.421,6.421,0,0,1,14-11a7.091,7.091,0,0,1-.553,2.719,7.124,7.124,0,0,1-1.494,2.241A6.639,6.639,0,0,1,9.727-4.549,7.483,7.483,0,0,1,7.007-4a6.132,6.132,0,0,1-2.719-.553A8.312,8.312,0,0,1,2.047-6.043,6.069,6.069,0,0,1,.553-8.285,7.838,7.838,0,0,1,0-11Zm2.645.463a.8.8,0,0,0,.224.568L5.155-7.687a.721.721,0,0,0,.553.224.769.769,0,0,0,.568-.224l4.706-4.706a.776.776,0,0,0,.239-.568.728.728,0,0,0-.239-.553.8.8,0,0,0-.568-.224.751.751,0,0,0-.553.224L5.722-9.36,3.989-11.093a.751.751,0,0,0-.553-.224.763.763,0,0,0-.56.232A.746.746,0,0,0,2.645-10.541Z" transform="translate(0 17.997)"/>
</svg>
