<svg xmlns="http://www.w3.org/2000/svg" width="16" height="15.328" viewBox="0 0 16 15.328">
  <path id="_0xecfc" data-name="0xecfc" d="M0-7.536H1.5l4.56.032L7.6-11.824l.464-1.44.464,1.472L9.936-7.44,16-7.312l-4.944,3.52L12.368.592l.448,1.472L11.6,1.152,7.9-1.536,4.192,1.056,2.944,1.9,3.408.464l1.44-4.32L1.216-6.64ZM3.024-6.512,5.712-4.448l.32.224L5.9-3.888,4.848-.64,7.664-2.608l.272-.176,3.04,2.208L9.9-4.16l.288-.224,2.784-2-3.44-.064L9.184-6.48l-.128-.336L8.032-10.032,6.912-6.848l-.128.336Z" transform="translate(0 13.264)"/>
</svg>
