<svg xmlns="http://www.w3.org/2000/svg" width="13.16" height="11.48" viewBox="0 0 13.16 11.48">
  <path id="_0xe953" data-name="0xe953" d="M5.712-10.64A5.548,5.548,0,0,1,9.73-9.016a5.5,5.5,0,0,1,1.722,3.948H13.16L10.584-2.184,8.008-5.068h2.016a4.106,4.106,0,0,0-1.316-2.94,4.205,4.205,0,0,0-3.01-1.2,4.108,4.108,0,0,0-3.01,1.26,4.14,4.14,0,0,0-1.26,3.038,4.14,4.14,0,0,0,1.26,3.038A4.124,4.124,0,0,0,5.712-.616a4.06,4.06,0,0,0,2.548-.84L9.24-.392A5.491,5.491,0,0,1,5.712.84,5.5,5.5,0,0,1,1.68-.84,5.531,5.531,0,0,1,0-4.9,5.531,5.531,0,0,1,1.68-8.96,5.5,5.5,0,0,1,5.712-10.64Z" transform="translate(0 10.64)" fill="#101010"/>
</svg>
