<svg xmlns="http://www.w3.org/2000/svg" width="12.865" height="12.87" viewBox="0 0 12.865 12.87">
  <path id="_0xf118" data-name="0xf118" d="M3.068-3.75A3.186,3.186,0,0,1,1.913-2.115,3.019,3.019,0,0,1,.008-1.5a3.349,3.349,0,0,1-1.92-.615A2.933,2.933,0,0,1-3.067-3.75a.522.522,0,0,1,.045-.405.53.53,0,0,1,.315-.263.54.54,0,0,1,.4.023.462.462,0,0,1,.255.33,2.106,2.106,0,0,0,.78,1.08,2.1,2.1,0,0,0,1.275.42,2.034,2.034,0,0,0,1.26-.42,2.226,2.226,0,0,0,.78-1.08.5.5,0,0,1,.27-.33.484.484,0,0,1,.405-.03.632.632,0,0,1,.315.27A.418.418,0,0,1,3.068-3.75ZM-1.072-7.4a1.042,1.042,0,0,1-.315.765,1.024,1.024,0,0,1-.75.315A1.074,1.074,0,0,1-2.9-6.63.97.97,0,0,1-3.217-7.4a1.071,1.071,0,0,1,.315-.75,1.089,1.089,0,0,1,.765-.315.9.9,0,0,1,.75.315A1.259,1.259,0,0,1-1.072-7.4Zm4.29,0A1.042,1.042,0,0,1,2.9-6.63a1.042,1.042,0,0,1-.765.315.993.993,0,0,1-.75-.315A1.126,1.126,0,0,1,1.073-7.4a.927.927,0,0,1,.315-.75,1.149,1.149,0,0,1,.75-.315,1.027,1.027,0,0,1,.765.315A.916.916,0,0,1,3.218-7.4ZM5.363-5.25a5.127,5.127,0,0,0-.435-2.085,5.685,5.685,0,0,0-1.14-1.71,5.126,5.126,0,0,0-1.71-1.14,5.319,5.319,0,0,0-2.07-.42,5.43,5.43,0,0,0-2.085.42,4.932,4.932,0,0,0-1.71,1.14,6.084,6.084,0,0,0-1.14,1.71A4.818,4.818,0,0,0-5.362-5.25a5.48,5.48,0,0,0,.435,2.085,5.163,5.163,0,0,0,1.14,1.7A5.917,5.917,0,0,0-2.077-.315,4.665,4.665,0,0,0,.008.105a5.968,5.968,0,0,0,2.07-.42A4.839,4.839,0,0,0,3.788-1.47a5.747,5.747,0,0,0,1.14-1.7A5.537,5.537,0,0,0,5.363-5.25Zm1.065,0a6.3,6.3,0,0,1-.855,3.225A6.4,6.4,0,0,1,3.233.315a6.268,6.268,0,0,1-3.225.87,6.348,6.348,0,0,1-3.24-.87,6.146,6.146,0,0,1-2.325-2.34,6.846,6.846,0,0,1-.87-3.225,5.7,5.7,0,0,1,.87-3.225,7.125,7.125,0,0,1,2.325-2.34,6.043,6.043,0,0,1,3.24-.87,5.967,5.967,0,0,1,3.225.87,7.466,7.466,0,0,1,2.34,2.34A5.319,5.319,0,0,1,6.428-5.25Z" transform="translate(6.43 11.685)"/>
</svg>
