<svg xmlns="http://www.w3.org/2000/svg" width="10.039" height="10.039" viewBox="0 0 10.039 10.039">
  <path id="_0xff07" data-name="0xff07" d="M-4.19-3.5-.17-7.53a.565.565,0,0,0,.16-.4.539.539,0,0,0-.165-.4.539.539,0,0,0-.4-.165.565.565,0,0,0-.4.16L-5-4.31-9.03-8.33a.565.565,0,0,0-.4-.16.539.539,0,0,0-.395.165.539.539,0,0,0-.165.4.565.565,0,0,0,.16.4L-5.81-3.5-9.83.53a.565.565,0,0,0-.16.4.539.539,0,0,0,.165.4.539.539,0,0,0,.395.165.565.565,0,0,0,.4-.16L-5-2.69-.97,1.33a.545.545,0,0,0,.255.185.58.58,0,0,0,.32.02.548.548,0,0,0,.28-.15.548.548,0,0,0,.15-.28.58.58,0,0,0-.02-.32A.545.545,0,0,0-.17.53Z" transform="translate(9.99 8.49)"/>
</svg>
