<svg xmlns="http://www.w3.org/2000/svg" width="11.962" height="11.948" viewBox="0 0 11.962 11.948">
  <path id="_0xe8e0" data-name="0xe8e0" d="M-.078-10.53A5.777,5.777,0,0,1,4.16-8.84,5.746,5.746,0,0,1,5.967-4.654,5.752,5.752,0,0,1,4.277-.4a5.769,5.769,0,0,1-4.2,1.82A5.752,5.752,0,0,1-4.173-.273a5.769,5.769,0,0,1-1.82-4.2,5.73,5.73,0,0,1,1.7-4.251A5.766,5.766,0,0,1-.078-10.53ZM-.1-.91a.862.862,0,0,0,.637-.247A.83.83,0,0,0,.78-1.768.783.783,0,0,0,.559-2.4a.862.862,0,0,0-.637-.247H-.1a.854.854,0,0,0-.611.234.879.879,0,0,0-.273.6.862.862,0,0,0,.247.637A.929.929,0,0,0-.13-.91ZM2.054-5.174a1.624,1.624,0,0,0,.338-1.014A1.732,1.732,0,0,0,1.7-7.7,2.939,2.939,0,0,0-.052-8.19,2.442,2.442,0,0,0-1.4-7.852a2.156,2.156,0,0,0-.936,1.9V-5.9H-.91v-.052a1.415,1.415,0,0,1,.208-.7.8.8,0,0,1,.715-.312.715.715,0,0,1,.663.26.9.9,0,0,1,.208.572.913.913,0,0,1-.208.52.928.928,0,0,1-.26.26l-.286.2Q0-5.07-.13-4.966L-.4-4.745a1.323,1.323,0,0,0-.221.221A2.2,2.2,0,0,0-.858-3.51v.1h1.4v-.052A1.528,1.528,0,0,1,.6-3.822.916.916,0,0,1,.962-4.29l.364-.234A3.26,3.26,0,0,0,2.054-5.174Z" transform="translate(5.994 10.53)"/>
</svg>
