<svg xmlns="http://www.w3.org/2000/svg" width="15" height="15" viewBox="0 0 15 15">
  <path id="_0xff79" data-name="0xff79" d="M7.5-12.75a7.488,7.488,0,0,0-2.925.585A7.5,7.5,0,0,0,2.2-10.553,7.5,7.5,0,0,0,.585-8.175,7.488,7.488,0,0,0,0-5.25,7.488,7.488,0,0,0,.585-2.325,7.5,7.5,0,0,0,2.2.053,7.5,7.5,0,0,0,4.575,1.665,7.488,7.488,0,0,0,7.5,2.25a7.488,7.488,0,0,0,2.925-.585A7.5,7.5,0,0,0,12.8.053a7.5,7.5,0,0,0,1.612-2.378A7.488,7.488,0,0,0,15-5.25a7.488,7.488,0,0,0-.585-2.925A7.5,7.5,0,0,0,12.8-10.553a7.5,7.5,0,0,0-2.377-1.613A7.488,7.488,0,0,0,7.5-12.75Zm0,14.1A6.531,6.531,0,0,1,4.155.45,6.485,6.485,0,0,1,1.8-1.905,6.531,6.531,0,0,1,.9-5.25,6.531,6.531,0,0,1,1.8-8.6,6.485,6.485,0,0,1,4.155-10.95a6.531,6.531,0,0,1,3.345-.9,6.531,6.531,0,0,1,3.345.9A6.485,6.485,0,0,1,13.2-8.6a6.531,6.531,0,0,1,.9,3.345,6.531,6.531,0,0,1-.9,3.345A6.485,6.485,0,0,1,10.845.45,6.531,6.531,0,0,1,7.5,1.35ZM11.7-5.4a.432.432,0,0,1-.135.315.432.432,0,0,1-.315.135H10.11l-.9,2.46a.419.419,0,0,1-.165.218.442.442,0,0,1-.255.082h0a.442.442,0,0,1-.255-.082A.419.419,0,0,1,8.37-2.49L7.59-4.95,6.81-2.49a.419.419,0,0,1-.165.218.442.442,0,0,1-.255.082.442.442,0,0,1-.255-.082A.419.419,0,0,1,5.97-2.49l-.9-2.46H3.93a.432.432,0,0,1-.315-.135A.432.432,0,0,1,3.48-5.4a.432.432,0,0,1,.135-.315A.432.432,0,0,1,3.93-5.85h.81L4.5-6.54a.437.437,0,0,1,.015-.338A.439.439,0,0,1,4.77-7.1a.416.416,0,0,1,.338.007.468.468,0,0,1,.232.255L6.36-4.05l.3-.9.27-.9.24-.75a.419.419,0,0,1,.165-.217A.442.442,0,0,1,7.59-6.9a.442.442,0,0,1,.255.082A.419.419,0,0,1,8.01-6.6l.24.75.27.9.3.9L9.84-6.81a.468.468,0,0,1,.233-.255.416.416,0,0,1,.337-.008.439.439,0,0,1,.255.225.437.437,0,0,1,.015.338l-.24.66h.81a.444.444,0,0,1,.315.128A.425.425,0,0,1,11.7-5.4Z" transform="translate(0 12.75)"/>
</svg>
