<svg xmlns="http://www.w3.org/2000/svg" width="18" height="15.912" viewBox="0 0 18 15.912">
  <path id="_0xff18" data-name="0xff18" d="M16.686-12.69a4.562,4.562,0,0,0-1.566-1.161,4.6,4.6,0,0,0-1.908-.405,4.234,4.234,0,0,0-2.34.684,5.1,5.1,0,0,0-1.422,1.4,7.875,7.875,0,0,0-.45.72,7.875,7.875,0,0,0-.45-.72,5.1,5.1,0,0,0-1.422-1.4,4.234,4.234,0,0,0-2.34-.684,4.6,4.6,0,0,0-1.908.405A4.562,4.562,0,0,0,1.314-12.69a5.2,5.2,0,0,0-.972,1.656A5.672,5.672,0,0,0,0-9.072a5.575,5.575,0,0,0,.45,2.2,9.063,9.063,0,0,0,1.386,2.2A24.223,24.223,0,0,0,3.852-2.646q.756.7,2.556,2.232l.036.036Q7.794.756,8.622,1.494l.036.036a.527.527,0,0,0,.684,0l.036-.036q.828-.738,2.178-1.872l.036-.036q1.8-1.53,2.556-2.232A24.223,24.223,0,0,0,16.164-4.68,8.694,8.694,0,0,0,17.55-6.867,5.64,5.64,0,0,0,18-9.072a5.672,5.672,0,0,0-.342-1.962A5.2,5.2,0,0,0,16.686-12.69Zm-5.814,11.5-.81.7Q9.36.108,9,.432q-.648-.576-1.872-1.62L7.11-1.206Q4.824-3.15,3.924-4.014a12.69,12.69,0,0,1-2.106-2.5,4.919,4.919,0,0,1-.756-2.556,4.727,4.727,0,0,1,.27-1.6A3.907,3.907,0,0,1,2.115-12a3.643,3.643,0,0,1,1.206-.882,3.5,3.5,0,0,1,1.467-.315,3.231,3.231,0,0,1,1.8.54,3.983,3.983,0,0,1,1.1,1.1A6.167,6.167,0,0,1,8.478-9.99l.018.036a.519.519,0,0,0,.189.261.518.518,0,0,0,.315.1.518.518,0,0,0,.315-.1A.519.519,0,0,0,9.5-9.954l.018-.036a6.166,6.166,0,0,1,.792-1.566,3.983,3.983,0,0,1,1.1-1.1,3.231,3.231,0,0,1,1.8-.54,3.5,3.5,0,0,1,1.467.315A3.643,3.643,0,0,1,15.885-12a3.907,3.907,0,0,1,.783,1.323,4.727,4.727,0,0,1,.27,1.6,4.919,4.919,0,0,1-.756,2.556,12.69,12.69,0,0,1-2.106,2.5q-.9.864-3.186,2.808Z" transform="translate(0 14.256)"/>
</svg>
