<svg xmlns="http://www.w3.org/2000/svg" width="21.01" height="22" viewBox="0 0 21.01 22">
  <path id="_0xff9a" data-name="0xff9a" d="M21.01-18.7v22h-15v-2h13v-18h-13v-2ZM3.41-6.71H15v-2H3.41l1.782-1.782a.981.981,0,0,0,.308-.715.962.962,0,0,0-.3-.7.962.962,0,0,0-.7-.3.981.981,0,0,0-.715.308L.286-8.4A.944.944,0,0,0,0-7.711,1.019,1.019,0,0,0,.286-7l3.5,3.5a.97.97,0,0,0,.715.286A1.007,1.007,0,0,0,5.225-3.5a.939.939,0,0,0,.3-.7.923.923,0,0,0-.308-.7Z" transform="translate(0 18.7)" fill="#4a4a4a"/>
</svg>
