<svg xmlns="http://www.w3.org/2000/svg" width="14" height="14" viewBox="0 0 14 14">
  <path id="_0xff27" data-name="0xff27" d="M0-11.9a6.954,6.954,0,0,0-2.716.546A7.127,7.127,0,0,0-4.942-9.842,7.127,7.127,0,0,0-6.454-7.616,6.954,6.954,0,0,0-7-4.9a6.954,6.954,0,0,0,.546,2.716A7.127,7.127,0,0,0-4.942.042,7.127,7.127,0,0,0-2.716,1.554,6.954,6.954,0,0,0,0,2.1a6.954,6.954,0,0,0,2.716-.546A7.127,7.127,0,0,0,4.942.042,7.127,7.127,0,0,0,6.454-2.184,6.954,6.954,0,0,0,7-4.9a6.954,6.954,0,0,0-.546-2.716A7.127,7.127,0,0,0,4.942-9.842a7.127,7.127,0,0,0-2.226-1.512A6.954,6.954,0,0,0,0-11.9ZM0,1.232A5.971,5.971,0,0,1-3.08.392a6.053,6.053,0,0,1-2.2-2.2A6,6,0,0,1-6.118-4.9a6,6,0,0,1,.84-3.094,6.053,6.053,0,0,1,2.2-2.2,5.983,5.983,0,0,1,3.087-.84,5.983,5.983,0,0,1,3.087.84,6.053,6.053,0,0,1,2.2,2.2A6,6,0,0,1,6.132-4.9a6,6,0,0,1-.84,3.094,6.053,6.053,0,0,1-2.2,2.2A6,6,0,0,1,0,1.232Zm2.058-6.44a.451.451,0,0,1,.126.308.451.451,0,0,1-.126.308L-.966-1.526a.411.411,0,0,1-.3.126.423.423,0,0,1-.308-.133.423.423,0,0,1-.133-.308.392.392,0,0,1,.14-.3L1.134-4.9l-2.7-2.758a.392.392,0,0,1-.14-.3.423.423,0,0,1,.133-.308A.423.423,0,0,1-1.267-8.4a.411.411,0,0,1,.3.126Z" transform="translate(7 11.9)"/>
</svg>
