<svg xmlns="http://www.w3.org/2000/svg" width="12" height="11.009" viewBox="0 0 12 11.009">
  <path id="_0xff53" data-name="0xff53" d="M9.435-9.606a.532.532,0,0,0-.176-.413A.7.7,0,0,0,8.84-10.2h-5.5a1.333,1.333,0,0,0-.539.121,1.349,1.349,0,0,0-.462.3L.418-7.866a1.3,1.3,0,0,0-.3.457A1.45,1.45,0,0,0,0-6.853V.215A.559.559,0,0,0,.16.628.654.654,0,0,0,.583.809H8.84A.532.532,0,0,0,9.253.633.7.7,0,0,0,9.435.215V-1.47H8.653V.039H.782V-6.27H3.336a.541.541,0,0,0,.418-.182.634.634,0,0,0,.176-.4V-9.418H8.653v4.613l.782-.782ZM3.149-7.051H.826A.432.432,0,0,1,.958-7.3L2.9-9.231a.648.648,0,0,1,.253-.132ZM6.727-1.624l1.6-.341L11.89-5.532A.38.38,0,0,0,12-5.813a.38.38,0,0,0-.11-.281L11.2-6.8a.387.387,0,0,0-.286-.11.351.351,0,0,0-.275.11L7.068-3.209ZM7.365-3l.143-.143.738.738L8.1-2.262l-.87.121Z" transform="translate(0 10.2)"/>
</svg>
