<svg xmlns="http://www.w3.org/2000/svg" width="23" height="25.025" viewBox="0 0 23 25.025">
  <path id="_0xff9b" data-name="0xff9b" d="M19.3-7.225a9.92,9.92,0,0,0-3.825-2.4A6.215,6.215,0,0,0,17.3-11.85a6.209,6.209,0,0,0,.7-2.9,6.318,6.318,0,0,0-.875-3.262,6.552,6.552,0,0,0-2.363-2.363A6.318,6.318,0,0,0,11.5-21.25a6.318,6.318,0,0,0-3.262.875,6.552,6.552,0,0,0-2.362,2.363A6.318,6.318,0,0,0,5-14.75a6.209,6.209,0,0,0,.7,2.9A6.215,6.215,0,0,0,7.525-9.625,9.718,9.718,0,0,0,3.688-7.213,11.782,11.782,0,0,0,1.1-3.025,17.135,17.135,0,0,0,.125.9,16.209,16.209,0,0,0,0,2.8v.975H22.975L23,2.8A16.21,16.21,0,0,0,22.875.9,17.135,17.135,0,0,0,21.9-3.025,11.817,11.817,0,0,0,19.3-7.225ZM11.5-19.25a4.44,4.44,0,0,1,2.263.6A4.411,4.411,0,0,1,15.4-17.013,4.44,4.44,0,0,1,16-14.75a4.44,4.44,0,0,1-.6,2.262,4.411,4.411,0,0,1-1.638,1.638,4.44,4.44,0,0,1-2.263.6,4.44,4.44,0,0,1-2.262-.6A4.411,4.411,0,0,1,7.6-12.488,4.44,4.44,0,0,1,7-14.75a4.44,4.44,0,0,1,.6-2.262A4.411,4.411,0,0,1,9.238-18.65,4.44,4.44,0,0,1,11.5-19.25ZM2.05,1.775a16.157,16.157,0,0,1,.725-3.55,10.24,10.24,0,0,1,2.35-4.05A8.465,8.465,0,0,1,11.5-8.25a8.465,8.465,0,0,1,6.375,2.425,10.481,10.481,0,0,1,2.35,4.05,16.564,16.564,0,0,1,.725,3.55Z" transform="translate(0 21.25)"/>
</svg>
