<svg xmlns="http://www.w3.org/2000/svg" width="12.1" height="11" viewBox="0 0 12.1 11">
  <path id="_0xff98" data-name="0xff98" d="M9.9-3.278V-7.15H8.8v-2.2H0v8.8H2.2V.55H7.568a2.417,2.417,0,0,0,.88.808,2.435,2.435,0,0,0,1.177.292,2.436,2.436,0,0,0,1.248-.33,2.445,2.445,0,0,0,.9-.9A2.436,2.436,0,0,0,12.1-.825a2.381,2.381,0,0,0-.292-1.161,2.534,2.534,0,0,0-.792-.88A2.375,2.375,0,0,0,9.9-3.278ZM.55-1.1V-8.8h7.7v1.65H2.2V-1.1ZM2.75,0V-6.6h6.6v3.322a2.4,2.4,0,0,0-1.111.412,2.514,2.514,0,0,0-.8.88A2.381,2.381,0,0,0,7.15-.825,2.646,2.646,0,0,0,7.3,0ZM11-.55H9.9V.55H9.35V-.55H8.25V-1.1h1.1V-2.2H9.9v1.1H11Z" transform="translate(0 9.35)"/>
</svg>
