<svg xmlns="http://www.w3.org/2000/svg" width="14.706" height="16.866" viewBox="0 0 14.706 16.866">
  <path id="_0xec19" data-name="0xec19" d="M-7.353-6.372a1.077,1.077,0,0,1,.324-.792l7.038-7.02,7.02,7.02a1.077,1.077,0,0,1,.324.792,1.048,1.048,0,0,1-.324.783,1.072,1.072,0,0,1-.774.315A1.056,1.056,0,0,1,5.481-5.6L1.107-9.972V1.584a1.056,1.056,0,0,1-.324.774A1.067,1.067,0,0,1,0,2.682a1.067,1.067,0,0,1-.783-.324,1,1,0,0,1-.306-.774V-9.972L-5.481-5.6a1.056,1.056,0,0,1-.774.324,1.072,1.072,0,0,1-.774-.315A1.048,1.048,0,0,1-7.353-6.372Z" transform="translate(7.353 14.184)"/>
</svg>
