<svg xmlns="http://www.w3.org/2000/svg" width="31.164" height="28.001" viewBox="0 0 31.164 28.001">
  <path id="_0xee4e" data-name="0xee4e" d="M15.582,1.96a2,2,0,0,1-.756,1.68,2.888,2.888,0,0,1-1.9.56H-12.922A2.963,2.963,0,0,1-14.8,3.612a2.046,2.046,0,0,1-.784-1.652,3.387,3.387,0,0,1,.5-1.708L-2.17-22.26A2.613,2.613,0,0,1,.014-23.8a2.5,2.5,0,0,1,2.128,1.54L15.078.28A3.453,3.453,0,0,1,15.582,1.96ZM1.946-12.348v-4.088H-1.946v4.088a4.435,4.435,0,0,0,.056.728q.056.336.168.784a5.132,5.132,0,0,1,.14.756l.728,4.536H.8l.756-4.536.168-.728q.112-.448.168-.812A4.782,4.782,0,0,0,1.946-12.348Zm0,10.836a1.866,1.866,0,0,0-.56-1.372,1.866,1.866,0,0,0-1.372-.56,1.866,1.866,0,0,0-1.372.56,1.967,1.967,0,0,0-.588,1.372A1.7,1.7,0,0,0-1.358-.14,2.085,2.085,0,0,0-.014.448a1.912,1.912,0,0,0,1.4-.588A1.784,1.784,0,0,0,1.946-1.512Z" transform="translate(15.582 23.8)" fill="#b8b8b9"/>
</svg>
