<svg xmlns="http://www.w3.org/2000/svg" width="14.56" height="16" viewBox="0 0 14.56 16">
  <path id="_0xff03" data-name="0xff03" d="M7.264,1.568A7.515,7.515,0,0,0,6.512-.92a7.126,7.126,0,0,0-1.56-2.064,7.209,7.209,0,0,0-2.2-1.384,5.143,5.143,0,0,0,1.5-1.52A4.923,4.923,0,0,0,4.984-7.88a4.875,4.875,0,0,0-.168-2.128,5.042,5.042,0,0,0-1.032-1.864,5.037,5.037,0,0,0-1.7-1.272A4.907,4.907,0,0,0,0-13.6a4.907,4.907,0,0,0-2.088.456,5.037,5.037,0,0,0-1.7,1.272,5.042,5.042,0,0,0-1.032,1.864A4.875,4.875,0,0,0-4.984-7.88a4.923,4.923,0,0,0,.736,1.992,5.143,5.143,0,0,0,1.5,1.52,7.209,7.209,0,0,0-2.2,1.384A7.248,7.248,0,0,0-6.52-.92a7.405,7.405,0,0,0-.76,2.488v.144a.664.664,0,0,0,.2.488.664.664,0,0,0,.488.2A.664.664,0,0,0-6.1,2.2a.664.664,0,0,0,.2-.488v.064a5.919,5.919,0,0,1,.992-2.72,5.845,5.845,0,0,1,2.1-1.888A5.762,5.762,0,0,1,0-3.552a5.762,5.762,0,0,1,2.816.72,5.845,5.845,0,0,1,2.1,1.888A5.919,5.919,0,0,1,5.9,1.776V1.712a.688.688,0,1,0,1.376,0ZM0-4.912a3.587,3.587,0,0,1-2.04-.616,3.631,3.631,0,0,1-1.352-1.64A3.542,3.542,0,0,1-3.608-9.28a3.62,3.62,0,0,1,1-1.88A3.552,3.552,0,0,1-.736-12.168a3.612,3.612,0,0,1,2.12.208,3.574,3.574,0,0,1,1.648,1.344,3.587,3.587,0,0,1,.616,2.04A3.583,3.583,0,0,1,3.16-6.744,3.667,3.667,0,0,1,1.832-5.408,3.539,3.539,0,0,1,0-4.912Z" transform="translate(7.28 13.6)"/>
</svg>
