<svg xmlns="http://www.w3.org/2000/svg" width="13" height="14.909" viewBox="0 0 13 14.909">
  <path id="_0xec16" data-name="0xec16" d="M-7.353-6.144a.934.934,0,0,1,.286-.684.952.952,0,0,1,.7-.286.851.851,0,0,1,.668.286l3.882,3.867V-13.177a.934.934,0,0,1,.286-.684.934.934,0,0,1,.684-.286.934.934,0,0,1,.684.286.934.934,0,0,1,.286.684V-2.962L3.992-6.829a.934.934,0,0,1,.684-.286.934.934,0,0,1,.684.286.934.934,0,0,1,.286.684.987.987,0,0,1-.286.7L-.845.761-7.067-5.444A1.024,1.024,0,0,1-7.353-6.144Z" transform="translate(7.353 14.148)"/>
</svg>
