<svg xmlns="http://www.w3.org/2000/svg" xmlns:xlink="http://www.w3.org/1999/xlink" width="202" height="21" viewBox="0 0 202 21">
  <defs>
    <clipPath id="clip-path">
      <rect id="사각형_" data-name="사각형 " width="202" height="21" transform="translate(0 -0.215)" fill="none"/>
    </clipPath>
  </defs>
  <g id="로고" transform="translate(0 0.215)" clip-path="url(#clip-path)">
    <path id="패스_" data-name="패스 " d="M29.608,20.541a2.662,2.662,0,0,1-1.266-.31,2.429,2.429,0,0,1-.925-.836,2.019,2.019,0,0,1-.33-1.146,2,2,0,0,1,.33-1.14,2.452,2.452,0,0,1,.925-.832,2.672,2.672,0,0,1,1.266-.309,2.587,2.587,0,0,1,1.245.309,2.561,2.561,0,0,1,.925.832,2.066,2.066,0,0,1,.361,1.14,2.1,2.1,0,0,1-.356,1.142,2.533,2.533,0,0,1-.925.836,2.589,2.589,0,0,1-1.25.314" fill="#00989c"/>
    <path id="패스_2" data-name="패스 " d="M35.7.5h5.584l6.051,13.42h.256L53.644.5h5.573V20.3H54.835V7.334h-.191L48.965,20.212h-3.01L40.265,7.286H40.1V20.3H35.7Z" fill="#060001"/>
    <path id="패스_3" data-name="패스 " d="M82.742,10.4a10.747,10.747,0,0,1-1.324,5.453,8.852,8.852,0,0,1-3.637,3.509,11.877,11.877,0,0,1-10.45,0,8.858,8.858,0,0,1-3.626-3.515A10.753,10.753,0,0,1,62.386,10.4a10.773,10.773,0,0,1,1.319-5.453,8.834,8.834,0,0,1,3.626-3.51,11.9,11.9,0,0,1,10.45,0,8.861,8.861,0,0,1,3.637,3.51A10.744,10.744,0,0,1,82.742,10.4m-4.584,0a8.333,8.333,0,0,0-.686-3.553,4.94,4.94,0,0,0-1.946-2.219,6.185,6.185,0,0,0-5.919,0,4.959,4.959,0,0,0-1.941,2.219A8.333,8.333,0,0,0,66.98,10.4a8.336,8.336,0,0,0,.686,3.553,4.97,4.97,0,0,0,1.941,2.219,6.185,6.185,0,0,0,5.919,0,4.95,4.95,0,0,0,1.946-2.219,8.336,8.336,0,0,0,.686-3.553" fill="#060001"/>
    <path id="패스_4" data-name="패스 " d="M104.077.5V20.3h-3.914L90.592,7.721h-.171V20.3H85.9V.5h3.978l9.508,12.569h.191V.5Z" fill="#060001"/>
    <path id="패스_5" data-name="패스 " d="M122.824,10.043a1.994,1.994,0,0,0-.783-1.223,2.714,2.714,0,0,0-1.629-.443,3.266,3.266,0,0,0-1.251.228,2.189,2.189,0,0,0-.875.613,1.327,1.327,0,0,0-.318.867,1.228,1.228,0,0,0,.48.973,3.685,3.685,0,0,0,1.517.642l2.03.465a5.363,5.363,0,0,1,2.614,1.255,2.951,2.951,0,0,1,.859,2.192,3.5,3.5,0,0,1-.626,2.051,4.048,4.048,0,0,1-1.8,1.4,8.052,8.052,0,0,1-5.4.062,4.013,4.013,0,0,1-1.753-1.272,4.148,4.148,0,0,1-.8-2.031h2.569a1.877,1.877,0,0,0,.808,1.3,3.178,3.178,0,0,0,1.777.431,4.15,4.15,0,0,0,1.4-.215,2.134,2.134,0,0,0,.933-.609,1.385,1.385,0,0,0,.331-.916,1.273,1.273,0,0,0-.481-1.023,3.6,3.6,0,0,0-1.492-.635l-1.98-.439a5.127,5.127,0,0,1-2.607-1.268,3,3,0,0,1-.882-2.221,3.35,3.35,0,0,1,.617-1.989,4.016,4.016,0,0,1,1.732-1.351,6.457,6.457,0,0,1,2.573-.48,6.249,6.249,0,0,1,2.45.447,3.933,3.933,0,0,1,1.666,1.268,3.839,3.839,0,0,1,.724,1.923Z" fill="#454648"/>
    <path id="패스_6" data-name="패스 " d="M133.637,19.556a5.893,5.893,0,0,1-3.128-.82,5.487,5.487,0,0,1-2.084-2.308,7.635,7.635,0,0,1-.738-3.435,7.7,7.7,0,0,1,.738-3.456,5.486,5.486,0,0,1,2.084-2.312,6.361,6.361,0,0,1,6.248,0,5.446,5.446,0,0,1,2.08,2.312,7.723,7.723,0,0,1,.734,3.456,7.661,7.661,0,0,1-.734,3.435,5.447,5.447,0,0,1-2.08,2.308,5.872,5.872,0,0,1-3.12.82m.009-2.088a2.963,2.963,0,0,0,1.877-.6,3.571,3.571,0,0,0,1.147-1.616,6.439,6.439,0,0,0,.382-2.27,6.444,6.444,0,0,0-.382-2.271,3.623,3.623,0,0,0-1.147-1.624,2.932,2.932,0,0,0-1.877-.605,2.99,2.99,0,0,0-1.9.605,3.61,3.61,0,0,0-1.157,1.624,6.444,6.444,0,0,0-.38,2.271,6.439,6.439,0,0,0,.38,2.27,3.559,3.559,0,0,0,1.157,1.616,3.021,3.021,0,0,0,1.9.6" fill="#454648"/>
    <rect id="사각형_2" data-name="사각형 " width="2.503" height="16.972" transform="translate(142.396 2.327)" fill="#454648"/>
    <path id="패스_7" data-name="패스 " d="M156.376,14.013V6.571h2.486V19.3h-2.444V17.1h-.133a3.93,3.93,0,0,1-.833,1.234,3.691,3.691,0,0,1-1.288.837,4.519,4.519,0,0,1-1.683.3,4.263,4.263,0,0,1-2.187-.551,3.713,3.713,0,0,1-1.472-1.633,5.942,5.942,0,0,1-.526-2.615v-8.1h2.5v7.79a3.293,3.293,0,0,0,.323,1.5,2.352,2.352,0,0,0,.912.99,2.6,2.6,0,0,0,1.351.348,3.073,3.073,0,0,0,1.426-.356,2.856,2.856,0,0,0,1.127-1.077,3.31,3.31,0,0,0,.438-1.749" fill="#454648"/>
    <path id="패스_8" data-name="패스 " d="M168.69,8.568h-6.961v-2h6.961Zm-5.1-5.047h2.5V15.554a2.238,2.238,0,0,0,.2,1.048,1.092,1.092,0,0,0,.53.51,2.031,2.031,0,0,0,.8.141c.132,0,.283,0,.451-.008s.333-.014.494-.025c.054-.006.107-.01.157-.013s.1,0,.141,0v2.155a9.953,9.953,0,0,1-1.549.107,4.543,4.543,0,0,1-1.869-.377,3.057,3.057,0,0,1-1.351-1.143,3.351,3.351,0,0,1-.5-1.877Z" fill="#454648"/>
    <path id="패스_9" data-name="패스 " d="M172.749,4.614a1.6,1.6,0,0,1-.795-.2,1.551,1.551,0,0,1-.576-.543,1.366,1.366,0,0,1-.211-.737,1.387,1.387,0,0,1,.211-.746,1.533,1.533,0,0,1,.576-.539,1.639,1.639,0,0,1,.795-.2,1.608,1.608,0,0,1,.779.2,1.526,1.526,0,0,1,.576.539,1.387,1.387,0,0,1,.211.746,1.367,1.367,0,0,1-.211.737,1.544,1.544,0,0,1-.576.543,1.57,1.57,0,0,1-.779.2M171.481,6.57h2.5V19.3h-2.5Z" fill="#454648"/>
    <path id="패스_10" data-name="패스 " d="M182.76,19.556a5.894,5.894,0,0,1-3.129-.82,5.494,5.494,0,0,1-2.084-2.308,7.635,7.635,0,0,1-.737-3.435,7.7,7.7,0,0,1,.737-3.456,5.493,5.493,0,0,1,2.084-2.312,6.363,6.363,0,0,1,6.249,0,5.458,5.458,0,0,1,2.08,2.312,7.723,7.723,0,0,1,.734,3.456,7.661,7.661,0,0,1-.734,3.435,5.459,5.459,0,0,1-2.08,2.308,5.877,5.877,0,0,1-3.12.82m.008-2.088a2.963,2.963,0,0,0,1.877-.6,3.572,3.572,0,0,0,1.148-1.616,6.439,6.439,0,0,0,.381-2.27,6.444,6.444,0,0,0-.381-2.271,3.624,3.624,0,0,0-1.148-1.624,2.932,2.932,0,0,0-1.877-.605,2.989,2.989,0,0,0-1.9.605,3.6,3.6,0,0,0-1.157,1.624,6.444,6.444,0,0,0-.381,2.271,6.438,6.438,0,0,0,.381,2.27,3.551,3.551,0,0,0,1.157,1.616,3.02,3.02,0,0,0,1.9.6" fill="#454648"/>
    <path id="패스_11" data-name="패스 " d="M193.541,11.75V19.3h-2.5V6.57h2.4V8.65h.158a3.829,3.829,0,0,1,.825-1.193,3.514,3.514,0,0,1,1.255-.779,4.8,4.8,0,0,1,1.675-.273,4.579,4.579,0,0,1,2.287.551,3.693,3.693,0,0,1,1.511,1.628,5.84,5.84,0,0,1,.535,2.619v8.1h-2.5V11.51a3.58,3.58,0,0,0-.324-1.579,2.293,2.293,0,0,0-.924-1.015,2.818,2.818,0,0,0-1.438-.348,3.034,3.034,0,0,0-1.532.377,2.654,2.654,0,0,0-1.045,1.094,3.6,3.6,0,0,0-.381,1.711" fill="#454648"/>
    <path id="패스_12" data-name="패스 " d="M17.941.5,11.89,13.918h-.255L5.583.5H0V20.3H4.392V7.286h.17l5.69,12.927h3.01l5.68-12.879h.191V20.3h4.382V.5Z" fill="#00989c"/>
  </g>
</svg>
