<svg xmlns="http://www.w3.org/2000/svg" width="10.544" height="16" viewBox="0 0 10.544 16">
  <path id="_0xff59" data-name="0xff59" d="M3.2-11.712H7.344v1.12H3.2Zm7.344-.384V.9A1.449,1.449,0,0,1,10.1,1.96,1.449,1.449,0,0,1,9.04,2.4H1.5A1.449,1.449,0,0,1,.44,1.96,1.449,1.449,0,0,1,0,.9V-12.1A1.449,1.449,0,0,1,.44-13.16,1.449,1.449,0,0,1,1.5-13.6H9.04a1.449,1.449,0,0,1,1.064.44A1.449,1.449,0,0,1,10.544-12.1ZM9.408-.048H1.136v.56a.722.722,0,0,0,.224.528.722.722,0,0,0,.528.224H8.656a.715.715,0,0,0,.536-.224A.736.736,0,0,0,9.408.512Zm0-11.664a.728.728,0,0,0-.216-.536.728.728,0,0,0-.536-.216H1.888a.736.736,0,0,0-.528.216.715.715,0,0,0-.224.536V-1.184H9.408Z" transform="translate(0 13.6)" fill="#101010"/>
</svg>
