<svg xmlns="http://www.w3.org/2000/svg" width="12.576" height="13.728" viewBox="0 0 12.576 13.728">
  <path id="_0xe85d" data-name="0xe85d" d="M-1.7-7.024v5.136a.281.281,0,0,1-.08.208.281.281,0,0,1-.208.08h-.576a.281.281,0,0,1-.208-.08.281.281,0,0,1-.08-.208V-7.024a.281.281,0,0,1,.08-.208.281.281,0,0,1,.208-.08h.576a.281.281,0,0,1,.208.08A.281.281,0,0,1-1.7-7.024Zm2.288,0v5.136A.281.281,0,0,1,.5-1.68.281.281,0,0,1,.3-1.6H-.28a.281.281,0,0,1-.208-.08.281.281,0,0,1-.08-.208V-7.024a.281.281,0,0,1,.08-.208.281.281,0,0,1,.208-.08H.3a.281.281,0,0,1,.208.08A.281.281,0,0,1,.584-7.024Zm2.272,0v5.136a.281.281,0,0,1-.08.208.262.262,0,0,1-.192.08H2.008A.281.281,0,0,1,1.8-1.68a.281.281,0,0,1-.08-.208V-7.024a.281.281,0,0,1,.08-.208.281.281,0,0,1,.208-.08h.576a.262.262,0,0,1,.192.08A.281.281,0,0,1,2.856-7.024ZM4.008-.56V-9.024h-8V-.56a.94.94,0,0,0,.064.352A.971.971,0,0,0-3.8.032q.064.08.1.08H3.72q.032,0,.1-.08a.971.971,0,0,0,.128-.24A.94.94,0,0,0,4.008-.56Zm-6-9.616h4l-.432-1.04a.248.248,0,0,0-.144-.1H-1.4a.253.253,0,0,0-.16.1ZM6.3-9.888v.576a.281.281,0,0,1-.08.208.281.281,0,0,1-.208.08H5.144V-.56A2.047,2.047,0,0,1,4.728.72a1.235,1.235,0,0,1-1.008.544H-3.7A1.246,1.246,0,0,1-4.712.736,2.056,2.056,0,0,1-5.144-.528v-8.5h-.848A.281.281,0,0,1-6.2-9.1a.281.281,0,0,1-.08-.208v-.576A.281.281,0,0,1-6.2-10.1a.281.281,0,0,1,.208-.08H-3.24l.624-1.488a1.244,1.244,0,0,1,.5-.56,1.427,1.427,0,0,1,.7-.24H1.432a1.193,1.193,0,0,1,.7.24,1.4,1.4,0,0,1,.48.56l.624,1.488H6.008a.281.281,0,0,1,.208.08A.281.281,0,0,1,6.3-9.888Z" transform="translate(6.28 12.464)"/>
</svg>
