<svg xmlns="http://www.w3.org/2000/svg" width="16" height="14.423" viewBox="0 0 16 14.423">
  <path id="_0xe800" data-name="0xe800" d="M4.18-35.2a1.411,1.411,0,0,0-.873.312,2.092,2.092,0,0,0-.641.841,2.835,2.835,0,0,0-.232,1.153,2.891,2.891,0,0,0,.232,1.161,2.115,2.115,0,0,0,.633.849,1.4,1.4,0,0,0,.881.312,1.4,1.4,0,0,0,.881-.312,2.181,2.181,0,0,0,.641-.849,2.808,2.808,0,0,0,.24-1.161,2.754,2.754,0,0,0-.24-1.153,2.192,2.192,0,0,0-.641-.841A1.4,1.4,0,0,0,4.18-35.2Zm7.64,0a1.4,1.4,0,0,0-.881.312,2.192,2.192,0,0,0-.641.841,2.754,2.754,0,0,0-.24,1.153,2.808,2.808,0,0,0,.24,1.161,2.181,2.181,0,0,0,.641.849,1.4,1.4,0,0,0,.881.312,1.4,1.4,0,0,0,.881-.312,2.181,2.181,0,0,0,.641-.849,2.809,2.809,0,0,0,.24-1.161,2.754,2.754,0,0,0-.24-1.153,2.192,2.192,0,0,0-.641-.841A1.4,1.4,0,0,0,11.82-35.2Zm3.331,9.594a.78.78,0,0,0-.593.256l-.192.192a9.347,9.347,0,0,1-2.979,1.97,9.183,9.183,0,0,1-3.355.681,9.009,9.009,0,0,1-3.371-.6A8.944,8.944,0,0,1,1.682-25l-.24-.24a.8.8,0,0,0-.6-.248.825.825,0,0,0-.593.264A.845.845,0,0,0,0-24.613.831.831,0,0,0,.256-24a.7.7,0,0,0,.128.128l.144.144a10.722,10.722,0,0,0,3.54,2.226,10.479,10.479,0,0,0,3.98.729,10.645,10.645,0,0,0,3.964-.809,10.819,10.819,0,0,0,3.524-2.322l.08-.08.144-.144a.917.917,0,0,0,.24-.625.818.818,0,0,0-.248-.6A.818.818,0,0,0,15.151-25.606Z" transform="translate(0 35.2)"/>
</svg>
