<svg xmlns="http://www.w3.org/2000/svg" width="14" height="20.29" viewBox="0 0 14 20.29">
  <path id="_0xff80" data-name="0xff80" d="M-7.43-23.8h-9.8a2,2,0,0,0-1.045.284,2.158,2.158,0,0,0-.761.761,2,2,0,0,0-.284,1.045V-5.6a2,2,0,0,0,.284,1.045,2.158,2.158,0,0,0,.761.761,2,2,0,0,0,1.045.284h9.8a2.058,2.058,0,0,0,1.055-.284A2.132,2.132,0,0,0-5.6-4.555,2,2,0,0,0-5.32-5.6V-21.71A2,2,0,0,0-5.6-22.755a2.132,2.132,0,0,0-.771-.761A2.058,2.058,0,0,0-7.43-23.8Zm-10.835,2.09a1,1,0,0,1,.294-.741,1,1,0,0,1,.741-.294h9.8a1.038,1.038,0,0,1,.751.294.987.987,0,0,1,.3.741v14h-11.89ZM-6.375-5.6a.987.987,0,0,1-.3.741,1.038,1.038,0,0,1-.751.294h-9.8a1,1,0,0,1-.741-.294,1,1,0,0,1-.294-.741V-6.655h11.89ZM-10.23-20.716v.487a.287.287,0,0,1-.081.193.24.24,0,0,1-.183.091h-3.652a.272.272,0,0,1-.193-.091.272.272,0,0,1-.091-.193v-.487a.272.272,0,0,1,.091-.193A.272.272,0,0,1-14.146-21h3.652a.24.24,0,0,1,.183.091A.287.287,0,0,1-10.23-20.716Z" transform="translate(19.32 23.8)" fill="#101010"/>
</svg>
