<svg xmlns="http://www.w3.org/2000/svg" width="11" height="11.013" viewBox="0 0 11 11.013">
  <path id="_0xe849" data-name="0xe849" d="M3.254-8.576a.9.9,0,0,0-.273-.664A.845.845,0,0,0,2.33-9.5a1.043,1.043,0,0,0-.664.26.8.8,0,0,0-.273.664.87.87,0,0,0,.273.651,1.124,1.124,0,0,0,.664.273.7.7,0,0,0,.651-.273A1.188,1.188,0,0,0,3.254-8.576ZM11-4.4a.927.927,0,0,1-.26.664L7.173-.166A.94.94,0,0,1,6.5.107a.854.854,0,0,1-.644-.273L.664-5.36A2.271,2.271,0,0,1,.2-6.1,2.229,2.229,0,0,1,0-6.949v-3.02a.889.889,0,0,1,.273-.651.937.937,0,0,1,.651-.286H3.957a2.229,2.229,0,0,1,.846.2,2.272,2.272,0,0,1,.742.469L10.74-5.048A.911.911,0,0,1,11-4.4Z" transform="translate(0 10.906)"/>
</svg>
