<svg xmlns="http://www.w3.org/2000/svg" width="12" height="11.996" viewBox="0 0 12 11.996">
  <path id="_0xe861" data-name="0xe861" d="M12-4.544a2.573,2.573,0,0,1-.092.6,3.973,3.973,0,0,1-.183.58,2.248,2.248,0,0,1-1.038.916,3.3,3.3,0,0,1-1.572.427,3.461,3.461,0,0,1-.458-.031,3.271,3.271,0,0,1-.488-.107l-.4-.122-.9-.321a8,8,0,0,1-1.48-.717A13.129,13.129,0,0,1,3.128-5.155,11.594,11.594,0,0,1,1.3-7.413a7.381,7.381,0,0,1-.7-1.48L.442-9.321a4.739,4.739,0,0,0-.183-.473,1.867,1.867,0,0,1-.122-.4L.03-10.68A1.6,1.6,0,0,1,0-11.122a3.234,3.234,0,0,1,.443-1.587,2.184,2.184,0,0,1,.9-1.038,3.973,3.973,0,0,1,.58-.183,2.574,2.574,0,0,1,.6-.092.425.425,0,0,1,.183.031q.153.046.458.641l.244.473a4.989,4.989,0,0,0,.305.534,3.48,3.48,0,0,1,.259.458,2.154,2.154,0,0,1,.153.214,2.987,2.987,0,0,1,.183.305.542.542,0,0,1,.061.244.667.667,0,0,1-.244.412,6.1,6.1,0,0,1-.534.473,5.927,5.927,0,0,0-.519.458.729.729,0,0,0-.244.382.6.6,0,0,0,.046.2l.061.168a1.451,1.451,0,0,0,.122.214q.107.168.107.153A8.749,8.749,0,0,0,4.639-6.65a8.874,8.874,0,0,0,2,1.48.828.828,0,0,1,.153.092A1.3,1.3,0,0,0,7-4.956l.168.076a.329.329,0,0,0,.2.031q.153,0,.382-.244t.458-.519q.229-.275.473-.534t.427-.244a.515.515,0,0,1,.229.061,2.987,2.987,0,0,1,.305.183,2.154,2.154,0,0,1,.214.153l1.465.824q.6.29.641.443A.425.425,0,0,1,12-4.544Z" transform="translate(0.005 14.022)" fill="#1f1f1f"/>
</svg>
