<svg xmlns="http://www.w3.org/2000/svg" width="35" height="8.74" viewBox="0 0 35 8.74">
  <path id="Payco" d="M7525.092,7485.893v-.022a3.954,3.954,0,0,1,7.906-.022v.022a3.954,3.954,0,0,1-7.906.022Zm1.711-.044v.022a2.268,2.268,0,0,0,2.252,2.353,2.232,2.232,0,0,0,2.232-2.331v-.022a2.267,2.267,0,0,0-2.254-2.352A2.231,2.231,0,0,0,7526.8,7485.848Zm-8.876.044v-.022a3.792,3.792,0,0,1,3.879-3.87,3.933,3.933,0,0,1,2.488.759.828.828,0,0,1,.317.651.8.8,0,0,1-.808.8.86.86,0,0,1-.488-.161,2.435,2.435,0,0,0-1.52-.535,2.211,2.211,0,0,0-2.157,2.33v.022a2.218,2.218,0,0,0,2.157,2.353,2.378,2.378,0,0,0,1.615-.589.76.76,0,0,1,.489-.182.761.761,0,0,1,.489,1.348,3.723,3.723,0,0,1-2.646.94A3.766,3.766,0,0,1,7517.927,7485.893Zm-4.3,2.96v-2.127l-2.4-3.282a.983.983,0,0,1-.2-.588.8.8,0,0,1,.819-.792.943.943,0,0,1,.807.5l1.807,2.619,1.839-2.641a.937.937,0,0,1,.786-.491.761.761,0,0,1,.8.8,1.02,1.02,0,0,1-.212.577l-2.4,3.261v2.159a.819.819,0,1,1-1.637,0Zm-3.293.256-.5-1.175h-3.274l-.521,1.229a.8.8,0,0,1-.754.512.756.756,0,0,1-.755-.768.87.87,0,0,1,.1-.354l2.593-5.891a1.011,1.011,0,0,1,.957-.652h.1a1,1,0,0,1,.946.652l2.594,5.891a.813.813,0,0,1,.085.331.778.778,0,0,1-.777.791A.831.831,0,0,1,7510.333,7489.109Zm-3.167-2.629h2.061l-1.03-2.47Zm-8.167,2.373v-5.964a.816.816,0,0,1,.819-.824h2.221a2.555,2.555,0,0,1,2.849,2.587v.021c0,1.733-1.339,2.63-3.009,2.63h-1.241v1.55a.819.819,0,1,1-1.639,0Zm1.639-3.016h1.3a1.155,1.155,0,0,0,1.3-1.133v-.021c0-.737-.511-1.133-1.329-1.133h-1.264Z" transform="translate(-7498.499 -7481.5)" stroke="rgba(0,0,0,0)" stroke-width="1"/>
</svg>
