<svg xmlns="http://www.w3.org/2000/svg" width="14.299" height="16.983" viewBox="0 0 14.299 16.983">
  <path id="Apple" d="M7166.511,8539.064c-1.373-1.98-2.419-5.6-1.012-8.044a3.906,3.906,0,0,1,3.305-2c1.03-.021,2,.692,2.635.692s1.813-.858,3.056-.735a3.752,3.752,0,0,1,2.917,1.588,3.605,3.605,0,0,0-1.723,3.035,3.527,3.527,0,0,0,2.142,3.233,8.9,8.9,0,0,1-1.106,2.269c-.665.972-1.354,1.942-2.442,1.964-1.07.017-1.415-.637-2.637-.637s-1.6.615-2.617.653l-.055,0C7167.952,8541.083,7167.17,8540.015,7166.511,8539.064Zm4.8-10.264a3.356,3.356,0,0,1,.849-2.472,3.584,3.584,0,0,1,2.35-1.209,3.507,3.507,0,0,1-.831,2.549,3.027,3.027,0,0,1-2.21,1.137C7171.415,8528.806,7171.363,8528.8,7171.309,8528.8Z" transform="translate(-7164.165 -8524.602)" stroke="rgba(0,0,0,0)" stroke-width="1"/>
</svg>
