<svg xmlns="http://www.w3.org/2000/svg" width="16.066" height="12.87" viewBox="0 0 16.066 12.87">
  <path id="_0xe8bc" data-name="0xe8bc" d="M14.73-11.685a1.263,1.263,0,0,1,.945.4,1.32,1.32,0,0,1,.39.945V-.165a1.287,1.287,0,0,1-.39.945,1.341,1.341,0,0,1-.945.405H1.335A1.3,1.3,0,0,1,.39.78,1.243,1.243,0,0,1,0-.165v-10.17a1.287,1.287,0,0,1,.39-.945,1.341,1.341,0,0,1,.945-.4Zm-13.4,1.08a.245.245,0,0,0-.18.075.323.323,0,0,0-.09.2V-8.46H15v-1.875a.264.264,0,0,0-.075-.2.264.264,0,0,0-.2-.075ZM14.73.105a.3.3,0,0,0,.2-.075A.205.205,0,0,0,15-.165V-5.25H1.065V-.165a.272.272,0,0,0,.09.2.206.206,0,0,0,.18.075ZM2.145-.96V-2.04H4.29V-.96Zm3.21,0V-2.04h3.21V-.96Z" transform="translate(0.001 11.685)"/>
</svg>
