<svg xmlns="http://www.w3.org/2000/svg" width="16" height="14.112" viewBox="0 0 16 14.112">
  <path id="heart_60_" data-name="heart_60%" d="M11.744-12.656a3.711,3.711,0,0,0-2.352.816A5.608,5.608,0,0,0,8-10.176,5.093,5.093,0,0,0,6.624-11.84a3.776,3.776,0,0,0-2.368-.816,4.072,4.072,0,0,0-2.176.6A4.166,4.166,0,0,0,.552-10.4,5,5,0,0,0,0-8.048,4.941,4.941,0,0,0,.416-6.064a7.218,7.218,0,0,0,1.152,1.84,17.84,17.84,0,0,0,1.808,1.84q.7.656,2.352,2.048l.48.4Q7.152.9,7.664,1.344a.56.56,0,0,0,.672,0Q8.848.9,9.792.064l.48-.4Q11.9-1.712,12.624-2.384a17.84,17.84,0,0,0,1.808-1.84,7.218,7.218,0,0,0,1.152-1.84A4.941,4.941,0,0,0,16-8.048a5,5,0,0,0-.552-2.352,4.166,4.166,0,0,0-1.528-1.656A4.072,4.072,0,0,0,11.744-12.656Z" transform="translate(0 12.656)" fill="#fff" opacity="0.6"/>
</svg>
