<svg xmlns="http://www.w3.org/2000/svg" width="10.716" height="11.604" viewBox="0 0 10.716 11.604">
  <path id="edit" d="M-2959.273,1033.549l-2.178-2.365a.181.181,0,0,1-.033-.214.184.184,0,0,1,.177-.116h1.375V1023.2a.191.191,0,0,1,.055-.143.19.19,0,0,1,.143-.055h1.176a.191.191,0,0,1,.143.055.191.191,0,0,1,.055.143v7.655h1.375a.183.183,0,0,1,.176.121.2.2,0,0,1-.033.209l-2.145,2.365a.224.224,0,0,1-.148.055A.185.185,0,0,1-2959.273,1033.549Zm-5.462.055a.193.193,0,0,1-.143-.055.193.193,0,0,1-.055-.143v-7.656h-1.375a.171.171,0,0,1-.176-.121.2.2,0,0,1,.032-.21l2.146-2.364a.183.183,0,0,1,.137-.055.227.227,0,0,1,.149.055l2.177,2.364a.2.2,0,0,1,.033.21.184.184,0,0,1-.176.121h-1.375v7.656a.2.2,0,0,1-.055.143.193.193,0,0,1-.143.055Z" transform="translate(2967.005 -1022.5)" stroke="rgba(0,0,0,0)" stroke-width="1"/>
</svg>
