<svg xmlns="http://www.w3.org/2000/svg" width="14" height="11.215" viewBox="0 0 14 11.215">
  <path id="_0xe821" data-name="0xe821" d="M4.666-8.417a1.351,1.351,0,0,1-.405.993,1.4,1.4,0,0,1-.993.418,1.269,1.269,0,0,1-.993-.418,1.408,1.408,0,0,1-.405-.993,1.408,1.408,0,0,1,.405-.993,1.23,1.23,0,0,1,.993-.405,1.5,1.5,0,0,1,.993.405A1.3,1.3,0,0,1,4.666-8.417Zm7.477,2.81v3.268H1.869v-1.4L4.2-6.077,5.372-4.914,9.1-8.639Zm.693-5.137H1.163a.214.214,0,0,0-.157.065.282.282,0,0,0-.078.17v8.862a.237.237,0,0,0,.078.17.18.18,0,0,0,.157.065H12.836a.26.26,0,0,0,.17-.065.179.179,0,0,0,.065-.17v-8.862a.23.23,0,0,0-.065-.17A.23.23,0,0,0,12.836-10.744ZM14-10.509v8.862a1.122,1.122,0,0,1-.34.824,1.169,1.169,0,0,1-.824.353H1.163A1.129,1.129,0,0,1,.34-.823,1.083,1.083,0,0,1,0-1.646v-8.862a1.122,1.122,0,0,1,.34-.824,1.169,1.169,0,0,1,.824-.353H12.836a1.1,1.1,0,0,1,.824.353A1.15,1.15,0,0,1,14-10.509Z" transform="translate(0.001 11.685)" fill="#1f1f1f"/>
</svg>
