<svg xmlns="http://www.w3.org/2000/svg" width="33.154" height="10.977" viewBox="0 0 33.154 10.977">
  <path id="Kakaopay" d="M9711.589,9092.129a6.114,6.114,0,0,0,1.472-1.8l-2.358-6.429,1.763-.475,1.508,5.215,1.494-5.239,1.74.487-2.079,5.723a6.634,6.634,0,0,1-2.444,3.526Zm-14.264.717v-9.188h1.254l.219.584a2.522,2.522,0,0,1,1.873-.777c1.737,0,2.565,1.3,2.554,3.4,0,2.2-1.277,3.609-3.1,3.609a3.816,3.816,0,0,1-1.02-.122v2.492Zm1.777-7.705v3.975a5.226,5.226,0,0,0,.571.036c1.263,0,1.75-.887,1.75-2.285,0-1.228-.328-1.968-1.338-1.968A2.305,2.305,0,0,0,9699.1,9085.141Zm-12.053,7.132a.141.141,0,0,1-.034-.147l.461-1.719a3.756,3.756,0,0,1-2.27-3.257c0-2.13,2.188-3.857,4.889-3.857s4.888,1.728,4.888,3.857-2.188,3.857-4.888,3.857a6.234,6.234,0,0,1-.881-.063l-1.979,1.337a.14.14,0,0,1-.087.033A.139.139,0,0,1,9687.05,9092.272Zm17.267-3.886c0-1.4.975-2.14,2.773-2.14h1.01v-.219c0-.73-.415-1.069-1.133-1.069a4.44,4.44,0,0,0-1.823.438l-.485-1.192a4.646,4.646,0,0,1,2.467-.74,2.349,2.349,0,0,1,2.629,2.614v4.217H9708.5l-.18-.561a3.361,3.361,0,0,1-1.97.741A1.879,1.879,0,0,1,9704.316,9088.387Zm1.594-.025c0,.5.258.742.777.742a2.453,2.453,0,0,0,1.412-.511v-1.216h-.815C9706.372,9087.377,9705.91,9087.706,9705.91,9088.361Z" transform="translate(-9684.707 -9082.787)" stroke="rgba(0,0,0,0)" stroke-width="1"/>
</svg>
