<svg xmlns="http://www.w3.org/2000/svg" width="18.662" height="14" viewBox="0 0 18.662 14">
  <path id="_0xff09" data-name="0xff09" d="M17.668-11.9H6.328v1.666H3.794a.491.491,0,0,0-.392.182L.112-6.1A.5.5,0,0,0,0-5.782V-.406a.486.486,0,0,0,.147.357A.486.486,0,0,0,.5.1H1.33A1.985,1.985,0,0,0,1.6,1.106a1.947,1.947,0,0,0,.728.728,2.043,2.043,0,0,0,2.016,0,1.947,1.947,0,0,0,.728-.728A1.985,1.985,0,0,0,5.334.1h7.994a1.985,1.985,0,0,0,.266,1.008,1.947,1.947,0,0,0,.728.728,2.043,2.043,0,0,0,2.016,0,1.947,1.947,0,0,0,.728-.728A1.985,1.985,0,0,0,17.332.1h.84a.463.463,0,0,0,.35-.147.5.5,0,0,0,.14-.357V-11.9ZM3.332,1.106A.933.933,0,0,1,2.639.812.976.976,0,0,1,2.352.105a.952.952,0,0,1,.287-.7.952.952,0,0,1,.7-.287A.976.976,0,0,1,4.046-.6a.941.941,0,0,1,.294.7.964.964,0,0,1-.294.707A.972.972,0,0,1,3.332,1.106Zm12,0a.933.933,0,0,1-.693-.294A.976.976,0,0,1,14.35.105a.952.952,0,0,1,.287-.7.952.952,0,0,1,.7-.287.976.976,0,0,1,.707.287.941.941,0,0,1,.294.7.964.964,0,0,1-.294.707A.972.972,0,0,1,15.33,1.106Zm2.338-2h-.6a1.947,1.947,0,0,0-.728-.728,2.016,2.016,0,0,0-2,0,1.947,1.947,0,0,0-.728.728H5.068a1.947,1.947,0,0,0-.728-.728,2.016,2.016,0,0,0-2,0A1.947,1.947,0,0,0,1.61-.9H.994V-5.614L4.032-9.24h2.3V-2.9h11.34Zm0-3.5v.49H7.336v-7H17.668Z" transform="translate(0 11.9)"/>
</svg>
