<svg xmlns="http://www.w3.org/2000/svg" width="13" height="13" viewBox="0 0 13 13">
  <path id="_0xee3b" data-name="0xee3b" d="M-6.5-4.55a6.273,6.273,0,0,1,1.911-4.6A6.213,6.213,0,0,1,0-11.05a6.392,6.392,0,0,1,4.6,1.9,6.11,6.11,0,0,1,1.9,4.6A6.375,6.375,0,0,1,4.6.052,6.278,6.278,0,0,1,0,1.95,6.105,6.105,0,0,1-4.589.052,6.555,6.555,0,0,1-6.5-4.55Zm1.417,0a4.866,4.866,0,0,0,1.5,3.588A4.961,4.961,0,0,0,0,.533a4.827,4.827,0,0,0,3.588-1.5A4.921,4.921,0,0,0,5.083-4.55,4.921,4.921,0,0,0,3.588-8.138,4.827,4.827,0,0,0,0-9.633,4.961,4.961,0,0,0-3.588-8.138,4.866,4.866,0,0,0-5.083-4.55Zm2.21.182h1.6v-2.9H1.274v2.9h1.6L0-1.677Z" transform="translate(6.5 11.05)"/>
</svg>
