<svg xmlns="http://www.w3.org/2000/svg" width="12" height="11.469" viewBox="0 0 12 11.469">
  <path id="_0xff08" data-name="0xff08" d="M6.666-.556a.645.645,0,0,0-.474.2A.645.645,0,0,0,6,.114V2.551H-3.336V.114a.645.645,0,0,0-.2-.474.645.645,0,0,0-.474-.2.645.645,0,0,0-.474.2.645.645,0,0,0-.2.474V3.221a.645.645,0,0,0,.2.474.645.645,0,0,0,.474.2H6.666a.627.627,0,0,0,.468-.2.655.655,0,0,0,.191-.474V.114A.655.655,0,0,0,7.134-.36.627.627,0,0,0,6.666-.556ZM.845,1.026a.714.714,0,0,0,.959,0L4.922-2.092a.7.7,0,0,0,.179-.3.644.644,0,0,0,.006-.352.656.656,0,0,0-.173-.306.656.656,0,0,0-.306-.173.644.644,0,0,0-.352.006.7.7,0,0,0-.3.179L1.989-1.064V-7a.64.64,0,0,0-.225-.416.659.659,0,0,0-.439-.162.659.659,0,0,0-.439.162A.64.64,0,0,0,.66-7v5.936L-1.3-3.027a.674.674,0,0,0-.479-.219.623.623,0,0,0-.485.191.63.63,0,0,0-.191.491.68.68,0,0,0,.219.485Z" transform="translate(4.675 7.578)"/>
</svg>
