<svg xmlns="http://www.w3.org/2000/svg" width="11.908" height="11.908" viewBox="0 0 11.908 11.908">
  <path id="_0xff40" data-name="0xff40" d="M12.3.481,9.23-2.587a5.089,5.089,0,0,0,.78-1.4A4.792,4.792,0,0,0,10.3-5.629a4.773,4.773,0,0,0-.663-2.457A4.867,4.867,0,0,0,7.878-9.841,4.773,4.773,0,0,0,5.421-10.5a4.773,4.773,0,0,0-2.457.663A4.867,4.867,0,0,0,1.209-8.086,4.773,4.773,0,0,0,.546-5.629a4.773,4.773,0,0,0,.663,2.457A4.867,4.867,0,0,0,2.964-1.417a4.773,4.773,0,0,0,2.457.663A4.792,4.792,0,0,0,7.059-1.04a4.852,4.852,0,0,0,1.4-.78l3.068,3.068a.558.558,0,0,0,.39.156.514.514,0,0,0,.377-.156.514.514,0,0,0,.156-.377A.558.558,0,0,0,12.3.481ZM5.421-1.846a3.7,3.7,0,0,1-1.911-.52A3.713,3.713,0,0,1,2.145-3.718a3.7,3.7,0,0,1-.52-1.911,3.7,3.7,0,0,1,.52-1.911A3.816,3.816,0,0,1,3.51-8.905a3.7,3.7,0,0,1,1.911-.52,3.7,3.7,0,0,1,1.911.52A3.713,3.713,0,0,1,8.684-7.54,3.7,3.7,0,0,1,9.2-5.629a3.7,3.7,0,0,1-.52,1.911A3.615,3.615,0,0,1,7.332-2.366,3.7,3.7,0,0,1,5.421-1.846ZM7.046-6.175H5.954V-7.254A.535.535,0,0,0,5.8-7.638.5.5,0,0,0,5.421-7.8a.524.524,0,0,0-.384.162.524.524,0,0,0-.162.384v1.079H3.8a.524.524,0,0,0-.384.162.524.524,0,0,0-.163.384.5.5,0,0,0,.163.377A.535.535,0,0,0,3.8-5.1H4.875V-4a.5.5,0,0,0,.162.377.535.535,0,0,0,.384.156A.514.514,0,0,0,5.8-3.627.514.514,0,0,0,5.954-4V-5.1H7.046a.514.514,0,0,0,.377-.156.514.514,0,0,0,.156-.377.535.535,0,0,0-.156-.384A.5.5,0,0,0,7.046-6.175Z" transform="translate(-0.546 10.504)" fill="#101010"/>
</svg>
