<svg xmlns="http://www.w3.org/2000/svg" width="14" height="14.7" viewBox="0 0 14 14.7">
  <path id="search" d="M201.082,812.169a.761.761,0,0,1-.266.554.789.789,0,0,1-.58.205.768.768,0,0,1-.548-.253l-3.267-3.583a6.231,6.231,0,0,1-1.715.783,5.74,5.74,0,0,1-1.872.214,5.666,5.666,0,0,1-2.96-.917,5.821,5.821,0,0,1-2.068-2.214,5.951,5.951,0,0,1,3.258-8.4,5.678,5.678,0,0,1,2.3-.316,5.883,5.883,0,0,1,5.012,3.148,5.831,5.831,0,0,1,.282,4.982,5.745,5.745,0,0,1-1.034,1.676l3.236,3.551A.731.731,0,0,1,201.082,812.169Zm-5.8-3.867a4.662,4.662,0,0,0,2.514-3.922,4.627,4.627,0,0,0-.54-2.4,4.674,4.674,0,0,0-1.613-1.74,4.577,4.577,0,0,0-2.334-.727,4.723,4.723,0,0,0-1.809.26,4.654,4.654,0,0,0-1.582.933,4.566,4.566,0,0,0-1.1,1.479,4.636,4.636,0,0,0-.439,1.787,4.559,4.559,0,0,0,.29,1.811,4.681,4.681,0,0,0,.971,1.566,4.581,4.581,0,0,0,1.488,1.068,4.671,4.671,0,0,0,1.77.411,4.537,4.537,0,0,0,2.381-.521Z" transform="translate(-187.083 -798.23)"/>
</svg>
