<svg xmlns="http://www.w3.org/2000/svg" width="14" height="14" viewBox="0 0 14 14">
  <path id="_0xff85" data-name="0xff85" d="M3.7-12.75H-4.7a2.717,2.717,0,0,0-1.4.378A2.824,2.824,0,0,0-7.122-11.35,2.717,2.717,0,0,0-7.5-9.95v8.4a2.717,2.717,0,0,0,.378,1.4A2.824,2.824,0,0,0-6.1.872a2.717,2.717,0,0,0,1.4.378H3.7A2.717,2.717,0,0,0,5.1.872,2.824,2.824,0,0,0,6.122-.15,2.717,2.717,0,0,0,6.5-1.55v-8.4a2.717,2.717,0,0,0-.378-1.4A2.824,2.824,0,0,0,5.1-12.372,2.717,2.717,0,0,0,3.7-12.75ZM5.562-1.55a1.8,1.8,0,0,1-.252.931A1.894,1.894,0,0,1,4.631.06,1.8,1.8,0,0,1,3.7.312H-4.7A1.8,1.8,0,0,1-5.631.06,1.894,1.894,0,0,1-6.31-.619a1.8,1.8,0,0,1-.252-.931v-8.4a1.8,1.8,0,0,1,.252-.931,1.894,1.894,0,0,1,.679-.679,1.8,1.8,0,0,1,.931-.252H3.7a1.8,1.8,0,0,1,.931.252,1.894,1.894,0,0,1,.679.679,1.8,1.8,0,0,1,.252.931Zm-2-2.8a.233.233,0,0,1,.042.2.3.3,0,0,1-.14.175L3.42-3.93a.386.386,0,0,1-.231.063A.239.239,0,0,1,3-3.972L-.458-7.29-3.9-3.972q0,.028-.042.049A.236.236,0,0,0-4-3.888a.253.253,0,0,1-.2.049.269.269,0,0,1-.175-.133q-.028,0-.049-.042a.236.236,0,0,0-.035-.056.253.253,0,0,1-.049-.2.269.269,0,0,1,.133-.175L-.64-8.13a.386.386,0,0,1,.231-.063.239.239,0,0,1,.189.105Z" transform="translate(7.5 12.75)"/>
</svg>
