<svg xmlns="http://www.w3.org/2000/svg" width="12.882" height="12.867" viewBox="0 0 12.882 12.867">
  <path id="_0xe8e0" data-name="0xe8e0" d="M-.084-11.34A6.221,6.221,0,0,1,4.48-9.52,6.188,6.188,0,0,1,6.426-5.012,6.194,6.194,0,0,1,4.606-.434,6.212,6.212,0,0,1,.084,1.526,6.194,6.194,0,0,1-4.494-.294a6.212,6.212,0,0,1-1.96-4.522A6.171,6.171,0,0,1-4.62-9.394,6.209,6.209,0,0,1-.084-11.34ZM-.112-.98a.928.928,0,0,0,.686-.266A.894.894,0,0,0,.84-1.9.843.843,0,0,0,.6-2.59a.928.928,0,0,0-.686-.266H-.112A.92.92,0,0,0-.77-2.6a.946.946,0,0,0-.294.644A.928.928,0,0,0-.8-1.274,1,1,0,0,0-.14-.98ZM2.212-5.572a1.749,1.749,0,0,0,.364-1.092,1.865,1.865,0,0,0-.742-1.624A3.165,3.165,0,0,0-.056-8.82a2.63,2.63,0,0,0-1.456.364A2.322,2.322,0,0,0-2.52-6.412v.056H-.98v-.056a1.524,1.524,0,0,1,.224-.756A.856.856,0,0,1,.014-7.5a.771.771,0,0,1,.714.28.964.964,0,0,1,.224.616.983.983,0,0,1-.224.56,1,1,0,0,1-.28.28l-.308.21q-.14.1-.28.21l-.294.238a1.424,1.424,0,0,0-.238.238A2.372,2.372,0,0,0-.924-3.78v.112H.588v-.056a1.645,1.645,0,0,1,.056-.392.987.987,0,0,1,.392-.5l.392-.252A3.51,3.51,0,0,0,2.212-5.572Z" transform="translate(6.455 11.34)"/>
</svg>
