<svg xmlns="http://www.w3.org/2000/svg" width="14" height="15.68" viewBox="0 0 14 15.68">
  <path id="_0xffb3" data-name="0xffb3" d="M10.512-16.107a.951.951,0,0,0-.128-.1.484.484,0,0,0-.144-.016H9.523l.207-.607a.422.422,0,0,0-.024-.311.36.36,0,0,0-.215-.2.227.227,0,0,0-.128-.032.559.559,0,0,0-.175.032.475.475,0,0,0-.207.224L8.087-14.59l-.718-2.315a.338.338,0,0,0-.191-.224.424.424,0,0,0-.3-.016l-.1.048a.357.357,0,0,0-.16.192L6.3-15.82,5.917-14.59l-.909-2.523a.386.386,0,0,0-.207-.224.227.227,0,0,0-.128-.032.552.552,0,0,0-.16.024.3.3,0,0,0-.128.072.557.557,0,0,0-.1.144.368.368,0,0,0-.048.144.561.561,0,0,0,.016.16l.223.591H3.763a.525.525,0,0,0-.16.032.387.387,0,0,0-.128.1.477.477,0,0,0-.112.3.361.361,0,0,0,.112.263.286.286,0,0,0,.136.1.455.455,0,0,0,.152.032h.989l.8,2.235a.462.462,0,0,0,.191.24.433.433,0,0,0,.3.016l.112-.048a.545.545,0,0,0,.144-.208l.686-2.235.686,2.235a.358.358,0,0,0,.207.232.369.369,0,0,0,.287.024l.112-.048a.545.545,0,0,0,.144-.208l.8-2.235h1.005a.525.525,0,0,0,.16-.032.387.387,0,0,0,.128-.1.379.379,0,0,0,.112-.279A.379.379,0,0,0,10.512-16.107ZM7.018-7.868H7A6.471,6.471,0,0,1,4.593-8.986,15.8,15.8,0,0,1,2.854-10.2,6.526,6.526,0,0,1,.8-13.121,12.563,12.563,0,0,1,.062-16.6a18.6,18.6,0,0,1,.112-4.152A8.626,8.626,0,0,0,3.3-21.408,15.475,15.475,0,0,0,5.789-22.7,12.688,12.688,0,0,0,7-23.548l.016.016q.574.447,1.228.862a14.673,14.673,0,0,0,2.473,1.261,8.592,8.592,0,0,0,3.111.655,19.2,19.2,0,0,1,.1,4.136,12.551,12.551,0,0,1-.734,3.5,6.629,6.629,0,0,1-.822,1.6A6.519,6.519,0,0,1,11.15-10.2,15.8,15.8,0,0,1,9.411-8.986,6.517,6.517,0,0,1,7.018-7.868ZM7-22.462a16.489,16.489,0,0,1-2.537,1.469A11.082,11.082,0,0,1,.923-19.939a18.091,18.091,0,0,0-.016,3.305A12.118,12.118,0,0,0,1.593-13.4a5.93,5.93,0,0,0,1.835,2.595q.862.655,1.691,1.166A7.093,7.093,0,0,0,7-8.7,7.883,7.883,0,0,0,8.869-9.64a14.431,14.431,0,0,0,1.691-1.166,5.983,5.983,0,0,0,1.851-2.587,12.268,12.268,0,0,0,.686-3.241,20.129,20.129,0,0,0-.016-3.305,11.082,11.082,0,0,1-3.542-1.054,16.145,16.145,0,0,1-2.553-1.469Z" transform="translate(0.005 23.548)" fill="#101010"/>
</svg>
