<svg xmlns="http://www.w3.org/2000/svg" width="9.168" height="12" viewBox="0 0 9.168 12">
  <path id="_0xff17" data-name="0xff17" d="M3.72-5.76H3.288V-6.912A3.354,3.354,0,0,0,2.85-8.55,3.235,3.235,0,0,0,1.7-9.738a2.947,2.947,0,0,0-1.56-.438,2.918,2.918,0,0,0-1.56.444,3.317,3.317,0,0,0-1.152,1.2,3.373,3.373,0,0,0-.444,1.656v1.14H-3.72a.838.838,0,0,0-.618.246.838.838,0,0,0-.246.618V.972a.824.824,0,0,0,.246.606.838.838,0,0,0,.618.246H3.72a.838.838,0,0,0,.618-.246A.824.824,0,0,0,4.584.972v-5.88a.824.824,0,0,0-.246-.606A.838.838,0,0,0,3.72-5.76ZM.456-2.556v.888H-.168v-.888A.761.761,0,0,1-.5-2.826.7.7,0,0,1-.636-3.24a.694.694,0,0,1,.228-.534.786.786,0,0,1,.552-.21.753.753,0,0,1,.546.216.708.708,0,0,1,.222.528.722.722,0,0,1-.126.414A.724.724,0,0,1,.456-2.556Zm1.488-3.2H-1.668V-6.876a1.943,1.943,0,0,1,.24-.96,1.807,1.807,0,0,1,.66-.684,1.741,1.741,0,0,1,.912-.252,1.68,1.68,0,0,1,.906.258,1.951,1.951,0,0,1,.666.7,1.954,1.954,0,0,1,.264.942V-5.76Z" transform="translate(4.584 10.176)"/>
</svg>
