<svg xmlns="http://www.w3.org/2000/svg" width="12" height="12" viewBox="0 0 12 12">
  <path id="_0xff89" data-name="0xff89" d="M1.092-9.108V-.384H0V-9.108Zm1.092,0H9.816V-10.2H1.092v1.092ZM1.092-10.2H0v1.092H1.092ZM11.46.708V.168h-.552V-.384h-.54v-.54H9.816v-.552h-.54v-.54H8.724v-.552h-.54v-.54H7.632V-3.66h-.54V-4.2h-.54v-.552H6v-.54H5.46v-.54H4.908v-.552h-.54v-.54H3.816v-.552h-.54v-.54H2.724v-.552h-.54v-.54H1.092v1.092h.54v.54h.552v.552h.54v.54h.552v.552h.54v.54h.552v.54h.54V-4.2H5.46v.54H6v.552h.552v.54h.54v.552h.54v.54h.552v.552h.54v.54h.552V.168h.54v.54h.552V1.26h.54V1.8H12V.708Z" transform="translate(0 10.2)"/>
</svg>
