<svg xmlns="http://www.w3.org/2000/svg" width="15" height="12.534" viewBox="0 0 15 12.534">
  <path id="_0xff59" data-name="0xff59" d="M0-5.928V-7.773a1.373,1.373,0,0,1,.39-.9,1.113,1.113,0,0,1,.87-.36H5.31a12.161,12.161,0,0,0,4.08-.975,10.739,10.739,0,0,0,3.435-2.28,1.276,1.276,0,0,1,.885.39,1.212,1.212,0,0,1,.345.87v2.985a1.269,1.269,0,0,1,.675.45,1.272,1.272,0,0,1,.27.75,1.323,1.323,0,0,1-.285.765,1.143,1.143,0,0,1-.66.4v3.015a1.2,1.2,0,0,1-.39.885,1.274,1.274,0,0,1-.84.36A12.039,12.039,0,0,0,6.09-4.578a1.644,1.644,0,0,0-.795,1.9A3.05,3.05,0,0,0,6.45-.543a1.7,1.7,0,0,1-1.44.78,1.979,1.979,0,0,1-1.575-.45q-.24-.675-.375-1.14a10.084,10.084,0,0,1-.24-1.065,6.782,6.782,0,0,1-.1-1.17,3.809,3.809,0,0,1,.15-1.08H1.26a1.342,1.342,0,0,1-.9-.4A1.124,1.124,0,0,1,0-5.928Zm6.57.15a14.268,14.268,0,0,1,6.285,2.745v-7.62A13.776,13.776,0,0,1,6.57-7.923Z" transform="translate(0.001 12.288)" fill="#1f1f1f"/>
</svg>
