<svg xmlns="http://www.w3.org/2000/svg" width="14" height="11.2" viewBox="0 0 14 11.2">
  <path id="_0xe8d2" data-name="0xe8d2" d="M7-7.8a2.01,2.01,0,0,1,1.5.616A2.047,2.047,0,0,1,9.1-5.7a2.023,2.023,0,0,1-.616,1.484A2.023,2.023,0,0,1,7-3.6a2.023,2.023,0,0,1-1.484-.616A2.023,2.023,0,0,1,4.9-5.7a2.023,2.023,0,0,1,.616-1.484A2.023,2.023,0,0,1,7-7.8Zm5.6-2.1a1.352,1.352,0,0,1,.994.406A1.352,1.352,0,0,1,14-8.5v6.3a1.366,1.366,0,0,1-.406.98A1.329,1.329,0,0,1,12.6-.8H1.4a1.343,1.343,0,0,1-.98-.42A1.343,1.343,0,0,1,0-2.2V-8.5a1.329,1.329,0,0,1,.42-.994A1.366,1.366,0,0,1,1.4-9.9H3.08a.579.579,0,0,0,.56-.42l.42-1.288A.545.545,0,0,1,4.62-12H9.38a.545.545,0,0,1,.56.392l.42,1.288a.579.579,0,0,0,.56.42ZM7-2.2A3.374,3.374,0,0,0,9.478-3.222,3.374,3.374,0,0,0,10.5-5.7,3.374,3.374,0,0,0,9.478-8.178,3.374,3.374,0,0,0,7-9.2,3.374,3.374,0,0,0,4.522-8.178,3.374,3.374,0,0,0,3.5-5.7,3.374,3.374,0,0,0,4.522-3.222,3.374,3.374,0,0,0,7-2.2Zm5.124-5.32a.439.439,0,0,0,.336-.154.506.506,0,0,0,.14-.35.458.458,0,0,0-.14-.336.458.458,0,0,0-.336-.14q-.5,0-.5.476a.469.469,0,0,0,.154.364A.506.506,0,0,0,12.124-7.52Z" transform="translate(0 12)"/>
</svg>
