<svg xmlns="http://www.w3.org/2000/svg" width="37.079" height="14.791" viewBox="0 0 37.079 14.791">
  <g id="icon_Naverpay_활성" transform="translate(-6.5 -22.5)">
    <path id="패스_" data-name="패스 " d="M308.736,624.477v13.791h14.093V624.477Zm10.569,10.052h-2.4l-2.273-3.268v3.268h-2.37v-6.313h2.4l2.273,3.268v-3.268h2.369Z" transform="translate(-301.736 -601.478)" fill="#00c73c" stroke="rgba(0,0,0,0)" stroke-width="1"/>
    <path id="패스_2" data-name="패스 " d="M16935.582,11588.012l.8-2.043-2.225-6.065h1.172l1.621,4.777h.043l1.607-4.777h1.141l-3.174,8.45Zm-6.676-2.488a1.528,1.528,0,0,1-.539-1.239v-.292a1.613,1.613,0,0,1,.525-1.247,2.47,2.47,0,0,1,1.7-.481h1.551v-.349a1.2,1.2,0,0,0-.3-.893,1.336,1.336,0,0,0-.963-.29,2.461,2.461,0,0,0-.934.165,5.272,5.272,0,0,0-.822.437l-.535-.785a5.154,5.154,0,0,1,1.006-.531,3.426,3.426,0,0,1,1.291-.222,3.286,3.286,0,0,1,.939.123,2.075,2.075,0,0,1,.732.372,1.746,1.746,0,0,1,.482.6,1.841,1.841,0,0,1,.172.8v4.189h-1.041v-.723h-.008a1.16,1.16,0,0,1-.24.3,1.781,1.781,0,0,1-.328.234,2.318,2.318,0,0,1-.531.2,2.985,2.985,0,0,1-.691.07A2.262,2.262,0,0,1,16928.906,11585.523Zm.795-2.121a.841.841,0,0,0-.271.666v.151a.7.7,0,0,0,.311.634,1.364,1.364,0,0,0,.75.2,2.387,2.387,0,0,0,.7-.091,1.837,1.837,0,0,0,.543-.279.989.989,0,0,0,.318-.378,1.416,1.416,0,0,0,.094-.552v-.59h-1.531A1.375,1.375,0,0,0,16929.7,11583.4Zm-7.7,2.481V11578h2.875a3.8,3.8,0,0,1,1.182.167,2.382,2.382,0,0,1,.832.47,1.868,1.868,0,0,1,.486.718,2.363,2.363,0,0,1,.164.9v.228a2.371,2.371,0,0,1-.172.905,2.2,2.2,0,0,1-.508.737,2.437,2.437,0,0,1-.826.5,3.327,3.327,0,0,1-1.158.187h-1.77v3.073Zm1.105-4.013h1.586q1.74,0,1.742-1.41v-.2a1.175,1.175,0,0,0-.42-1,1.927,1.927,0,0,0-1.2-.323h-1.709Z" transform="translate(-16896.881 -11552.047)" fill="#4d4d4d" stroke="rgba(0,0,0,0)" stroke-width="1"/>
  </g>
</svg>
