<svg xmlns="http://www.w3.org/2000/svg" width="16.704" height="16" viewBox="0 0 16.704 16">
  <path id="_0xff93" data-name="0xff93" d="M7.648-8.736H9.04v5.568H7.648L5.712-5.456a.767.767,0,0,1-.144-.5.732.732,0,0,1,.208-.48.537.537,0,0,1,.472-.168.874.874,0,0,1,.5.24l.9,1.04ZM2.64-13.6a2.6,2.6,0,0,0-1.328.352,2.591,2.591,0,0,0-.96.96A2.6,2.6,0,0,0,0-10.96a2.485,2.485,0,0,0,.144.816,2.607,2.607,0,0,0,.336.72l3.7-3.7A2.771,2.771,0,0,0,2.64-13.6Zm11.408,0a2.442,2.442,0,0,0-.8.144,3.413,3.413,0,0,0-.72.336l3.68,3.7a2.311,2.311,0,0,0,.5-1.536,2.559,2.559,0,0,0-.36-1.328,2.652,2.652,0,0,0-.968-.96A2.6,2.6,0,0,0,14.048-13.6ZM16-5.456a7.813,7.813,0,0,1-.608,3.04,8.035,8.035,0,0,1-1.656,2.5,7.559,7.559,0,0,1-2.424,1.688,7.3,7.3,0,0,1-2.96.624,7.3,7.3,0,0,1-2.96-.624A7.559,7.559,0,0,1,2.968.088a8.035,8.035,0,0,1-1.656-2.5A7.813,7.813,0,0,1,.7-5.456,7.813,7.813,0,0,1,1.312-8.5,7.963,7.963,0,0,1,2.96-10.968,7.538,7.538,0,0,1,5.392-12.64a7.464,7.464,0,0,1,2.96-.608,7.464,7.464,0,0,1,2.96.608,7.538,7.538,0,0,1,2.432,1.672A7.963,7.963,0,0,1,15.392-8.5,7.813,7.813,0,0,1,16-5.456Zm-1.456,0A6.417,6.417,0,0,0,13.7-8.688a6.151,6.151,0,0,0-2.224-2.3,5.956,5.956,0,0,0-3.12-.864,5.956,5.956,0,0,0-3.12.864,6.151,6.151,0,0,0-2.224,2.3A6.417,6.417,0,0,0,2.16-5.456a6.417,6.417,0,0,0,.848,3.232A6.186,6.186,0,0,0,5.232.064a5.875,5.875,0,0,0,3.12.88,5.875,5.875,0,0,0,3.12-.88A6.186,6.186,0,0,0,13.7-2.224,6.417,6.417,0,0,0,14.544-5.456Z" transform="translate(0 13.6)"/>
</svg>
