<svg xmlns="http://www.w3.org/2000/svg" width="13.125" height="13.118" viewBox="0 0 13.125 13.118">
  <path id="_0xec0c" data-name="0xec0c" d="M0-4.9A6.445,6.445,0,0,1,.518-7.448a6.406,6.406,0,0,1,1.4-2.086A6.939,6.939,0,0,1,4-10.934a6.109,6.109,0,0,1,2.562-.518,6.445,6.445,0,0,1,2.548.518,6.406,6.406,0,0,1,2.086,1.4,6.939,6.939,0,0,1,1.4,2.086,6.137,6.137,0,0,1,.525,2.541A6.551,6.551,0,0,1,12.6-2.352a6.57,6.57,0,0,1-1.4,2.1,6.611,6.611,0,0,1-2.086,1.4,6.379,6.379,0,0,1-2.548.518A6.479,6.479,0,0,1,4,1.148a6.406,6.406,0,0,1-2.086-1.4,6.891,6.891,0,0,1-1.4-2.1A6.134,6.134,0,0,1,0-4.9Zm1.638,0A4.863,4.863,0,0,0,2.03-2.982,4.77,4.77,0,0,0,3.08-1.414,5.308,5.308,0,0,0,4.648-.364,4.5,4.5,0,0,0,6.566.028a5.031,5.031,0,0,0,1.9-.392,4.872,4.872,0,0,0,1.568-1.05,4.872,4.872,0,0,0,1.05-1.568A5.065,5.065,0,0,0,11.48-4.9a4.824,4.824,0,0,0-.658-2.464A4.855,4.855,0,0,0,9.03-9.156a4.824,4.824,0,0,0-2.464-.658,4.9,4.9,0,0,0-2.478.658A4.721,4.721,0,0,0,2.3-7.364,5.015,5.015,0,0,0,1.638-4.9ZM4.662-7.364,5.1-5.95a2.383,2.383,0,0,1,1.309-.406q.679,0,.679.322a.249.249,0,0,1-.028.112.324.324,0,0,1-.042.07l-.084.07a.7.7,0,0,1-.1.07l-.784.406a.866.866,0,0,0-.392.35,1.272,1.272,0,0,0-.084.518v.518H7.21v-.364a.121.121,0,0,1,.042-.084.556.556,0,0,1,.084-.07.875.875,0,0,1,.154-.07,1.927,1.927,0,0,0,.238-.112l.266-.154a1.263,1.263,0,0,0,.252-.182,1.745,1.745,0,0,0,.406-.518,1.868,1.868,0,0,0,.154-.77,1.445,1.445,0,0,0-.588-1.162,2.283,2.283,0,0,0-1.484-.476A4.114,4.114,0,0,0,4.662-7.364Zm.672,4.676A.831.831,0,0,0,5.628-2a1.175,1.175,0,0,0,.763.238A1.175,1.175,0,0,0,7.154-2a.8.8,0,0,0,.28-.686.913.913,0,0,0-.28-.686A1.121,1.121,0,0,0,6.4-3.619a1.085,1.085,0,0,0-.77.245A.919.919,0,0,0,5.334-2.688Z" transform="translate(0 11.452)" fill="#101010"/>
</svg>
