<svg xmlns="http://www.w3.org/2000/svg" width="9" height="9" viewBox="0 0 9 9">
  <g id="review_line" transform="translate(-164.001 -3)">
    <g id="패스" transform="translate(164.001 3)" fill="none">
      <path d="M2.954,7.5H1a1,1,0,0,1-1-1V1A1,1,0,0,1,1,0H8A1,1,0,0,1,9,1V6.5a1,1,0,0,1-1,1H6.046L4.5,9Z" stroke="none"/>
      <path d="M 4.5 7.885689258575439 L 5.722249984741211 6.700600147247314 L 8.000100135803223 6.700600147247314 C 8.110329627990723 6.700600147247314 8.199999809265137 6.610519886016846 8.199999809265137 6.499800205230713 L 8.199999809265137 0.9998999834060669 C 8.199999809265137 0.8896700143814087 8.110329627990723 0.800000011920929 8.000100135803223 0.800000011920929 L 0.9998999834060669 0.800000011920929 C 0.8896700143814087 0.800000011920929 0.800000011920929 0.8896700143814087 0.800000011920929 0.9998999834060669 L 0.800000011920929 6.499800205230713 C 0.800000011920929 6.610519886016846 0.8896700143814087 6.700600147247314 0.9998999834060669 6.700600147247314 L 3.277750015258789 6.700600147247314 L 4.5 7.885689258575439 M 4.5 9 L 2.953589916229248 7.50059986114502 L 0.9998999834060669 7.50059986114502 C 0.447299987077713 7.50059986114502 0 7.0524001121521 0 6.499800205230713 L 0 0.9998999834060669 C 0 0.447299987077713 0.447299987077713 0 0.9998999834060669 0 L 8.000100135803223 0 C 8.552700042724609 0 9 0.447299987077713 9 0.9998999834060669 L 9 6.499800205230713 C 9 7.0524001121521 8.552700042724609 7.50059986114502 8.000100135803223 7.50059986114502 L 6.046410083770752 7.50059986114502 L 4.5 9 Z" stroke="none" fill="#000"/>
    </g>
    <path id="패스-2" data-name="패스" d="M7320.4,7481.718a.4.4,0,0,1,0-.808h4.041a.4.4,0,0,1,0,.808Zm0-1.91a.4.4,0,0,1,0-.809h4.041a.4.4,0,0,1,0,.809Z" transform="translate(-7153.98 -7473.649)"/>
  </g>
</svg>
