<svg xmlns="http://www.w3.org/2000/svg" width="15" height="14.992" viewBox="0 0 15 14.992">
  <path id="_0xff65" data-name="0xff65" d="M-.48-7.239l2.5,2.5-.855.84L-1.649-6.714v-4.558H-.48Zm6.971.285A7.485,7.485,0,0,1,5.907-4.03,7.424,7.424,0,0,1,4.3-1.646a7.424,7.424,0,0,1-2.384,1.6A7.485,7.485,0,0,1-1,.542,7.485,7.485,0,0,1-3.928-.042a7.424,7.424,0,0,1-2.384-1.6,7.424,7.424,0,0,1-1.6-2.384,7.583,7.583,0,0,1-.592-2.924,7.389,7.389,0,0,1,.577-2.924,7.424,7.424,0,0,1,1.6-2.384,7.38,7.38,0,0,1,2.4-1.6,7.466,7.466,0,0,1,2.916-.585,7.466,7.466,0,0,1,2.916.585,7.558,7.558,0,0,1,2.376,1.6A7.365,7.365,0,0,1,5.892-9.877,7.323,7.323,0,0,1,6.491-6.954Zm-1.169,0a6.238,6.238,0,0,0-.87-3.208,6.467,6.467,0,0,0-2.294-2.294,6.238,6.238,0,0,0-3.208-.87,6.238,6.238,0,0,0-3.208.87,6.346,6.346,0,0,0-2.279,2.294,6.238,6.238,0,0,0-.87,3.208,6.238,6.238,0,0,0,.87,3.208A6.346,6.346,0,0,0-4.258-1.452a6.238,6.238,0,0,0,3.208.87,6.238,6.238,0,0,0,3.208-.87A6.467,6.467,0,0,0,4.452-3.745,6.238,6.238,0,0,0,5.322-6.954Z" transform="translate(8.509 14.45)"/>
</svg>
