<svg xmlns="http://www.w3.org/2000/svg" width="14" height="14" viewBox="0 0 14 14">
  <path id="_0xff84" data-name="0xff84" d="M3.7-12.75H-4.7a2.717,2.717,0,0,0-1.4.378A2.824,2.824,0,0,0-7.122-11.35,2.717,2.717,0,0,0-7.5-9.95v8.4a2.717,2.717,0,0,0,.378,1.4A2.824,2.824,0,0,0-6.1.872a2.717,2.717,0,0,0,1.4.378H3.7A2.717,2.717,0,0,0,5.1.872,2.824,2.824,0,0,0,6.122-.15,2.717,2.717,0,0,0,6.5-1.55v-8.4a2.717,2.717,0,0,0-.378-1.4A2.824,2.824,0,0,0,5.1-12.372,2.717,2.717,0,0,0,3.7-12.75ZM5.562-1.55a1.8,1.8,0,0,1-.252.931A1.894,1.894,0,0,1,4.631.06,1.8,1.8,0,0,1,3.7.312H-4.7A1.8,1.8,0,0,1-5.631.06,1.894,1.894,0,0,1-6.31-.619a1.8,1.8,0,0,1-.252-.931v-8.4a1.8,1.8,0,0,1,.252-.931,1.894,1.894,0,0,1,.679-.679,1.8,1.8,0,0,1,.931-.252H3.7a1.8,1.8,0,0,1,.931.252,1.894,1.894,0,0,1,.679.679,1.8,1.8,0,0,1,.252.931Zm-2-5.7a.233.233,0,0,1,.042.2.3.3,0,0,1-.14.175L-.262-3.188A.4.4,0,0,1-.5-3.125a.208.208,0,0,1-.182-.1l-3.7-3.64q-.028,0-.056-.042l-.028-.056a.242.242,0,0,1-.049-.2.268.268,0,0,1,.133-.168l.056-.056a.349.349,0,0,1,.231-.056.26.26,0,0,1,.189.112l3.444,3.3L3-7.332q0-.042.056-.07L3.1-7.43a.221.221,0,0,1,.2-.042.3.3,0,0,1,.168.14.1.1,0,0,1,.07.028A.081.081,0,0,1,3.56-7.248Z" transform="translate(7.5 12.75)"/>
</svg>
