<svg xmlns="http://www.w3.org/2000/svg" width="14.1" height="12.3" viewBox="0 0 14.1 12.3">
  <path id="_0xe952" data-name="0xe952" d="M7.98-11.04a5.877,5.877,0,0,1,4.335,1.8A5.952,5.952,0,0,1,14.1-4.89,5.952,5.952,0,0,1,12.315-.54,5.877,5.877,0,0,1,7.98,1.26,5.883,5.883,0,0,1,4.2-.06L5.25-1.17a4.6,4.6,0,0,0,2.73.9,4.419,4.419,0,0,0,3.24-1.35,4.454,4.454,0,0,0,1.35-3.27,4.454,4.454,0,0,0-1.35-3.27A4.4,4.4,0,0,0,8-9.51a4.478,4.478,0,0,0-3.225,1.3A4.342,4.342,0,0,0,3.39-5.04H5.52L2.76-1.98,0-5.04H1.86A5.815,5.815,0,0,1,3.69-9.285,5.933,5.933,0,0,1,7.98-11.04Z" transform="translate(0 11.04)"/>
</svg>
