<svg xmlns="http://www.w3.org/2000/svg" width="13" height="13" viewBox="0 0 13 13">
  <path id="_0xee61" data-name="0xee61" d="M13-.292a6.367,6.367,0,0,1-.871,3.263A6.454,6.454,0,0,1,9.763,5.337,6.367,6.367,0,0,1,6.5,6.208a6.367,6.367,0,0,1-3.263-.871A6.454,6.454,0,0,1,.871,2.971,6.367,6.367,0,0,1,0-.292,6.367,6.367,0,0,1,.871-3.555,6.454,6.454,0,0,1,3.237-5.921,6.367,6.367,0,0,1,6.5-6.792a6.367,6.367,0,0,1,3.263.871,6.454,6.454,0,0,1,2.366,2.366A6.367,6.367,0,0,1,13-.292ZM5.889,2.724,8.918-.292,5.889-3.308l-.923.923L7.059-.292,4.966,1.8Z" transform="translate(0 6.792)"/>
</svg>
