<svg xmlns="http://www.w3.org/2000/svg" width="14.592" height="12" viewBox="0 0 14.592 12">
  <path id="_0xff91" data-name="0xff91" d="M5.6-4.464a3.5,3.5,0,0,0,1.344-.252A2.4,2.4,0,0,0,7.914-5.4a1.478,1.478,0,0,0,.354-.96,1.478,1.478,0,0,0-.354-.96A2.4,2.4,0,0,0,6.948-8,3.5,3.5,0,0,0,5.6-8.256,3.5,3.5,0,0,0,4.26-8a2.372,2.372,0,0,0-.966.69,1.494,1.494,0,0,0-.354.96,1.47,1.47,0,0,0,.354.954,2.4,2.4,0,0,0,.96.684A3.484,3.484,0,0,0,5.6-4.464Zm0-3a2.835,2.835,0,0,1,.936.15,1.772,1.772,0,0,1,.684.4.768.768,0,0,1,.252.552.768.768,0,0,1-.252.552,1.772,1.772,0,0,1-.684.4,2.835,2.835,0,0,1-.936.15,2.835,2.835,0,0,1-.936-.15,1.772,1.772,0,0,1-.684-.4.768.768,0,0,1-.252-.552.768.768,0,0,1,.252-.552,1.772,1.772,0,0,1,.684-.4A2.835,2.835,0,0,1,5.6-7.464Zm8.988,4.416v-.264H11.208v-3.2H11.2a3,3,0,0,0-.828-1.86,5.1,5.1,0,0,0-2-1.32,7.486,7.486,0,0,0-2.76-.5,7.486,7.486,0,0,0-2.76.5,5.1,5.1,0,0,0-2,1.32A2.977,2.977,0,0,0,0-6.516v4.644A2.977,2.977,0,0,0,.84-.012a5.17,5.17,0,0,0,2,1.308,7.486,7.486,0,0,0,2.76.5h8.988ZM5.6-9.408a6.828,6.828,0,0,1,2.424.42A4.252,4.252,0,0,1,9.756-7.9a2.215,2.215,0,0,1,.66,1.536,2.215,2.215,0,0,1-.66,1.536,4.354,4.354,0,0,1-1.728,1.1A6.828,6.828,0,0,1,5.6-3.3,6.828,6.828,0,0,1,3.18-3.72,4.426,4.426,0,0,1,1.452-4.812,2.257,2.257,0,0,1,.792-6.36,2.215,2.215,0,0,1,1.452-7.9,4.252,4.252,0,0,1,3.18-8.988,6.828,6.828,0,0,1,5.6-9.408Zm4.812,5v1.092H9A5.055,5.055,0,0,0,10.416-4.4ZM13.8,1.008H12.348V-.468h-.792V1.008H9.984V-1.584H9.192V1.008H7.608V-.468H6.816V1.008H5.6A6.828,6.828,0,0,1,3.18.588,4.252,4.252,0,0,1,1.452-.5,2.215,2.215,0,0,1,.792-2.04V-4.4A5.172,5.172,0,0,0,2.808-3.036a7.489,7.489,0,0,0,2.8.516h8.2Z" transform="translate(0 10.2)"/>
</svg>
