<svg xmlns="http://www.w3.org/2000/svg" width="18.48" height="18.48" viewBox="0 0 18.48 18.48">
  <path id="_0xe918" data-name="0xe918" d="M16.72-7.7a3.163,3.163,0,0,0,1.76,2.684,10.245,10.245,0,0,1-.748,1.8,3.105,3.105,0,0,0-2.992.968A3.031,3.031,0,0,0,13.992.748a17.5,17.5,0,0,1-1.848.792,3.239,3.239,0,0,0-5.808,0A17.5,17.5,0,0,1,4.488.748a2.951,2.951,0,0,0-.748-2.97,2.942,2.942,0,0,0-2.992-.77A14.174,14.174,0,0,1,0-4.8,3.368,3.368,0,0,0,1.8-7.7,3.255,3.255,0,0,0,0-10.428a14.174,14.174,0,0,1,.748-1.8A3.03,3.03,0,0,0,3.74-13.2a3,3,0,0,0,.748-2.992,9.766,9.766,0,0,1,1.848-.748,3.183,3.183,0,0,0,2.9,1.76,3.183,3.183,0,0,0,2.9-1.76,9.767,9.767,0,0,1,1.848.748A3.031,3.031,0,0,0,14.74-13.2a3.105,3.105,0,0,0,2.992.968,10.245,10.245,0,0,1,.748,1.8A3.19,3.19,0,0,0,16.72-7.7Zm-7.48,4a3.863,3.863,0,0,0,2.838-1.166A3.863,3.863,0,0,0,13.244-7.7a3.936,3.936,0,0,0-1.166-2.86A3.827,3.827,0,0,0,9.24-11.748,3.827,3.827,0,0,0,6.4-10.56,3.936,3.936,0,0,0,5.236-7.7,3.863,3.863,0,0,0,6.4-4.862,3.863,3.863,0,0,0,9.24-3.7Z" transform="translate(0 16.94)"/>
</svg>
