<svg xmlns="http://www.w3.org/2000/svg" width="9" height="9.74" viewBox="0 0 9 9.74">
  <path id="double_left" d="M11006.132,9288.817l-4.419-4.44a.362.362,0,0,1,0-.563l4.419-4.443c.166-.194.346-.194.542,0,.2.167.2.346,0,.541l-4.037,4.193,4.037,4.174c.2.194.2.373,0,.539a.413.413,0,0,1-.282.147A.348.348,0,0,1,11006.132,9288.817Zm-3.758,0-4.419-4.44a.362.362,0,0,1,0-.563l4.419-4.443c.166-.194.346-.194.543,0,.194.167.194.346,0,.541l-4.036,4.193,4.036,4.174c.194.194.194.373,0,.539a.417.417,0,0,1-.283.147A.348.348,0,0,1,11002.374,9288.817Z" transform="translate(-10997.82 -9279.225)" fill="#1f1f1f"/>
</svg>
