<svg xmlns="http://www.w3.org/2000/svg" width="12" height="12.752" viewBox="0 0 12 12.752">
  <path id="_0xff92" data-name="0xff92" d="M1.838-17h-10.5l-.752,4.119a2.3,2.3,0,0,0,.2.944,2.632,2.632,0,0,0,.548.752v5.93a.972.972,0,0,0,.293.714.972.972,0,0,0,.714.293h4.616V-5H-6.9a.972.972,0,0,1-.714-.293.972.972,0,0,1-.293-.714v-4.731a2.293,2.293,0,0,0,.752.115A2.148,2.148,0,0,0-6.088-10.9a2.394,2.394,0,0,0,.81-.733,2.394,2.394,0,0,0,.81.733,2.148,2.148,0,0,0,1.065.274A2.145,2.145,0,0,0-2.332-10.9a2.517,2.517,0,0,0,.8-.727,2.394,2.394,0,0,0,.81.733,2.148,2.148,0,0,0,1.065.274,2.174,2.174,0,0,0,1.129-.306,2.26,2.26,0,0,0,.816-.823,2.209,2.209,0,0,0,.3-1.129Zm-7.5,4.119a1.449,1.449,0,0,1-.2.752,1.541,1.541,0,0,1-.548.548,1.438,1.438,0,0,1-.746.2,1.438,1.438,0,0,1-.746-.2,1.541,1.541,0,0,1-.548-.548,1.449,1.449,0,0,1-.2-.752l.752-3.367h2.244Zm3.749,0a1.449,1.449,0,0,1-.2.752,1.541,1.541,0,0,1-.548.548,1.438,1.438,0,0,1-.746.2,1.438,1.438,0,0,1-.746-.2,1.541,1.541,0,0,1-.548-.548,1.449,1.449,0,0,1-.2-.752v-3.367h3Zm2.257,1.5a1.449,1.449,0,0,1-.752-.2,1.541,1.541,0,0,1-.548-.548,1.449,1.449,0,0,1-.2-.752v-3.367H1.1l.74,3.367a1.449,1.449,0,0,1-.2.752,1.541,1.541,0,0,1-.548.548A1.426,1.426,0,0,1,.346-11.376Zm.408,1.313a2.058,2.058,0,0,0-.765.147A1.73,1.73,0,0,0-.636-9.5a1.611,1.611,0,0,0-.612-.414,2.091,2.091,0,0,0-.778-.147,1.844,1.844,0,0,0-1.237.446A1.72,1.72,0,0,0-3.824-8.3,2.059,2.059,0,0,0-3.531-7.3,5.434,5.434,0,0,0-2.74-6.288q.319.344,1.109,1.1l.242.23q.115.115.344.319l.446.4.383-.37q.242-.242.37-.344l.179-.166q.816-.765,1.148-1.122a5.28,5.28,0,0,0,.8-1.033A2.015,2.015,0,0,0,2.59-8.3a1.726,1.726,0,0,0-.268-.969,1.587,1.587,0,0,0-.663-.587A2.048,2.048,0,0,0,.754-10.063ZM-.33-5.561-.6-5.293a.87.87,0,0,1-.179-.179l-.077-.089q-.752-.689-1.084-1.033a5.994,5.994,0,0,1-.791-.931,1.527,1.527,0,0,1-.306-.816,1.015,1.015,0,0,1,.083-.408.8.8,0,0,1,.223-.306,1,1,0,0,1,.74-.255,1.228,1.228,0,0,1,.867.332l.523.536.523-.536A1.228,1.228,0,0,1,.792-9.31a1.259,1.259,0,0,1,.459.089.916.916,0,0,1,.434.306.85.85,0,0,1,.185.58,1.534,1.534,0,0,1-.325.81,8.455,8.455,0,0,1-.791.931Q.422-6.262-.33-5.561Z" transform="translate(9.41 17)"/>
</svg>
