<svg xmlns="http://www.w3.org/2000/svg" width="11.332" height="11.896" viewBox="0 0 11.332 11.896">
  <path id="_0xec08" data-name="0xec08" d="M-1.437,0a1.16,1.16,0,0,1-.952-.476l-3.06-4.012a1.231,1.231,0,0,1-.2-.884,1.2,1.2,0,0,1,.442-.782,1.08,1.08,0,0,1,.867-.238,1.164,1.164,0,0,1,.8.476L-1.539-3.3l5.032-8.058a1.154,1.154,0,0,1,.731-.51,1.268,1.268,0,0,1,.9.136,1.154,1.154,0,0,1,.51.731,1.268,1.268,0,0,1-.136.9L-.451-.578A1.066,1.066,0,0,1-1.4-.034Z" transform="translate(5.666 11.896)"/>
</svg>
