<svg xmlns="http://www.w3.org/2000/svg" xmlns:xlink="http://www.w3.org/1999/xlink" width="190" height="19.752" viewBox="0 0 190 19.752">
  <defs>
    <clipPath id="clip-path">
      <rect id="사각형_" data-name="사각형 " width="190" height="19.752" transform="translate(0 -0.215)" fill="none"/>
    </clipPath>
  </defs>
  <g id="로고" transform="translate(0 0.215)" clip-path="url(#clip-path)">
    <path id="패스_" data-name="패스 " d="M29.458,20.269a2.5,2.5,0,0,1-1.191-.292,2.285,2.285,0,0,1-.87-.786,1.9,1.9,0,0,1-.31-1.078,1.878,1.878,0,0,1,.31-1.072,2.306,2.306,0,0,1,.87-.783,2.514,2.514,0,0,1,1.191-.291,2.434,2.434,0,0,1,1.171.291,2.408,2.408,0,0,1,.87.783,1.943,1.943,0,0,1,.34,1.072,1.975,1.975,0,0,1-.335,1.074,2.383,2.383,0,0,1-.87.786,2.435,2.435,0,0,1-1.176.3" transform="translate(-1.609 -0.961)" fill="#fff"/>
    <path id="패스_2" data-name="패스 " d="M35.7.5h5.252l5.692,12.623h.241L52.578.5H57.82V19.123H53.7V6.928h-.18L48.177,19.041H45.346L39.994,6.883h-.16v12.24H35.7Z" transform="translate(-2.121 -0.042)" fill="#fff"/>
    <path id="패스_3" data-name="패스 " d="M81.533,9.795a10.108,10.108,0,0,1-1.245,5.129,8.326,8.326,0,0,1-3.421,3.3,11.172,11.172,0,0,1-9.829,0,8.332,8.332,0,0,1-3.411-3.306,10.114,10.114,0,0,1-1.241-5.12,10.133,10.133,0,0,1,1.241-5.129,8.309,8.309,0,0,1,3.411-3.3,11.2,11.2,0,0,1,9.829,0,8.334,8.334,0,0,1,3.421,3.3,10.106,10.106,0,0,1,1.245,5.129m-4.312,0a7.838,7.838,0,0,0-.645-3.342,4.646,4.646,0,0,0-1.83-2.087,5.818,5.818,0,0,0-5.567,0,4.665,4.665,0,0,0-1.826,2.087,7.838,7.838,0,0,0-.645,3.342,7.841,7.841,0,0,0,.645,3.342,4.675,4.675,0,0,0,1.826,2.087,5.818,5.818,0,0,0,5.567,0,4.656,4.656,0,0,0,1.83-2.087,7.841,7.841,0,0,0,.645-3.342" transform="translate(-3.706 -0.026)" fill="#fff"/>
    <path id="패스_4" data-name="패스 " d="M103,.5V19.123H99.315l-9-11.831h-.161V19.123H85.9V.5h3.742l8.943,11.822h.18V.5Z" transform="translate(-5.103 -0.042)" fill="#fff"/>
    <g id="그룹" transform="translate(108.835 1.537)" opacity="0.6">
      <path id="패스_5" data-name="패스 " d="M122.365,9.827a1.875,1.875,0,0,0-.736-1.15A2.552,2.552,0,0,0,120.1,8.26a3.072,3.072,0,0,0-1.177.214,2.059,2.059,0,0,0-.823.577,1.248,1.248,0,0,0-.3.815,1.155,1.155,0,0,0,.451.915,3.466,3.466,0,0,0,1.427.6l1.909.437A5.045,5.045,0,0,1,124.044,13a2.776,2.776,0,0,1,.808,2.062,3.3,3.3,0,0,1-.589,1.929,3.808,3.808,0,0,1-1.691,1.314,7.574,7.574,0,0,1-5.075.058,3.775,3.775,0,0,1-1.649-1.2,3.9,3.9,0,0,1-.755-1.91h2.416a1.765,1.765,0,0,0,.76,1.224,2.989,2.989,0,0,0,1.671.405,3.9,3.9,0,0,0,1.322-.2,2.007,2.007,0,0,0,.878-.573,1.3,1.3,0,0,0,.311-.862A1.2,1.2,0,0,0,122,14.29a3.385,3.385,0,0,0-1.4-.6l-1.862-.413a4.822,4.822,0,0,1-2.452-1.193A2.817,2.817,0,0,1,115.45,10a3.151,3.151,0,0,1,.58-1.871,3.777,3.777,0,0,1,1.629-1.271,6.073,6.073,0,0,1,2.42-.451,5.878,5.878,0,0,1,2.3.42,3.7,3.7,0,0,1,1.567,1.193,3.611,3.611,0,0,1,.681,1.809Z" transform="translate(-115.092 -1.931)" fill="#fff"/>
      <path id="패스_6" data-name="패스 " d="M133.284,18.775A5.543,5.543,0,0,1,130.341,18a5.162,5.162,0,0,1-1.96-2.171,7.181,7.181,0,0,1-.694-3.231,7.239,7.239,0,0,1,.694-3.251,5.16,5.16,0,0,1,1.96-2.175,5.983,5.983,0,0,1,5.877,0,5.122,5.122,0,0,1,1.956,2.175,7.264,7.264,0,0,1,.69,3.251,7.206,7.206,0,0,1-.69,3.231A5.123,5.123,0,0,1,136.218,18a5.523,5.523,0,0,1-2.935.771m.008-1.964a2.787,2.787,0,0,0,1.765-.562,3.358,3.358,0,0,0,1.079-1.52,6.056,6.056,0,0,0,.359-2.135,6.061,6.061,0,0,0-.359-2.136,3.407,3.407,0,0,0-1.079-1.528,2.758,2.758,0,0,0-1.765-.569,2.813,2.813,0,0,0-1.789.569,3.4,3.4,0,0,0-1.088,1.528,6.061,6.061,0,0,0-.357,2.136,6.056,6.056,0,0,0,.357,2.135,3.347,3.347,0,0,0,1.088,1.52,2.842,2.842,0,0,0,1.789.562" transform="translate(-115.84 -1.931)" fill="#fff"/>
      <rect id="사각형_2" data-name="사각형 " width="2.354" height="15.964" transform="translate(25.682 0.639)" fill="#fff"/>
      <path id="패스_7" data-name="패스 " d="M155.9,13.571v-7h2.338V18.544h-2.3V16.471h-.125a3.7,3.7,0,0,1-.784,1.161,3.472,3.472,0,0,1-1.211.787,4.251,4.251,0,0,1-1.583.281,4.01,4.01,0,0,1-2.057-.518,3.492,3.492,0,0,1-1.385-1.536,5.589,5.589,0,0,1-.495-2.46V6.571h2.354V13.9a3.1,3.1,0,0,0,.3,1.407,2.212,2.212,0,0,0,.858.931,2.447,2.447,0,0,0,1.271.327,2.891,2.891,0,0,0,1.341-.335,2.686,2.686,0,0,0,1.06-1.013,3.113,3.113,0,0,0,.412-1.645" transform="translate(-117.065 -1.94)" fill="#fff"/>
      <path id="패스_8" data-name="패스 " d="M168.276,8.268h-6.547V6.389h6.547Zm-4.794-4.747h2.354V14.839a2.105,2.105,0,0,0,.187.986,1.027,1.027,0,0,0,.5.48,1.91,1.91,0,0,0,.749.133c.124,0,.266,0,.424-.008s.313-.013.465-.024c.051-.006.1-.009.148-.012s.091,0,.133,0v2.027a9.362,9.362,0,0,1-1.457.1,4.273,4.273,0,0,1-1.758-.355,2.875,2.875,0,0,1-1.271-1.075,3.152,3.152,0,0,1-.472-1.765Z" transform="translate(-117.863 -1.759)" fill="#fff"/>
      <path id="패스_9" data-name="패스 " d="M172.655,4.438a1.5,1.5,0,0,1-.748-.191,1.459,1.459,0,0,1-.542-.511,1.285,1.285,0,0,1-.2-.693,1.3,1.3,0,0,1,.2-.7,1.442,1.442,0,0,1,.542-.507,1.541,1.541,0,0,1,.748-.186,1.513,1.513,0,0,1,.733.186,1.435,1.435,0,0,1,.542.507,1.3,1.3,0,0,1,.2.7,1.285,1.285,0,0,1-.2.693,1.452,1.452,0,0,1-.542.511,1.477,1.477,0,0,1-.733.191m-1.193,1.84h2.354V18.25h-2.354Z" transform="translate(-118.423 -1.648)" fill="#fff"/>
      <path id="패스_10" data-name="패스 " d="M182.407,18.775A5.544,5.544,0,0,1,179.463,18a5.168,5.168,0,0,1-1.96-2.171,7.181,7.181,0,0,1-.693-3.231,7.239,7.239,0,0,1,.693-3.251,5.167,5.167,0,0,1,1.96-2.175,5.985,5.985,0,0,1,5.878,0A5.134,5.134,0,0,1,187.3,9.351a7.264,7.264,0,0,1,.69,3.251,7.206,7.206,0,0,1-.69,3.231A5.135,5.135,0,0,1,185.341,18a5.528,5.528,0,0,1-2.935.771m.008-1.964a2.787,2.787,0,0,0,1.765-.562,3.36,3.36,0,0,0,1.08-1.52,6.056,6.056,0,0,0,.358-2.135,6.062,6.062,0,0,0-.358-2.136,3.409,3.409,0,0,0-1.08-1.528,2.758,2.758,0,0,0-1.765-.569,2.812,2.812,0,0,0-1.788.569,3.389,3.389,0,0,0-1.088,1.528,6.061,6.061,0,0,0-.358,2.136,6.056,6.056,0,0,0,.358,2.135,3.34,3.34,0,0,0,1.088,1.52,2.841,2.841,0,0,0,1.788.562" transform="translate(-118.758 -1.931)" fill="#fff"/>
      <path id="패스_11" data-name="패스 " d="M193.392,11.432v7.1h-2.354V6.56h2.26V8.517h.149a3.6,3.6,0,0,1,.776-1.122,3.305,3.305,0,0,1,1.18-.733,4.519,4.519,0,0,1,1.576-.257,4.307,4.307,0,0,1,2.151.518,3.473,3.473,0,0,1,1.421,1.531,5.493,5.493,0,0,1,.5,2.463v7.616H198.7V11.207a3.367,3.367,0,0,0-.3-1.485,2.157,2.157,0,0,0-.869-.955,2.65,2.65,0,0,0-1.353-.327,2.854,2.854,0,0,0-1.441.355,2.5,2.5,0,0,0-.983,1.029,3.385,3.385,0,0,0-.358,1.609" transform="translate(-119.604 -1.931)" fill="#fff"/>
    </g>
    <path id="패스_12" data-name="패스 " d="M16.876.5,11.184,13.121h-.24L5.252.5H0V19.123H4.132V6.883h.16L9.643,19.042h2.831L17.817,6.928H18V19.123h4.122V.5Z" transform="translate(0 -0.042)" fill="#fff"/>
  </g>
</svg>
