<svg xmlns="http://www.w3.org/2000/svg" width="42" height="42.478" viewBox="0 0 42 42.478">
  <g id="icon_상품구매" transform="translate(-1064.977 -702)">
    <path id="패스_29507" data-name="패스 29507" d="M785.171,490.454h-24.6a.725.725,0,0,1-.724-.714l.724-23.14v-.022a.724.724,0,0,1,.723-.724h23.153a.724.724,0,0,1,.724.724v.022l.723,23.14A.725.725,0,0,1,785.171,490.454Z" transform="translate(305.853 251.663)" fill="#fff"/>
    <path id="패스_29508" data-name="패스 29508" d="M761.018,466.3v.045l-.723,23.108h24.6l-.723-23.153H761.018m0-1.447h23.153a1.447,1.447,0,0,1,1.447,1.447l.724,23.153a1.447,1.447,0,0,1-1.447,1.447h-24.6a1.448,1.448,0,0,1-1.447-1.447l.724-23.153A1.447,1.447,0,0,1,761.018,464.854Z" transform="translate(306.13 251.939)"/>
    <rect id="사각형_3037" data-name="사각형 3037" width="7.979" transform="translate(1072.326 719.688) rotate(-85.897)" fill="none"/>
    <path id="패스_29509" data-name="패스 29509" d="M771.478,459.854l-.467,6.512H780.9l-.467-6.512Z" transform="translate(302.767 253.322)" fill="none"/>
    <rect id="사각형_3038" data-name="사각형 3038" height="7.979" transform="matrix(0.997, -0.072, 0.072, 0.997, 1084.551, 711.729)" fill="none"/>
    <path id="패스_29510" data-name="패스 29510" d="M769.577,457.854l-.571,7.959h1.451l.467-6.512h8.959l.467,6.512H781.8l-.571-7.959Z" transform="translate(303.321 253.875)"/>
    <path id="패스_29511" data-name="패스 29511" d="M798.059,496.035H777.343c-.3,0-.486-.159-.495-.236l.608-15.412v-.029c0-.074.187-.241.495-.241h19.5c.308,0,.495.167.495.241v.029l.609,15.412C798.545,495.876,798.359,496.035,798.059,496.035Z" transform="translate(301.153 247.72)" fill="#fff"/>
    <path id="패스_29512" data-name="패스 29512" d="M777.886,480.564l-.572,14.471h20.219l-.572-14.471H777.886m-.211-1.447h19.5a1.114,1.114,0,0,1,1.219.965L799,495.517a1.114,1.114,0,0,1-1.218.965H777.066a1.114,1.114,0,0,1-1.219-.965l.61-15.436A1.114,1.114,0,0,1,777.675,479.117Z" transform="translate(301.43 247.996)"/>
    <path id="패스_29513" data-name="패스 29513" d="M786,475.854l-.369,5.788h8.381l-.369-5.788Z" transform="translate(298.726 248.898)" fill="none"/>
    <rect id="사각형_3039" data-name="사각형 3039" width="7.25" transform="matrix(0.064, -0.998, 0.998, 0.064, 1082.903, 730.541)" fill="none"/>
    <rect id="사각형_3040" data-name="사각형 3040" height="7.25" transform="matrix(0.998, -0.064, 0.064, 0.998, 1093.723, 723.305)" fill="none"/>
    <path id="패스_29514" data-name="패스 29514" d="M784.084,473.854l-.462,7.235h1.45l.369-5.788h7.643l.369,5.788h1.45l-.462-7.235Z" transform="translate(299.28 249.451)"/>
    <path id="패스_3" data-name="패스 3" d="M805.511,454.134s6.144-3.113,6.122-5.749,2.115,5.528,2.115,5.528-4,2.6-4,2.6Z" transform="translate(293.229 256.638)" fill="#8bb74d"/>
    <path id="패스_4" data-name="패스 4" d="M787.039,446.248l2.016,2.831c-.028-.071,2.473-.13,2.473-.13l-1.49-4.542Z" transform="translate(298.336 257.592)" fill="#ef9399"/>
    <path id="패스_5" data-name="패스 5" d="M811.886,467.3l-4.6-.526c.1.038-2.078,2.566-2.078,2.566l5.827,2.577Z" transform="translate(293.313 251.408)" fill="#9daedb"/>
  </g>
</svg>
