<svg xmlns="http://www.w3.org/2000/svg" width="35.996" height="45.069" viewBox="0 0 35.996 45.069">
  <g id="icon_목표달성" transform="translate(-1057.705 -712.001)">
    <path id="패스_29506" data-name="패스 29506" d="M10877.706,1106.1v-22.5h.77v.237l6.932,4.263-6.932,4.263V1106.1Z" transform="translate(-9802.06 -371.598)" fill="#11b7a6"/>
    <path id="people" d="M17055.793-8142.9l-2.389-11.337h-.623l-.342,3.827a17,17,0,0,0-.043,1.729l.2,5.313a1.907,1.907,0,0,1-.51,1.376,1.906,1.906,0,0,1-1.334.61l-.07,0a1.911,1.911,0,0,1-1.912-1.844l-.2-5.312a19.024,19.024,0,0,1,.059-2.214l.508-5.722c0-.017,0-.03,0-.047l-.553-6.192-3.273-2.429c-.355-.24-1.152-.842-1.781-1.342-.627.5-1.426,1.1-1.777,1.342l-3.275,2.429-.555,6.192a.4.4,0,0,1,.01.047l.5,5.722a19.465,19.465,0,0,1,.059,2.214l-.2,5.313a1.911,1.911,0,0,1-1.912,1.844.565.565,0,0,1-.072,0,1.9,1.9,0,0,1-1.332-.61,1.92,1.92,0,0,1-.516-1.376l.205-5.312a17,17,0,0,0-.045-1.729l-.342-3.827h-.621l-2.389,11.337a1.916,1.916,0,0,1-1.873,1.521,1.789,1.789,0,0,1-.393-.042,1.913,1.913,0,0,1-1.213-.828,1.934,1.934,0,0,1-.271-1.442l2.553-12.109.738-4.982-.576.481c-1.516,1.182-1.684,2.812-3.2,3.537-.387,0-.645.136-.965-.1a1.484,1.484,0,0,1-.527-1.132,4.568,4.568,0,0,1,.527-2.164l.848-1.515.572-.749.844-.914,2.676-2.412a1.687,1.687,0,0,1,1.418-.68l5.053,0,3.344-2.271c.152-.1.281-.2.4-.293-.334-.767-.367-1.5-.158-1.693l.369-.445c.4-.34,1.063-.437,2.1.237,1.031-.674,1.7-.577,2.088-.237l.381.445c.205.2.172.927-.164,1.693.119.1.248.188.4.293l3.34,2.271,5.055,0a1.687,1.687,0,0,1,1.418.68l2.676,2.412.844.914.58.749.84,1.515a4.522,4.522,0,0,1,.527,2.164,1.477,1.477,0,0,1-.527,1.132c-.316.231-.576.1-.963.1-1.516-.726-1.68-2.355-3.2-3.537l-.576-.481.738,4.982,2.551,12.109a1.891,1.891,0,0,1-.273,1.442,1.909,1.909,0,0,1-1.209.828,2,2,0,0,1-.4.042A1.923,1.923,0,0,1,17055.793-8142.9Zm-7.369-27.074a3.468,3.468,0,0,1,3.467-3.464,3.469,3.469,0,0,1,3.463,3.464,3.469,3.469,0,0,1-3.463,3.469A3.469,3.469,0,0,1,17048.424-8169.97Zm-16.709,0a3.466,3.466,0,0,1,3.461-3.464,3.467,3.467,0,0,1,3.467,3.464,3.467,3.467,0,0,1-3.467,3.469A3.466,3.466,0,0,1,17031.715-8169.97Z" transform="translate(-15967.83 8898.445)" fill="#4a4a4a"/>
  </g>
</svg>
