<svg xmlns="http://www.w3.org/2000/svg" width="46" height="27.881" viewBox="0 0 46 27.881">
  <g id="icon_쿠폰발급" transform="translate(-1052.002 -719.999)">
    <g id="coupon" transform="translate(1091.033 742.303) rotate(180)" fill="#fff">
      <path d="M 25.97750663757324 21.7047061920166 L 1.393867015838623 21.70402908325195 C 0.9561170339584351 21.70402908325195 0.5999970436096191 21.34762954711914 0.5999970436096191 20.90954971313477 L 0.5999970436096191 1.393839955329895 C 0.5999970436096191 0.9561199545860291 0.9561170339584351 0.5999999642372131 1.393846988677979 0.5999999642372131 L 25.97737503051758 0.5999999642372131 C 26.0724983215332 0.9021487236022949 26.23966598510742 1.179052948951721 26.4700870513916 1.409479975700378 C 26.84693717956543 1.786309957504272 27.34743690490723 1.993839979171753 27.87940788269043 1.993839979171753 C 28.76985931396484 1.993839979171753 29.52582168579102 1.407171249389648 29.78102493286133 0.5999999642372131 L 37.63756561279297 0.5999999642372131 C 38.07529830932617 0.5999999642372131 38.43141555786133 0.9561199545860291 38.43141555786133 1.393839955329895 L 38.43141555786133 20.90954971313477 C 38.43141555786133 21.34762954711914 38.07529830932617 21.70402908325195 37.63756561279297 21.70402908325195 L 29.78149604797363 21.70402908325195 C 29.6863956451416 21.40173530578613 29.51923751831055 21.12472343444824 29.2888069152832 20.89418983459473 C 28.91196632385254 20.51717948913574 28.41142654418945 20.30954933166504 27.87940788269043 20.30954933166504 C 26.98868560791016 20.30954933166504 26.23248672485352 20.89690017700195 25.97750663757324 21.7047061920166 Z" stroke="none"/>
      <path d="M 25.57969856262207 21.10469436645508 C 26.0133171081543 20.27617454528809 26.88144493103027 19.70955085754395 27.87940788269043 19.70955085754395 C 28.57174682617188 19.70955085754395 29.22298622131348 19.97962951660156 29.71316719055176 20.47002029418945 C 29.90257835388184 20.65951538085938 30.05913734436035 20.87319946289062 30.17991638183594 21.10403060913086 L 37.63756561279297 21.10403060913086 C 37.74264526367188 21.10403060913086 37.83141708374023 21.01497077941895 37.83141708374023 20.90954971313477 L 37.83141708374023 1.393839955329895 C 37.83141708374023 1.288769960403442 37.74264526367188 1.199999928474426 37.63756561279297 1.199999928474426 L 30.1786060333252 1.199999928474426 C 29.74480056762695 2.027725696563721 28.87693214416504 2.593839883804321 27.87940788269043 2.593839883804321 C 27.18717765808105 2.593839883804321 26.53600692749023 2.323909997940063 26.04581642150879 1.833729982376099 C 25.85639381408691 1.644302845001221 25.6998462677002 1.430750489234924 25.57904624938965 1.199999928474426 L 1.393846988677979 1.199999928474426 C 1.288766980171204 1.199999928474426 1.199997067451477 1.288769960403442 1.199997067451477 1.393839955329895 L 1.199997067451477 20.90954971313477 C 1.199997067451477 21.01497077941895 1.288766980171204 21.10403060913086 1.393877029418945 21.10403060913086 L 25.57969856262207 21.10469436645508 M 26.48555755615234 22.30471992492676 L 1.393846988677979 22.30402946472168 C 0.625277042388916 22.30402946472168 -2.984008688144968e-06 21.67847061157227 -2.984008688144968e-06 20.90954971313477 L -2.984008688144968e-06 1.393839955329895 C -2.984008688144968e-06 0.62527996301651 0.625277042388916 -3.753662269900815e-08 1.393846988677979 -3.753662269900815e-08 L 26.48555755615234 -3.753662269900815e-08 C 26.48591613769531 0.3720799684524536 26.63085746765137 0.7217099666595459 26.89435768127441 0.9852199554443359 C 27.15786743164062 1.248719930648804 27.50768661499023 1.393839955329895 27.87940788269043 1.393839955329895 C 28.6479663848877 1.393839955329895 29.27324676513672 0.7685699462890625 29.27324676513672 -3.753662269900815e-08 L 37.63756561279297 -3.753662269900815e-08 C 38.40613555908203 -3.753662269900815e-08 39.03141784667969 0.62527996301651 39.03141784667969 1.393839955329895 L 39.03141784667969 20.90954971313477 C 39.03141784667969 21.67847061157227 38.40613555908203 22.30402946472168 37.63756561279297 22.30402946472168 L 29.27324676513672 22.30402946472168 C 29.27288627624512 21.9317798614502 29.1279468536377 21.58197975158691 28.86444664001465 21.318359375 C 28.6009464263916 21.05474090576172 28.25111770629883 20.90954971313477 27.87940788269043 20.90954971313477 C 27.11083793640137 20.90954971313477 26.48555755615234 21.53511047363281 26.48555755615234 22.30402946472168 L 26.48555755615234 22.30471992492676 Z" stroke="none" fill="#101010"/>
    </g>
    <path id="dash" d="M0,15.334V12.546H1.394v2.788Zm0-4.182V8.364H1.394v2.788ZM0,6.97V4.182H1.394V6.97ZM0,2.788V0H1.394V2.788Z" transform="translate(1063.851 738.818) rotate(180)" fill="#4a4a4a"/>
    <path id="타원" d="M9.758,0A9.758,9.758,0,1,1,0,9.758,9.758,9.758,0,0,1,9.758,0Z" transform="translate(1078.486 728.363)" fill="#4a4a4a"/>
    <path id="합치기" d="M3.619,8.548a.794.794,0,0,1-.659-.328L.152,4.357A.8.8,0,1,1,1.44,3.421L3.574,6.359,6.872.41a.8.8,0,1,1,1.393.772L4.406,8.143a.8.8,0,0,1-.787.405Z" transform="matrix(1, 0.017, -0.017, 1, 1084.195, 733.504)" fill="#fff"/>
  </g>
</svg>
