<svg xmlns="http://www.w3.org/2000/svg" width="48" height="34.401" viewBox="0 0 48 34.401">
  <g id="icon_공동구매참여" transform="translate(-1051 -723)">
    <path id="사각형_" data-name="사각형 " d="M8,0H40c4.418,0,8,3.29,8,7.347s-3.582,7.347-8,7.347H8c-4.418,0-8-3.29-8-7.347S3.582,0,8,0Z" transform="translate(1051 723)" fill="#4a4a4a"/>
    <path id="hand" d="M304.185,421.576v-6.791a2.938,2.938,0,0,0-2.935-2.938v-.184a.725.725,0,0,0-.034-.17,22.513,22.513,0,0,1-5.109-3.32,2.214,2.214,0,0,0-.736.126v-1.6a2.2,2.2,0,0,0-4.407,0v8.709l-.566-.982A2.571,2.571,0,0,0,285.943,417l4.026,6.979a7.4,7.4,0,0,0,6.871,4.032c3.512,0,6.448-2.093,7.177-4.891a2.94,2.94,0,0,0,.169-.989v-.178c0-.062,0-.126,0-.189S304.188,421.639,304.185,421.576Z" transform="translate(791.872 329.389)" fill="#fff"/>
    <path id="hand-2" data-name="hand" d="M304.185,421.576v-6.791a2.938,2.938,0,0,0-2.935-2.938v-.184a.725.725,0,0,0-.034-.17,22.513,22.513,0,0,1-5.109-3.32,2.214,2.214,0,0,0-.736.126v-1.6a2.2,2.2,0,0,0-4.407,0v8.709l-.566-.982A2.571,2.571,0,0,0,285.943,417l4.026,6.979a7.4,7.4,0,0,0,6.871,4.032c3.512,0,6.448-2.093,7.177-4.891a2.94,2.94,0,0,0,.169-.989v-.178c0-.062,0-.126,0-.189S304.188,421.639,304.185,421.576Zm-1.468.311v.245a1.488,1.488,0,0,1-.083.494l-.021.062-.018.063c-.572,2.2-2.992,3.792-5.755,3.792a5.973,5.973,0,0,1-5.529-3.161l-.03-.07-4.064-7.045a1.1,1.1,0,0,1,1.907-1.105l3.309,5.734V406.7a.734.734,0,0,1,1.468,0v3.675h0v4.531h0a.735.735,0,0,0,1.469,0v-5.053l.489-.173a.735.735,0,0,1,.953.5l.032.115a.18.18,0,0,0,0,.019v5.267a.735.735,0,0,0,1.469,0v-4.235l.464-.184a.724.724,0,0,1,.271-.052.736.736,0,0,1,.735.729v4.416a.735.735,0,0,0,1.469,0v-2.939a1.471,1.471,0,0,1,1.467,1.469v6.858c0,.04,0,.081,0,.122S302.719,421.847,302.717,421.886Z" transform="translate(791.872 329.389)"/>
    <path id="check" d="M277.245,435.74a.734.734,0,0,1-.611-.313l-2.53-3.611a.735.735,0,0,1,.176-1.024h0a.733.733,0,0,1,1.024.177l0,0,1.924,2.747,3.138-5.442a.735.735,0,0,1,1.273.736l-3.669,6.364a.734.734,0,0,1-.651.368A.715.715,0,0,1,277.245,435.74Z" transform="translate(797.321 298.544)" fill="#fff"/>
  </g>
</svg>
