<svg xmlns="http://www.w3.org/2000/svg" xmlns:xlink="http://www.w3.org/1999/xlink" width="64" height="40" viewBox="0 0 64 40">
  <defs>
    <clipPath id="clip-path">
      <rect id="사각형" width="64" height="40" transform="translate(1435 538)" fill="#fff" stroke="#767676" stroke-width="1"/>
    </clipPath>
  </defs>
  <g id="icon_달성" transform="translate(-1435 -538)" clip-path="url(#clip-path)">
    <g id="깃발" transform="translate(1466.5 540)">
      <path id="다각형" d="M3.8,0,7.6,9.5H0Z" transform="translate(10) rotate(90)" fill="#11b7a6"/>
      <rect id="사각형_" data-name="사각형 " width="1" height="20" fill="#11b7a6"/>
    </g>
    <path id="people" d="M4.122,38.011a2.275,2.275,0,0,1-1.757-2.694l3.028-14.38.878-5.912-.686.572c-1.8,1.4-2,3.336-3.8,4.2-.461,0-.77.158-1.142-.114a1.755,1.755,0,0,1-.629-1.344,5.383,5.383,0,0,1,.629-2.571l1-1.8.686-.886,1-1.085L6.505,9.133A2,2,0,0,1,8.19,8.324l6,0,3.965-2.695c.18-.123.332-.234.475-.348-.4-.91-.438-1.778-.191-2.01l.443-.528c.469-.4,1.26-.52,2.487.28,1.227-.8,2.018-.685,2.487-.28l.443.528c.246.231.207,1.1-.191,2.009.143.114.295.226.475.349L28.546,8.32l6,0a2,2,0,0,1,1.685.809L39.41,12l1,1.085.686.886,1,1.8a5.382,5.382,0,0,1,.629,2.571,1.758,1.758,0,0,1-.629,1.344c-.373.273-.682.113-1.143.113-1.8-.863-2-2.8-3.8-4.2l-.686-.572.877,5.912,3.028,14.379a2.275,2.275,0,0,1-1.757,2.695,2.276,2.276,0,0,1-2.695-1.757L33.088,22.8H32.35l-.405,4.542a20.272,20.272,0,0,0-.052,2.052l.239,6.308a2.274,2.274,0,0,1-2.187,2.359l-.087,0a2.266,2.266,0,0,1-2.271-2.189l-.239-6.307a24.618,24.618,0,0,1,.067-2.628l.606-6.792c0-.019.005-.036.007-.055l-.658-7.353L23.482,9.853c-.418-.284-1.368-1-2.113-1.593-.745.595-1.695,1.308-2.113,1.593l-3.887,2.883-.658,7.352c0,.019.005.036.007.055l.606,6.792a24.619,24.619,0,0,1,.067,2.628l-.238,6.308a2.266,2.266,0,0,1-2.271,2.188l-.087,0A2.274,2.274,0,0,1,10.607,35.7l.238-6.309a20.273,20.273,0,0,0-.052-2.052l-.4-4.542H9.65L6.817,36.254a2.271,2.271,0,0,1-2.695,1.757Zm23.054-33.9A4.114,4.114,0,1,1,31.289,8.23,4.119,4.119,0,0,1,27.176,4.115Zm-19.841,0A4.114,4.114,0,1,1,11.449,8.23,4.119,4.119,0,0,1,7.334,4.115Z" transform="translate(1445.701 551.147)" fill="#3d3d3d"/>
  </g>
</svg>
