<svg xmlns="http://www.w3.org/2000/svg" width="70.008" height="56.474" viewBox="0 0 70.008 56.474">
  <g id="icon_drag" transform="translate(-10.996 10.502)">
    <path id="패스_28790" data-name="패스 28790" d="M-2168.7-2274.684l.181-2.624-4.6,2.246-.913.446.812.546,4.275,2.88.173-2.493c9.987,1.071,16.852,3.289,16.852,5.854,0,3.059-9.739,5.626-22.9,6.341-.038-.117-.072-.234-.115-.349-.024-.063-.054-.123-.079-.185-.072-.174-.144-.348-.229-.518-.02-.041-.045-.08-.066-.121-.1-.189-.2-.376-.317-.559-.017-.026-.036-.051-.052-.076-.125-.193-.257-.382-.4-.566l-.014-.019c-.019-.024-.04-.044-.059-.068-.138-.171-.28-.336-.43-.492-.049-.052-.1-.1-.155-.152-.126-.125-.254-.248-.387-.363-.086-.073-.177-.143-.267-.213-.107-.084-.213-.169-.323-.247s-.25-.165-.378-.244c-.071-.044-.136-.093-.209-.135-.02-.012-.04-.02-.06-.031-.136-.077-.275-.144-.415-.212-.095-.047-.188-.1-.285-.14-.113-.05-.227-.089-.341-.133s-.256-.1-.387-.145c-.066-.021-.134-.036-.2-.056-.178-.052-.356-.1-.537-.143l-.026,0a7.731,7.731,0,0,0-1.447-.171c-.029,0-.058,0-.086,0-.215,0-.43,0-.644.016-.2.014-.388.041-.58.069-.048.007-.1.01-.145.018a7.768,7.768,0,0,0-1.37.364c-.021.008-.043.013-.064.021-.163.061-.322.134-.481.206-.074.034-.149.062-.222.1-.114.056-.224.122-.335.184s-.233.125-.345.2c-.082.051-.16.109-.24.163-.136.093-.272.184-.4.286-.016.013-.033.023-.049.035-.06.048-.112.1-.17.149-.124.1-.247.207-.363.316-.09.085-.175.177-.261.267s-.175.181-.257.274c-.107.124-.208.253-.308.385-.052.068-.106.135-.156.2-.115.163-.223.333-.327.506-.023.038-.049.072-.071.111l-.017.031c-.1.183-.2.369-.284.556-.023.049-.049.1-.071.146-.075.167-.137.337-.2.506-.027.075-.059.148-.084.224l-.008.022c-13.287-.695-23.15-3.274-23.15-6.353,0-2.565,6.865-4.783,16.852-5.854l.173,2.493,4.275-2.88.812-.546-.913-.446-4.6-2.246.181,2.624c-12.574,1.324-21.4,4.43-21.4,8.05,0,4.194,11.847,8.448,27.644,9.488a7.472,7.472,0,0,0,.238.759l0,.01c.062.166.136.327.209.488.033.073.061.146.1.218.054.108.117.213.175.319.068.122.132.245.207.364.045.073.1.142.144.213.1.146.2.292.308.434.01.013.019.028.029.041l0,0,1.231-2.132a5.424,5.424,0,0,1-.27-.581,5.523,5.523,0,0,1-.408-2.2,5.492,5.492,0,0,1,.491-2.159,5.53,5.53,0,0,1,5.162-3.247,5.525,5.525,0,0,1,4.9,3.238,5.5,5.5,0,0,1,.5,2.415,5.489,5.489,0,0,1-.4,1.942,5.528,5.528,0,0,1-5.249,3.464l-1.208,2.093,0,.006h0c.036.006.073.007.109.013q.291.047.582.07c.072.006.144.013.215.016.194.011.388.012.581.009.072,0,.144,0,.216-.005.2-.01.389-.029.582-.053.067-.008.135-.014.2-.024.207-.031.411-.074.614-.121l.153-.033a7.778,7.778,0,0,0,.761-.238c.017-.006.033-.015.05-.021a7.739,7.739,0,0,0,2.047-1.15l.011-.008c.013-.011.025-.023.039-.033.185-.149.363-.3.531-.465.037-.035.072-.073.108-.11.142-.141.28-.286.409-.436.056-.067.109-.137.164-.206.1-.127.2-.255.3-.388.067-.095.127-.2.19-.293s.124-.182.18-.278c.015-.026.026-.053.04-.079.055-.1.1-.2.154-.3.067-.133.138-.266.2-.4.026-.06.046-.12.07-.18a7.761,7.761,0,0,0,.327-.986c15.663-1.069,27.377-5.3,27.377-9.468C-2147.3-2270.254-2156.129-2273.36-2168.7-2274.684Z" transform="translate(2228.307 2266.806)" fill="#f84f34"/>
    <path id="swipe" d="M100.5,75.884a3.281,3.281,0,0,0-1.855.575,3.349,3.349,0,0,0-3.149-2.275,3.281,3.281,0,0,0-1.855.575,3.349,3.349,0,0,0-3.149-2.275,3.261,3.261,0,0,0-1.668.457V67.384a3.337,3.337,0,1,0-6.672,0v14.45l-2.9-2.215a4.312,4.312,0,0,0-5.686.411,2.587,2.587,0,0,0,0,3.606L85.441,95.743a7.39,7.39,0,0,0,5.309,2.241h3.908a9.274,9.274,0,0,0,9.174-9.35v-9.35A3.372,3.372,0,0,0,100.5,75.884Zm1.668,12.75a7.588,7.588,0,0,1-7.506,7.65H90.75a5.746,5.746,0,0,1-4.13-1.743L74.743,82.434a.862.862,0,0,1,0-1.2,2.665,2.665,0,0,1,1.9-.8,2.638,2.638,0,0,1,1.606.542l4.232,3.235a.824.824,0,0,0,.874.08.853.853,0,0,0,.46-.76V67.384a1.668,1.668,0,1,1,3.336,0v12.75a.834.834,0,1,0,1.668,0v-4.25a1.668,1.668,0,1,1,3.336,0v4.25a.834.834,0,1,0,1.668,0v-2.55a1.668,1.668,0,1,1,3.336,0v2.55a.834.834,0,1,0,1.668,0v-.85a1.668,1.668,0,1,1,3.336,0Z" transform="translate(4.494 -90.8) rotate(30)" fill="#101010"/>
  </g>
</svg>
