<svg xmlns="http://www.w3.org/2000/svg" width="31.044" height="20.007" viewBox="0 0 31.044 20.007">
  <g id="icon_주문배송조회" transform="translate(0 0.001)">
    <path id="패스" d="M1019.7,828.855v.78c0-.445.008-.716.014-.806A.054.054,0,0,0,1019.7,828.855Zm.612-.619-.041.013,2.512-.013Z" transform="translate(-1007.897 -828.232)" fill="#3a3a3a"/>
    <path id="패스-2" data-name="패스" d="M1038.12,838.556v5.553h-.973l-.062-.219a3.428,3.428,0,0,0-.9-1.419A3.508,3.508,0,0,0,1034,841.5a3.665,3.665,0,0,0-2.341.567,3.709,3.709,0,0,0-.855.787,3.075,3.075,0,0,0-.558,1.013l-.069.238h-.214l-1.456-.019h-1.668l-2.116.013-.9.006h-1.749v-6.256c0-1.651-.006-3.709-.02-6.16v-1.019l-.02-.942h8.037v-1.5h-6.54l-2.512.013-.107.045-.041.019c-.007.007-.02.013-.027.02a.4.4,0,0,0-.107.077.614.614,0,0,0-.123.135c-.034.046-.061.084-.089.129a.8.8,0,0,0-.061.155c-.006.09-.014.361-.014.806v.716h-6.118a4.543,4.543,0,0,0-.735.065.47.47,0,0,0-.259.116l-.02.019q-.122.106-2.352,3.2c-1.484,2.07-2.24,3.147-2.274,3.244-.014.052-.027.342-.041.877v3.238l.02,3.161c.014.451.034.741.048.857a.311.311,0,0,0,.122.22l.041.045a.831.831,0,0,0,.232.155,1.632,1.632,0,0,0,.4.064h2.219l.061.239a3.664,3.664,0,0,0,.463.916,3.718,3.718,0,0,0,.4.451,3.151,3.151,0,0,0,.469.394,3.877,3.877,0,0,0,1.1.5,2.95,2.95,0,0,0,.81.123,3.748,3.748,0,0,0,.809-.039,3.657,3.657,0,0,0,1.7-.793,3.418,3.418,0,0,0,1.041-1.509l.107-.258h5.125l.879-.007,2.163-.013h3.307l.068.22a3.223,3.223,0,0,0,.715,1.219,3.434,3.434,0,0,0,1.184.857,3.718,3.718,0,0,0,1.273.31,3.529,3.529,0,0,0,1.282-.135,4.242,4.242,0,0,0,1.028-.471,3.771,3.771,0,0,0,.844-.832,2.87,2.87,0,0,0,.5-1.013l.034-.135.006-.02h1.859a.984.984,0,0,0,.313-.064.924.924,0,0,0,.4-.355v-6.637Zm-25.616-4.225c1.116-1.516,1.694-2.328,1.755-2.438a1.208,1.208,0,0,1,.313-.039h1.164l1.435.02.02,2.418v1.942a1.821,1.821,0,0,1-.047.509c-.014.007-1.083.007-3.207.007l-3.164-.019Zm4.621,10.978a1.785,1.785,0,0,1-.388.729,1.7,1.7,0,0,1-.687.49,1.852,1.852,0,0,1-1.293.129,2.027,2.027,0,0,1-1.047-.626,1.821,1.821,0,0,1-.007-2.328,1.862,1.862,0,0,1,1.212-.671,2.464,2.464,0,0,1,.4-.013,2.337,2.337,0,0,1,.428.052,1.9,1.9,0,0,1,.843.477,1.615,1.615,0,0,1,.579,1.264,1.724,1.724,0,0,1-.039.5Zm3.334-1.2h-1.769l-.068-.258a3.325,3.325,0,0,0-.979-1.451,3.433,3.433,0,0,0-1.572-.806,3.665,3.665,0,0,0-1.736.006,3.478,3.478,0,0,0-2.459,2.148l-.129.342H1011l-.756.019v-5.837l3.988-.019h3.961l.15-.084a1.027,1.027,0,0,0,.36-.336,1.673,1.673,0,0,0,.055-.5c.006-.277.006-1.128.006-2.56l.021-2.916h1.666Zm15.088,1.284a1.774,1.774,0,0,1-.1.232,1.992,1.992,0,0,1-1.8,1.1,1.968,1.968,0,0,1-1.191-.387,1.76,1.76,0,0,1-.6-.729c-.034-.09-.068-.187-.1-.284a1.652,1.652,0,0,1,.027-1.025,1.966,1.966,0,0,1,.585-.852,2.272,2.272,0,0,1,.674-.361,2.425,2.425,0,0,1,1.136,0,1.82,1.82,0,0,1,.855.478,1.73,1.73,0,0,1,.374.535,1.227,1.227,0,0,1,.122.31,1.2,1.2,0,0,1,.048.477,3.109,3.109,0,0,1-.048.5Z" transform="translate(-1008.658 -828.232)" fill="#4a4a4a"/>
    <path id="패스-3" data-name="패스" d="M1038.32,828.855v9.7h-1.579v-8.824H1028.7v-1.5h9.01l.042.013.1.045a.245.245,0,0,1,.061.032.663.663,0,0,1,.123.084.621.621,0,0,1,.123.135,1.313,1.313,0,0,1,.1.149.266.266,0,0,1,.041.1.22.22,0,0,1,.006.032.049.049,0,0,1,.019.034Z" transform="translate(-1007.277 -828.232)" fill="#4a4a4a"/>
  </g>
</svg>
