<svg xmlns="http://www.w3.org/2000/svg" width="24" height="24" viewBox="0 0 24 24">
  <path id="icon_question" d="M206.205,558.523a3.531,3.531,0,0,0-2.551-.955c-2.18,0-3.59,1.55-3.59,3.95h2.011c0-1.486.829-2.013,1.538-2.013a1.322,1.322,0,0,1,1.364,1.226c.063.847-.39,1.277-.962,1.821a3.68,3.68,0,0,0-1.432,3.468h2a2.637,2.637,0,0,1,.935-2.178,4.484,4.484,0,0,0,1.536-3.022A3.129,3.129,0,0,0,206.205,558.523Zm-1.393,10a1.25,1.25,0,1,1-1.25-1.251A1.25,1.25,0,0,1,204.813,568.521Zm-1.25-17a12,12,0,1,0,12,12A12,12,0,0,0,203.563,551.521Zm0,2a10,10,0,1,1-10,10A10.011,10.011,0,0,1,203.563,553.521Z" transform="translate(-191.563 -551.521)" fill="#dcdcdc"/>
</svg>
