<svg xmlns="http://www.w3.org/2000/svg" width="49" height="53" viewBox="0 0 49 53">
  <g id="icon_마음변함" transform="translate(372.421 -2098.203)">
    <rect id="사각형" width="49" height="53" transform="translate(-372.421 2098.203)" fill="none"/>
    <path id="사람" d="M-339.986,2131.181a19.456,19.456,0,0,0-8.048-4.283l-.016-.051c4.493-2.364,7.629-7.584,7.629-13.644,0-8.271-5.831-15-13-15s-13,6.729-13,15c0,6.094,3.173,11.331,7.706,13.674a19.482,19.482,0,0,0-8.14,4.3,16.041,16.041,0,0,0-5.565,12.021c0,.331.01.667.032,1h37.935c.022-.327.033-.663.033-1A16.042,16.042,0,0,0-339.986,2131.181Zm-16.21-2.764a19.341,19.341,0,0,1,2.769-.214h.014a19.24,19.24,0,0,1,3.729.374l-3.255,4.284-3.259-4.438Zm2.775-28.214c5.471,0,10.008,4.749,10.848,10.939-1.56-.647-2.31-2-3.079-3.438l-.744-1.359-.79.516c-2.211,1.447-4.17,1.991-5.827,1.62-1.615-.361-3.039-1.579-4.354-3.721l-.5-.817-.767.574c-2.313,1.727-3.872,2.879-4.925,3.65C-361.893,2103.493-357.976,2100.2-353.421,2100.2Zm-1.969,25.78a9.62,9.62,0,0,1-1.9-.626c-4.16-1.856-7.132-6.6-7.132-12.154a15.293,15.293,0,0,1,.195-2.394c.734-.518,2.343-1.688,5.89-4.333a8.306,8.306,0,0,0,4.94,3.713,8.844,8.844,0,0,0,6.359-1.365c.893,1.65,2.052,3.538,4.609,4.208,0,.058.007.114.007.171,0,5.145-2.548,9.588-6.226,11.694a9.9,9.9,0,0,1-1.84.822,9.389,9.389,0,0,1-2.926.484h-.014A9.379,9.379,0,0,1-355.39,2125.983Zm-14.993,16.219a14.177,14.177,0,0,1,4.862-9.53,17.471,17.471,0,0,1,7.154-3.826l5.4,7.357,5.379-7.079a17.333,17.333,0,0,1,6.269,3.548,14.177,14.177,0,0,1,4.862,9.53Z" fill="#dcdcdc"/>
    <circle id="눈" cx="1.5" cy="1.5" r="1.5" transform="translate(-358.421 2115.203)" fill="#dcdcdc"/>
    <circle id="눈-2" data-name="눈" cx="1.5" cy="1.5" r="1.5" transform="translate(-351.421 2115.203)" fill="#dcdcdc"/>
  </g>
</svg>
