<svg id="손" xmlns="http://www.w3.org/2000/svg" width="30" height="44" viewBox="0 0 30 44">
  <circle id="_F86363_40_" data-name="#F86363_40%" cx="9.5" cy="9.5" r="9.5" transform="translate(3.138)" fill="#f84f33" opacity="0.4"/>
  <path id="패스_" data-name="패스 " d="M1803.988-5717.324v16.449s-1.441,8.28-8.145,8.28-10.86-5.779-10.86-5.779l-6.982-6.779-1.939-2.834.665-1.222,1.274-1,2.6,1.278,5.319,1.945v-20.449l2.105-1.89,1.108.223.886,1.667.277,7.391,1.662-1.223h1.274l1.33,1.223.831,1,1.884-.334h1.5l.554.834.72,1.222h3.934Z" transform="translate(-1775.362 5736)" fill="#fff"/>
  <path id="hand" d="M252.2,311.089a3.142,3.142,0,0,0-1.756.535,3.154,3.154,0,0,0-4.737-1.583,3.166,3.166,0,0,0-2.981-2.118,3.126,3.126,0,0,0-1.579.426v-5.175a3.158,3.158,0,1,0-6.316,0v18.507l-4.34-2.177a4.747,4.747,0,0,0-2.117-.5,3.032,3.032,0,0,0-2.132,5.172l10.209,10.236A12.124,12.124,0,0,0,245.1,338a10.288,10.288,0,0,0,10.263-10.29V314.255A3.165,3.165,0,0,0,252.2,311.089Zm1.579,16.622a8.706,8.706,0,0,1-8.686,8.707,10.546,10.546,0,0,1-7.524-3.127l-10.211-10.236a1.447,1.447,0,0,1,1.015-2.468,3.171,3.171,0,0,1,1.412.334l5.484,2.748a.789.789,0,0,0,1.142-.708V303.174a1.579,1.579,0,1,1,3.158,0v15.039a.79.79,0,1,0,1.579,0v-7.123a1.579,1.579,0,1,1,3.158,0v7.123a.79.79,0,1,0,1.579,0v-5.541a1.579,1.579,0,1,1,3.158,0v5.541a.79.79,0,1,0,1.579,0v-3.958a1.579,1.579,0,1,1,3.158,0Z" transform="translate(-225.362 -294)" fill="#1f1f1f"/>
</svg>
