<svg id="icon_상담_답변확인" data-name="icon_상담/답변확인" xmlns="http://www.w3.org/2000/svg" width="24.999" height="21.995" viewBox="0 0 24.999 21.995">
  <path id="패스" d="M364.2,206.16H362.53a3.624,3.624,0,0,1,.033.5,3.093,3.093,0,0,1-.359,1.476A3.223,3.223,0,0,1,361.2,209.3a2.912,2.912,0,0,1-.842.405V206.16h-1.661v4.487a.834.834,0,0,0,.166.527,6.5,6.5,0,0,1-1.617,2.084A5.855,5.855,0,0,1,353.9,214.6a1.78,1.78,0,0,0-.642-.9,1.755,1.755,0,0,0-1.064-.347,1.69,1.69,0,0,0-1.285.562,1.97,1.97,0,0,0,0,2.68,1.745,1.745,0,0,0,2.365.185,1.82,1.82,0,0,0,.643-.967,7.144,7.144,0,0,0,3.074-.921,6.875,6.875,0,0,0,1.872-1.586,7.659,7.659,0,0,0,1.136-1.783,4.269,4.269,0,0,0,2.12-.793,4.986,4.986,0,0,0,2.108-4.07A3.744,3.744,0,0,0,364.2,206.16Zm-11.874,9.165a.116.116,0,0,1-.056.075c-.017.017-.027.023-.077.023a.343.343,0,0,1-.061-.006c-.089-.087-.089-.1-.089-.162a.127.127,0,0,1,.05-.116.113.113,0,0,1,.1-.041.132.132,0,0,1,.1.029l.044.151Zm-.6-20.165a7.845,7.845,0,0,0-3.577.857,8.571,8.571,0,0,0-2.808,2.345,9.257,9.257,0,0,0-1.694,3.422,4.376,4.376,0,0,0-2.232.735,5.027,5.027,0,0,0-1.557,6.588,4.822,4.822,0,0,0,1.7,1.783,4.379,4.379,0,0,0,2.337.66h.017a.8.8,0,0,0,.592-.272.942.942,0,0,0,.249-.654v-7.787a6.837,6.837,0,0,1,3.789-4.973,7.294,7.294,0,0,1,3.182-.695ZM343.1,209.7a2.766,2.766,0,0,1-.692-.313,3.145,3.145,0,0,1-1.114-1.158,3.075,3.075,0,0,1-.4-1.552,3.164,3.164,0,0,1,1.417-2.692,3.012,3.012,0,0,1,.8-.365Z" transform="translate(-339.224 -195.16)" fill="#4a4a4a"/>
  <path id="패스-2" data-name="패스" d="M362.72,206.158h-1.667a3.112,3.112,0,0,0-.341-1.025,3.154,3.154,0,0,0-1.046-1.152,2.981,2.981,0,0,0-.8-.365v2.547h-1.661v-3.323a6.911,6.911,0,0,0-3.8-4.973,7.216,7.216,0,0,0-3.168-.695v-2a7.833,7.833,0,0,1,3.577.857,8.559,8.559,0,0,1,2.808,2.345,9.1,9.1,0,0,1,1.7,3.422,4.363,4.363,0,0,1,2.232.735,4.842,4.842,0,0,1,1.6,1.76,4.717,4.717,0,0,1,.566,1.87Z" transform="translate(-337.721 -195.158)" fill="#4a4a4a"/>
</svg>
