<svg id="icon_1:1_고객상담" data-name="icon_1:1 고객상담" xmlns="http://www.w3.org/2000/svg" width="25.001" height="21.292" viewBox="0 0 25.001 21.292">
  <path id="패스" d="M351.193,513.794c-.341,4.082-5.108,7.329-10.923,7.329-.318,0-.636-.01-.943-.033a13.833,13.833,0,0,1-1.866-.23,9.345,9.345,0,0,1-1.61,1.077,19.215,19.215,0,0,1-3.581,1.422,8.02,8.02,0,0,0,1.19-2.322,9.836,9.836,0,0,0,.341-1.43,10.783,10.783,0,0,1-1.469-.922,6.807,6.807,0,0,1-3.007-5.364c0-4.307,4.908-7.8,10.943-7.8v-1.4c-6.91,0-12.507,4.12-12.507,9.207a8.418,8.418,0,0,0,4.3,6.94,6.213,6.213,0,0,1-2.825,3.857.669.669,0,0,0-.3.848.79.79,0,0,0,.725.44.666.666,0,0,0,.141-.015,22.423,22.423,0,0,0,8.1-3.04,16.306,16.306,0,0,0,2.361.168c6.692,0,12.159-3.867,12.49-8.734Z" transform="translate(-327.76 -504.12)" fill="#2b2b2b"/>
  <path id="패스-2" data-name="패스" d="M351.262,513.327v.467h-1.584a.426.426,0,0,0,.011-.085c.006-.125.01-.253.01-.387,0-4.3-4.909-7.8-10.943-7.8v-1.4C345.661,504.12,351.262,508.239,351.262,513.327Z" transform="translate(-326.261 -504.12)" fill="#2c9fa4"/>
  <ellipse id="타원" cx="1.303" cy="1.262" rx="1.303" ry="1.262" transform="translate(7.037 8.336)" fill="#2b2b2b"/>
  <ellipse id="타원-2" data-name="타원" cx="1.303" cy="1.262" rx="1.303" ry="1.262" transform="translate(11.205 8.336)" fill="#2b2b2b"/>
  <ellipse id="타원-3" data-name="타원" cx="1.303" cy="1.262" rx="1.303" ry="1.262" transform="translate(15.374 8.336)" fill="#2b2b2b"/>
  <path id="패스-3" data-name="패스" d="M351.194,513.794c-.341,4.082-5.108,7.329-10.923,7.329-.318,0-.636-.01-.943-.033a13.834,13.834,0,0,1-1.866-.23,9.391,9.391,0,0,1-1.61,1.077,19.211,19.211,0,0,1-3.581,1.422,7.989,7.989,0,0,0,1.189-2.322,9.686,9.686,0,0,0,.341-1.43,10.774,10.774,0,0,1-1.469-.922,6.8,6.8,0,0,1-3.007-5.364c0-4.306,4.908-7.8,10.943-7.8v-1.4c-6.91,0-12.507,4.12-12.507,9.207a8.414,8.414,0,0,0,4.3,6.94,6.216,6.216,0,0,1-2.825,3.857.668.668,0,0,0-.3.848.79.79,0,0,0,.725.44.649.649,0,0,0,.14-.015,22.419,22.419,0,0,0,8.1-3.04,16.305,16.305,0,0,0,2.361.168c6.691,0,12.159-3.867,12.49-8.734Z" transform="translate(-327.76 -504.12)" fill="#4a4a4a"/>
  <path id="패스-4" data-name="패스" d="M351.262,513.327v.467h-1.584a.426.426,0,0,0,.011-.085c.006-.125.01-.253.01-.387,0-4.3-4.909-7.8-10.943-7.8v-1.4C345.661,504.12,351.262,508.239,351.262,513.327Z" transform="translate(-326.261 -504.12)" fill="#4a4a4a"/>
  <ellipse id="타원-4" data-name="타원" cx="1.303" cy="1.262" rx="1.303" ry="1.262" transform="translate(7.038 8.336)" fill="#4a4a4a"/>
  <ellipse id="타원-5" data-name="타원" cx="1.303" cy="1.262" rx="1.303" ry="1.262" transform="translate(11.206 8.336)" fill="#4a4a4a"/>
  <ellipse id="타원-6" data-name="타원" cx="1.303" cy="1.262" rx="1.303" ry="1.262" transform="translate(15.375 8.336)" fill="#4a4a4a"/>
</svg>
