<svg xmlns="http://www.w3.org/2000/svg" width="29.379" height="20.262" viewBox="0 0 29.379 20.262">
  <g id="icon_쿠폰_적립금" data-name="icon_쿠폰/적립금" transform="translate(0.125 0.125)">
    <path id="패스" d="M311.242,421.933c-.088.036-.176.072-.271.105v4.142H292.36v-1.254h-1.5v1.254H286.2v-4.267a3.577,3.577,0,0,0,1.2-1.2,3,3,0,0,0,.466-1.462c0-.048.006-.083.006-.125v-.095a3.09,3.09,0,0,0-.472-1.684,3.6,3.6,0,0,0-1.2-1.189V412.1h4.655v1.263h1.5V412.1h6.078V410.94h-13.5v5.92l.095.029a2.39,2.39,0,0,1,1.681,2.211,2.223,2.223,0,0,1-.466,1.356,2.254,2.254,0,0,1-1.215.827l-.095.023v6.033h20.613s0,.006.006,0H312.2v-5.953a3.691,3.691,0,0,1-.957.547Z" transform="translate(-284.942 -410.94)" fill="#4a4a4a" stroke="#4a4a4a" stroke-width="0.25"/>
    <rect id="사각형" width="1.499" height="1.415" transform="translate(5.914 9.666)" fill="#4a4a4a" stroke="#4a4a4a" stroke-width="0.25"/>
    <rect id="사각형-2" data-name="사각형" width="1.499" height="1.415" transform="translate(5.914 11.878)" fill="#4a4a4a" stroke="#4a4a4a" stroke-width="0.25"/>
    <rect id="사각형-3" data-name="사각형" width="1.499" height="1.415" transform="translate(5.914 3.063)" fill="#4a4a4a" stroke="#4a4a4a" stroke-width="0.25"/>
    <rect id="사각형-4" data-name="사각형" width="1.499" height="1.415" transform="translate(5.914 5.293)" fill="#4a4a4a" stroke="#4a4a4a" stroke-width="0.25"/>
    <rect id="사각형-5" data-name="사각형" width="1.499" height="1.415" transform="translate(5.914 7.503)" fill="#4a4a4a" stroke="#4a4a4a" stroke-width="0.25"/>
    <path id="패스-2" data-name="패스" d="M310.8,410.948v5.92l-.094.03c-.089.029-.177.059-.265.095a1.7,1.7,0,0,0-.315.173,1.941,1.941,0,0,0-.223.161c-.006.005-.012.005-.012.012a1.777,1.777,0,0,0-.189.184.082.082,0,0,0-.045.036c-.05.059-.1.119-.151.184a2.191,2.191,0,0,0-.278.44.993.993,0,0,0-.076.184.3.3,0,0,0-.037.105c-.013.047-.026.088-.038.136a2.255,2.255,0,0,0-.057.505v.125h-.012a2.243,2.243,0,0,0,.484,1.165.515.515,0,0,0,.051.059h-1.316a3.065,3.065,0,0,1-.321-1.2h.982l.095-.018-.095.012h-1.019c0-.036-.007-.077-.007-.119v-.095a3,3,0,0,1,.063-.632c.019-.105.045-.2.07-.3.025-.083.056-.166.088-.249a1.877,1.877,0,0,1,.112-.256c.045-.089.088-.166.139-.249a.462.462,0,0,1,.062-.1.268.268,0,0,1,.05-.065,2.513,2.513,0,0,1,.171-.232,3.687,3.687,0,0,1,.919-.791v-4.059h-12.5v-1.165Z" transform="translate(-283.546 -410.94)" fill="#4a4a4a" stroke="#4a4a4a" stroke-width="0.25"/>
    <path id="패스-3" data-name="패스" d="M302.055,419.992a2.165,2.165,0,0,1,.309-.178c-.112.059-.208.119-.3.178Z" transform="translate(-282.967 -410.473)" fill="#159aa7"/>
    <line id="선" x1="0.007" transform="translate(28.74 9.518)" fill="none"/>
    <line id="선-2" data-name="선" x1="0.004" transform="translate(17.301 9.518)" fill="none"/>
    <path id="패스-4" data-name="패스" d="M310.576,423.065a2.913,2.913,0,0,0,.321-.211v.773c0,.249-.2.5-.586.76a5.2,5.2,0,0,1-1.673.678,10.877,10.877,0,0,1-2.558.285,10.7,10.7,0,0,1-2.55-.285,5.22,5.22,0,0,1-1.682-.678c-.378-.261-.573-.511-.573-.76v-.773a6.207,6.207,0,0,0,1.846.891,10.716,10.716,0,0,0,5.919,0c.152-.044.3-.1.446-.154.095-.036.19-.065.278-.105a.116.116,0,0,0,.057-.024.727.727,0,0,0,.138-.059,5.339,5.339,0,0,0,.616-.338Z" transform="translate(-283.057 -410.313)" fill="#fff"/>
    <path id="패스-5" data-name="패스" d="M310.9,421.189v.06c-.007.03-.007.053-.012.083a1.444,1.444,0,0,1-.573.808l-.007.005a3.614,3.614,0,0,1-.957.553c-.088.036-.176.072-.271.105a3.964,3.964,0,0,1-.446.143,9.346,9.346,0,0,1-2.556.344,9.065,9.065,0,0,1-2.551-.351,4.494,4.494,0,0,1-1.673-.8,1.843,1.843,0,0,1-.5-.577.775.775,0,0,1-.05-.113.89.89,0,0,1-.031-.119c-.007-.031-.007-.054-.013-.083v-.058a1.3,1.3,0,0,1,.592-.947,3.379,3.379,0,0,1,.554-.365,5.17,5.17,0,0,1,1.071-.439l.057-.018a9.184,9.184,0,0,1,2.544-.345c.223,0,.446.006.669.024h.026c.207.012.409.036.6.065a.2.2,0,0,1,.062.005,7.747,7.747,0,0,1,1.14.238.169.169,0,0,1,.057.013h.007c.019.005.031.012.05.018h.007c.112.035.223.071.327.113a5.22,5.22,0,0,1,.725.316c.031.018.062.036.088.047a.541.541,0,0,1,.081.047,1.011,1.011,0,0,1,.1.065h.007c.1.072.2.137.283.211a1.283,1.283,0,0,1,.587.953Z" transform="translate(-283.059 -410.513)" fill="#fff"/>
    <path id="패스-6" data-name="패스" d="M311.078,424.878v.526c0,.3-.214.588-.649.88a3.263,3.263,0,0,1-.479.274c-.043.021-.087.041-.133.059a6.507,6.507,0,0,1-1.115.375,11.981,11.981,0,0,1-5.2,0,6.669,6.669,0,0,1-1.064-.344c-.112-.048-.223-.105-.321-.155a2.341,2.341,0,0,1-.352-.211,1.175,1.175,0,0,1-.642-.88v-.526a5.564,5.564,0,0,0,2.04.915,12.435,12.435,0,0,0,5.864,0c.044-.012.088-.023.126-.036a1.411,1.411,0,0,0,.189-.054.547.547,0,0,0,.1-.029c.1-.03.2-.059.3-.095a6.237,6.237,0,0,0,.592-.244l.207-.105c.064-.036.133-.072.2-.114A3.931,3.931,0,0,0,311.078,424.878Z" transform="translate(-283.074 -410.207)" fill="#fff"/>
    <path id="패스-7" data-name="패스" d="M310.777,426.882q.157-.1.3-.211v.505a1.176,1.176,0,0,1-.649.885,5.646,5.646,0,0,1-1.732.72,11.982,11.982,0,0,1-5.2,0,5.724,5.724,0,0,1-1.736-.712,1.989,1.989,0,0,1-.39-.333,1.149,1.149,0,0,1-.088-.105.383.383,0,0,1-.045-.065,1.019,1.019,0,0,1-.062-.119.413.413,0,0,1-.032-.095.228.228,0,0,1-.012-.06.639.639,0,0,1-.012-.113v-.505a5.761,5.761,0,0,0,2.04.916c.171.047.347.083.523.119,0,0,0,.005.007,0a2.419,2.419,0,0,0,.289.053,2.3,2.3,0,0,0,.359.06c.119.018.24.036.366.047h.006c.2.024.4.036.6.047.252.018.516.024.781.024s.523-.006.781-.024c.144-.005.289-.018.428-.036a.6.6,0,0,0,.144-.012c.007.006.007.006.019,0,.076-.006.152-.012.223-.024.012,0,.025-.005.038-.005.151-.018.3-.042.446-.072a.056.056,0,0,0,.043-.006,2.472,2.472,0,0,0,.278-.053h.006q.265-.047.523-.119c.245-.065.485-.137.7-.211.1-.036.2-.071.3-.113s.214-.089.309-.137l.207-.105C310.619,426.976,310.7,426.929,310.777,426.882Z" transform="translate(-283.075 -410.112)" fill="#fff"/>
    <path id="패스-8" data-name="패스" d="M311.936,420.013h-.006a3.105,3.105,0,0,0-.511-.577l-.019-.017h-2.565a2.051,2.051,0,0,1,.327.113,5.235,5.235,0,0,1,.725.316c.031.018.062.036.088.047a.546.546,0,0,1,.081.047,1.009,1.009,0,0,1,.1.065h.007c.1.072.2.137.283.211a1.285,1.285,0,0,1,.592.947v.06c-.007.03-.007.053-.012.083a1.45,1.45,0,0,1-.573.808l-.007.005a3.63,3.63,0,0,1-.957.553c-.088.036-.176.072-.271.105a3.966,3.966,0,0,1-.446.143,9.3,9.3,0,0,1-2.556.344,9.065,9.065,0,0,1-2.551-.351,4.5,4.5,0,0,1-1.673-.8,1.844,1.844,0,0,1-.5-.577.768.768,0,0,1-.05-.113.9.9,0,0,1-.031-.119c-.007-.031-.007-.054-.013-.083v-.053a1.3,1.3,0,0,1,.592-.947,2.518,2.518,0,0,1,.29-.211,1.826,1.826,0,0,1,.264-.155,5.17,5.17,0,0,1,1.071-.439h-2.589l-.019.017a2.988,2.988,0,0,0-.516.577h.007a2,2,0,0,0-.385,1.158v6.389a1.518,1.518,0,0,0,.088.526,2.189,2.189,0,0,0,.787,1.053,5.743,5.743,0,0,0,2.18,1,13,13,0,0,0,6.09,0,5.7,5.7,0,0,0,2.185-1,2.011,2.011,0,0,0,.876-1.579v-6.389A2.024,2.024,0,0,0,311.936,420.013Zm-10.529,3.02a6.2,6.2,0,0,0,1.845.891,10.716,10.716,0,0,0,5.919,0q.227-.066.446-.154a2.276,2.276,0,0,0,.277-.105.115.115,0,0,0,.057-.024.661.661,0,0,0,.138-.059,2.586,2.586,0,0,0,.359-.184,2.439,2.439,0,0,0,.264-.148,2.781,2.781,0,0,0,.321-.21v.773c0,.25-.2.5-.586.76a5.185,5.185,0,0,1-1.673.678,10.859,10.859,0,0,1-2.556.285,10.717,10.717,0,0,1-2.551-.285,5.244,5.244,0,0,1-1.682-.678c-.377-.261-.572-.51-.572-.76Zm9.786,4.526a1.176,1.176,0,0,1-.649.885,5.64,5.64,0,0,1-1.731.72,11.986,11.986,0,0,1-5.2,0,5.728,5.728,0,0,1-1.733-.713,1.992,1.992,0,0,1-.39-.333.673.673,0,0,1-.088-.105.53.53,0,0,1-.045-.065,1.022,1.022,0,0,1-.062-.119.408.408,0,0,1-.031-.095.191.191,0,0,1-.013-.06.759.759,0,0,1-.012-.113v-.505a5.777,5.777,0,0,0,2.041.916c.17.047.346.083.522.119h.007a2.5,2.5,0,0,0,.29.053,2.289,2.289,0,0,0,.358.06c.12.018.24.036.366.047h.007c.2.024.4.036.6.047.251.018.516.024.781.024s.522-.006.781-.024c.145-.005.29-.018.428-.036a.607.607,0,0,0,.145-.012c0,.006,0,.006.019,0,.075-.006.151-.012.223-.024.012,0,.026-.005.038-.005.151-.018.3-.042.446-.072a.06.06,0,0,0,.045-.006,2.44,2.44,0,0,0,.277-.053h.007q.264-.047.522-.119c.245-.065.485-.137.7-.211q.151-.049.3-.113a3,3,0,0,0,.309-.137,1.812,1.812,0,0,0,.207-.105c.083-.042.164-.089.24-.137q.157-.1.3-.211Zm0-1.873c0,.3-.214.588-.649.88a3.208,3.208,0,0,1-.479.274c-.042.021-.087.041-.132.059a6.575,6.575,0,0,1-1.121.375,11.988,11.988,0,0,1-5.2,0,6.658,6.658,0,0,1-1.064-.344c-.112-.048-.223-.105-.321-.155a2.341,2.341,0,0,1-.352-.211,1.175,1.175,0,0,1-.642-.88v-.526a5.569,5.569,0,0,0,2.041.915,12.43,12.43,0,0,0,5.862,0c.045-.012.088-.023.126-.036a1.438,1.438,0,0,0,.19-.054.554.554,0,0,0,.1-.03c.1-.029.2-.059.3-.095a6.12,6.12,0,0,0,.592-.244l.207-.105a2.068,2.068,0,0,0,.2-.114,3.646,3.646,0,0,0,.347-.237Z" transform="translate(-283.191 -410.494)" fill="#4a4a4a" stroke="#4a4a4a" stroke-width="0.25"/>
    <path id="패스-9" data-name="패스" d="M311.079,426.673v.505a1.176,1.176,0,0,1-.649.885,5.645,5.645,0,0,1-1.732.72,11.982,11.982,0,0,1-5.2,0,5.726,5.726,0,0,1-1.736-.714,1.992,1.992,0,0,1-.39-.333,1.162,1.162,0,0,1-.088-.105.38.38,0,0,1-.045-.065,1.021,1.021,0,0,1-.062-.119.412.412,0,0,1-.032-.095.231.231,0,0,1-.012-.06.638.638,0,0,1-.012-.113v-.505a5.763,5.763,0,0,0,2.04.916c.171.047.347.083.523.119,0,0,0,.005.007,0a2.451,2.451,0,0,0,.289.053,2.3,2.3,0,0,0,.359.06c.119.018.24.036.366.047h.006c.2.024.4.036.6.047.252.018.516.024.781.024s.523-.006.781-.024c.144-.005.289-.018.428-.036a.6.6,0,0,0,.144-.012c.007.006.007.006.019,0,.076-.006.152-.012.223-.024h.038c.151-.018.3-.042.446-.072a.057.057,0,0,0,.043-.006,2.5,2.5,0,0,0,.278-.053h.006q.265-.047.523-.119c.245-.065.485-.137.7-.211q.151-.049.3-.113a3.013,3.013,0,0,0,.309-.137,1.88,1.88,0,0,0,.207-.105c.083-.042.164-.089.24-.137q.156-.1.3-.221Z" transform="translate(-283.075 -410.112)" fill="#fff"/>
    <path id="패스-10" data-name="패스" d="M311.078,424.878v.526c0,.3-.214.588-.649.88a3.263,3.263,0,0,1-.479.274c-.043.021-.087.041-.133.059a6.507,6.507,0,0,1-1.115.375,11.981,11.981,0,0,1-5.2,0,6.669,6.669,0,0,1-1.064-.344c-.112-.048-.223-.105-.321-.155a2.92,2.92,0,0,1-.352-.211,1.175,1.175,0,0,1-.642-.88v-.526a5.564,5.564,0,0,0,2.04.915,12.435,12.435,0,0,0,5.864,0c.044-.012.088-.023.126-.036a1.411,1.411,0,0,0,.189-.054.547.547,0,0,0,.1-.029c.1-.03.2-.059.3-.095a6.237,6.237,0,0,0,.592-.244l.207-.105a2.193,2.193,0,0,0,.2-.114A3.937,3.937,0,0,0,311.078,424.878Z" transform="translate(-283.074 -410.207)" fill="#fff"/>
    <path id="패스-11" data-name="패스" d="M310.9,422.851v.773c0,.249-.2.5-.586.76a5.2,5.2,0,0,1-1.673.678,10.877,10.877,0,0,1-2.558.285,10.7,10.7,0,0,1-2.55-.285,5.219,5.219,0,0,1-1.682-.678c-.378-.261-.573-.51-.573-.76v-.773a6.208,6.208,0,0,0,1.846.891,10.715,10.715,0,0,0,5.919,0c.152-.044.3-.1.446-.154a2.288,2.288,0,0,0,.278-.105.115.115,0,0,0,.057-.024.723.723,0,0,0,.138-.059,2.61,2.61,0,0,0,.359-.184,1.53,1.53,0,0,0,.264-.148A3.01,3.01,0,0,0,310.9,422.851Z" transform="translate(-283.057 -410.313)" fill="#fff"/>
    <path id="패스-12" data-name="패스" d="M309.145,419.991c-.088-.054-.176-.105-.271-.16.057.029.12.065.171.095A1,1,0,0,1,309.145,419.991Z" transform="translate(-282.18 -410.473)" fill="#159aa7"/>
    <path id="패스_" data-name="패스 " d="M311.307,419.5h-2.575c-.019-.006-.031-.013-.05-.018h-.007a.171.171,0,0,0-.057-.013,7.628,7.628,0,0,0-1.14-.238.208.208,0,0,0-.062-.005c-.2-.03-.4-.054-.6-.065h-.026c-.223-.018-.441-.024-.669-.024a9.182,9.182,0,0,0-2.544.345l-.057.018h-2.589a5.745,5.745,0,0,1,2.166-1.142,10.438,10.438,0,0,1,3.024-.421,10.672,10.672,0,0,1,1.833.148,9.514,9.514,0,0,1,1.19.273c.026.006.05.018.069.024a5.7,5.7,0,0,1,2.1,1.118Z" transform="translate(-283.098 -410.572)" fill="#4a4a4a" stroke="#4a4a4a" stroke-width="0.25"/>
  </g>
</svg>
