<svg xmlns="http://www.w3.org/2000/svg" xmlns:xlink="http://www.w3.org/1999/xlink" width="55" height="53" viewBox="0 0 55 53">
  <defs>
    <clipPath id="clip-path">
      <path id="제외" d="M22.5,49h0L0,37.017V12.25L22.5,0,45,12.385V37.017L22.5,49ZM2.045,14.463V35.792L21.478,46.141V24.562Zm40.91.121h0L23.522,24.566V46.14L42.954,35.792V14.584ZM12.164,7.952h0L3.268,12.8l19.236,10,9.161-4.706L12.164,7.952ZM22.494,2.329,14.327,6.775,33.892,16.942l7.837-4.026Z" fill="#dcdcdc"/>
    </clipPath>
  </defs>
  <g id="icon_box" transform="translate(0 0.25)">
    <g id="그룹">
      <path id="제외-2" data-name="제외" d="M22.5,49h0L0,37.017V12.25L22.5,0,45,12.385V37.017L22.5,49ZM2.045,14.463V35.792L21.478,46.141V24.562Zm40.91.121h0L23.522,24.566V46.14L42.954,35.792V14.584ZM12.164,7.952h0L3.268,12.8l19.236,10,9.161-4.706L12.164,7.952ZM22.494,2.329,14.327,6.775,33.892,16.942l7.837-4.026Z" fill="#dcdcdc"/>
    </g>
    <rect id="사각형" width="55" height="53" transform="translate(0 -0.25)" fill="#fff" opacity="0"/>
  </g>
</svg>
