<svg xmlns="http://www.w3.org/2000/svg" width="127.001" height="75.999" viewBox="0 0 127.001 75.999">
  <g id="쿠폰" transform="translate(0 8)">
    <g id="합치기" transform="translate(8 -8)" fill="#fff" stroke-linejoin="round">
      <path d="M 116.0001068115234 67.50040435791016 L 2.999704837799072 67.50040435791016 C 1.621366381645203 67.50040435791016 0.4999971091747284 66.37863159179688 0.4999971091747284 64.99980163574219 L 0.4999971091747284 39.99917602539062 C 2.886516809463501 38.99561309814453 4.466304779052734 36.62794494628906 4.466304779052734 33.9984016418457 C 4.466304779052734 31.36884498596191 2.886516809463501 29.00117492675781 0.4999971091747284 27.99761390686035 L 0.4999971091747284 3.000602245330811 C 0.4999971091747284 1.621771454811096 1.621366381645203 0.5000022053718567 2.999704837799072 0.5000022053718567 L 116.0001068115234 0.5000022053718567 C 117.3789367675781 0.5000022053718567 118.5007019042969 1.621771454811096 118.5007019042969 3.000602245330811 L 118.5007019042969 27.99761390686035 C 116.1141815185547 29.00117492675781 114.5343933105469 31.36884498596191 114.5343933105469 33.9984016418457 C 114.5343933105469 36.62794494628906 116.1141815185547 38.99561309814453 118.5007019042969 39.99917602539062 L 118.5007019042969 64.99980163574219 C 118.5007019042969 66.37863159179688 117.3789367675781 67.50040435791016 116.0001068115234 67.50040435791016 Z" stroke="none"/>
      <path d="M 116.0001068115234 67.00040435791016 C 117.1032409667969 67.00040435791016 118.0007019042969 66.10294342041016 118.0007019042969 64.99980163574219 L 118.0007019042969 40.32246017456055 C 115.6018142700195 39.1733283996582 114.0343933105469 36.71558380126953 114.0343933105469 33.9984016418457 C 114.0343933105469 31.28120613098145 115.6018142700195 28.82346153259277 118.0007019042969 27.6743278503418 L 118.0007019042969 3.000602245330811 C 118.0007019042969 1.89746367931366 117.1032409667969 1.000002145767212 116.0001068115234 1.000002145767212 L 2.999704837799072 1.000002145767212 C 1.897058606147766 1.000002145767212 0.999997079372406 1.89746367931366 0.999997079372406 3.000602245330811 L 0.999997079372406 27.6743278503418 C 3.398885250091553 28.82346153259277 4.966304779052734 31.28120613098145 4.966304779052734 33.9984016418457 C 4.966304779052734 36.71558380126953 3.398885250091553 39.1733283996582 0.999997079372406 40.32246017456055 L 0.999997079372406 64.99980163574219 C 0.999997079372406 66.10294342041016 1.897058606147766 67.00040435791016 2.999704837799072 67.00040435791016 L 116.0001068115234 67.00040435791016 M 116.0001068115234 68.00040435791016 L 2.999704837799072 68.00040435791016 C 1.345658659934998 68.00040435791016 -2.894005319831194e-06 66.65434265136719 -2.894005319831194e-06 64.99980163574219 L -2.894005319831194e-06 39.65710830688477 C 2.372627973556519 38.81120300292969 3.966304779052734 36.53752517700195 3.966304779052734 33.9984016418457 C 3.966304779052734 31.45955657958984 2.372366428375244 29.18549537658691 -2.894005319831194e-06 28.33967971801758 L -2.894005319831194e-06 3.000602245330811 C -2.894005319831194e-06 1.346063733100891 1.345658659934998 2.178955128329108e-06 2.999704837799072 2.178955128329108e-06 L 116.0001068115234 2.178955128329108e-06 C 117.6546401977539 2.178955128329108e-06 119.0007019042969 1.346063733100891 119.0007019042969 3.000602245330811 L 119.0007019042969 28.33967971801758 C 116.6280746459961 29.18558692932129 115.0343933105469 31.45928001403809 115.0343933105469 33.9984016418457 C 115.0343933105469 36.5372314453125 116.6283340454102 38.81129455566406 119.0007019042969 39.65710830688477 L 119.0007019042969 64.99980163574219 C 119.0007019042969 66.65434265136719 117.6546401977539 68.00040435791016 116.0001068115234 68.00040435791016 Z" stroke="none" fill="#1f1f1f"/>
    </g>
    <g id="합치기-2" data-name="합치기" transform="translate(0 -0.001)" fill="#fff" stroke-linecap="round" stroke-linejoin="round">
      <path d="M 116.0001068115234 67.00040435791016 L 2.999704837799072 67.00040435791016 C 1.897058606147766 67.00040435791016 0.999997079372406 66.10294342041016 0.999997079372406 64.99980163574219 L 0.999997079372406 40.32246017456055 C 3.398885250091553 39.1733283996582 4.966304779052734 36.71558380126953 4.966304779052734 33.9984016418457 C 4.966304779052734 31.28120613098145 3.398885250091553 28.82346153259277 0.999997079372406 27.6743278503418 L 0.999997079372406 3.000602245330811 C 0.999997079372406 1.89746367931366 1.897058606147766 1.000002145767212 2.999704837799072 1.000002145767212 L 116.0001068115234 1.000002145767212 C 117.1032409667969 1.000002145767212 118.0007019042969 1.89746367931366 118.0007019042969 3.000602245330811 L 118.0007019042969 27.6743278503418 C 115.6018142700195 28.82346153259277 114.0343933105469 31.28120613098145 114.0343933105469 33.9984016418457 C 114.0343933105469 36.71558380126953 115.6018142700195 39.1733283996582 118.0007019042969 40.32246017456055 L 118.0007019042969 64.99980163574219 C 118.0007019042969 66.10294342041016 117.1032409667969 67.00040435791016 116.0001068115234 67.00040435791016 Z" stroke="none"/>
      <path d="M 116.0000991821289 66.00040435791016 C 116.5518341064453 66.00040435791016 117.0007019042969 65.55153656005859 117.0007019042969 64.99980163574219 L 117.0007019042969 40.92314529418945 C 114.5813522338867 39.51130294799805 113.0344009399414 36.88262176513672 113.0344009399414 33.9984016418457 C 113.0344009399414 31.11418342590332 114.5813674926758 28.48549461364746 117.0007019042969 27.07364082336426 L 117.0007019042969 3.000602245330811 C 117.0007019042969 2.448868751525879 116.5518341064453 2.000002145767212 116.0000991821289 2.000002145767212 L 2.999701023101807 2.000002145767212 C 2.44846773147583 2.000002145767212 2.000000953674316 2.448868751525879 2.000000953674316 3.000602245330811 L 2.000000953674316 27.07363891601562 C 4.419344425201416 28.48549461364746 5.966300964355469 31.11419677734375 5.966300964355469 33.9984016418457 C 5.966300964355469 36.88262176513672 4.419347763061523 39.51130294799805 2.000000953674316 40.92314529418945 L 2.000000953674316 64.99980163574219 C 2.000000953674316 65.55153656005859 2.44846773147583 66.00040435791016 2.999701023101807 66.00040435791016 L 116.0000991821289 66.00040435791016 M 116.0000991821289 68.00040435791016 L 2.999701023101807 68.00040435791016 C 1.345667600631714 68.00040435791016 9.521484116703505e-07 66.65433502197266 9.521484116703505e-07 64.99980163574219 L 9.521484116703505e-07 39.65710067749023 C 2.372634172439575 38.81120300292969 3.966300964355469 36.53751754760742 3.966300964355469 33.9984016418457 C 3.966300964355469 31.45955276489258 2.37236762046814 29.18550300598145 9.521484116703505e-07 28.33968544006348 L 9.521484116703505e-07 3.000602245330811 C 9.521484116703505e-07 1.346068859100342 1.345667600631714 2.178955128329108e-06 2.999701023101807 2.178955128329108e-06 L 116.0000991821289 2.178955128329108e-06 C 117.6546325683594 2.178955128329108e-06 119.0007019042969 1.346068859100342 119.0007019042969 3.000602245330811 L 119.0007019042969 28.33968544006348 C 116.6280822753906 29.18558502197266 115.0344009399414 31.45928573608398 115.0344009399414 33.9984016418457 C 115.0344009399414 36.53723526000977 116.6283340454102 38.81130218505859 119.0007019042969 39.65710067749023 L 119.0007019042969 64.99980163574219 C 119.0007019042969 66.65433502197266 117.6546325683594 68.00040435791016 116.0000991821289 68.00040435791016 Z" stroke="none" fill="#1f1f1f"/>
    </g>
    <g id="합치기-3" data-name="합치기" transform="translate(5 5)" fill="#fff" stroke-linecap="square" stroke-linejoin="round">
      <path d="M 107.0001068115234 57.49960327148438 L 1.999807596206665 57.49960327148438 C 1.172821879386902 57.49960327148438 0.5000075697898865 56.82678604125977 0.5000075697898865 55.99980163574219 L 0.5000075697898865 37.2456169128418 C 3.021839380264282 35.24024200439453 4.462693214416504 32.24965667724609 4.462693214416504 29.00068664550781 C 4.462693214416504 25.7520809173584 3.021826267242432 22.76160049438477 0.5000075697898865 20.75605964660645 L 0.5000075697898865 2.000701665878296 C 0.5000075697898865 1.173215866088867 1.172821879386902 0.5000016093254089 1.999807596206665 0.5000016093254089 L 107.0001068115234 0.5000016093254089 C 107.8270950317383 0.5000016093254089 108.4999084472656 1.173215866088867 108.4999084472656 2.000701665878296 L 108.4999084472656 20.75492668151855 C 105.9769592285156 22.76088523864746 104.5354080200195 25.75180244445801 104.5354080200195 29.00068664550781 C 104.5354080200195 32.24993515014648 105.9769592285156 35.24094390869141 108.4999084472656 37.24673461914062 L 108.4999084472656 55.99980163574219 C 108.4999084472656 56.82678604125977 107.8270950317383 57.49960327148438 107.0001068115234 57.49960327148438 Z" stroke="none"/>
      <path d="M 107.0001068115234 56.99960327148438 C 107.5513916015625 56.99960327148438 107.9999084472656 56.55108642578125 107.9999084472656 55.99980163574219 L 107.9999084472656 37.48465347290039 C 105.4738693237305 35.38599014282227 104.0354080200195 32.32200241088867 104.0354080200195 29.00068664550781 C 104.0354080200195 25.67972373962402 105.4738845825195 22.61582183837891 107.9999084472656 20.51702308654785 L 107.9999084472656 2.000701665878296 C 107.9999084472656 1.448915958404541 107.5513916015625 1.000001668930054 107.0001068115234 1.000001668930054 L 1.999807596206665 1.000001668930054 C 1.448521852493286 1.000001668930054 1.000007510185242 1.448915958404541 1.000007510185242 2.000701665878296 L 1.000007510185242 20.5181941986084 C 3.524925708770752 22.61659622192383 4.962693214416504 25.68002319335938 4.962693214416504 29.00068664550781 C 4.962693214416504 32.32171630859375 3.524939060211182 35.38524627685547 1.000007510185242 37.48349761962891 L 1.000007510185242 55.99980163574219 C 1.000007510185242 56.55108642578125 1.448521852493286 56.99960327148438 1.999807596206665 56.99960327148438 L 107.0001068115234 56.99960327148438 M 107.0001068115234 57.99960327148438 L 1.999807596206665 57.99960327148438 C 0.8971075415611267 57.99960327148438 7.551792805315927e-06 57.10248565673828 7.551792805315927e-06 55.99980163574219 L 7.551792805315927e-06 37.00087356567383 C 2.518493175506592 35.09165954589844 3.962693214416504 32.17600250244141 3.962693214416504 29.00068664550781 C 3.962693214416504 25.8259162902832 2.51835036277771 22.91007232666016 7.551792805315927e-06 21.00078773498535 L 7.551792805315927e-06 2.000701665878296 C 7.551792805315927e-06 0.8975158929824829 0.8971075415611267 1.635742137295892e-06 1.999807596206665 1.635742137295892e-06 L 107.0001068115234 1.635742137295892e-06 C 108.1027908325195 1.635742137295892e-06 108.9999084472656 0.8975158929824829 108.9999084472656 2.000701665878296 L 108.9999084472656 20.99970245361328 C 106.4802474975586 22.90953063964844 105.0354080200195 25.82548713684082 105.0354080200195 29.00068664550781 C 105.0354080200195 32.17607116699219 106.4804077148438 35.09241485595703 108.9999084472656 37.00194549560547 L 108.9999084472656 55.99980163574219 C 108.9999084472656 57.10248565673828 108.1027908325195 57.99960327148438 107.0001068115234 57.99960327148438 Z" stroke="none" fill="#1f1f1f"/>
    </g>
  </g>
</svg>
