<svg xmlns="http://www.w3.org/2000/svg" width="130" height="90" viewBox="0 0 130 90">
  <g id="icon_적립금" transform="translate(-133.75 -242)">
    <g id="coin" transform="translate(202.523 273.321)">
      <g id="합치기" transform="translate(0 25.121)" fill="#fff">
        <path d="M 30.61350059509277 29.03890037536621 C 26.58189964294434 29.03890037536621 22.60717964172363 28.63483047485352 18.79976081848145 27.83791923522949 C 15.25293064117432 27.09555053710938 12.01539039611816 26.05080032348633 9.177070617675781 24.73267936706543 C 3.743770360946655 22.20944023132324 0.5000004768371582 18.97356033325195 0.5000004768371582 16.07670021057129 L 0.5000004768371582 0.5000001788139343 L 60.72610092163086 0.5000001788139343 L 60.72610092163086 16.07670021057129 C 60.72610092163086 18.97359085083008 57.48250198364258 22.20947074890137 52.04946899414062 24.73267936706543 C 49.21126174926758 26.05080032348633 45.97383117675781 27.09556007385254 42.42708969116211 27.83791923522949 C 38.61975860595703 28.63483047485352 34.64509963989258 29.03890037536621 30.61350059509277 29.03890037536621 Z" stroke="none"/>
        <path d="M 30.61350059509277 28.53890037536621 C 34.61075210571289 28.53890037536621 38.55094909667969 28.13840103149414 42.32466125488281 27.34852981567383 C 45.78470993041992 26.62430953979492 49.07466888427734 25.56295013427734 51.83885955810547 24.27919960021973 C 54.47605895996094 23.05443000793457 56.64493942260742 21.62694931030273 58.11103057861328 20.15106964111328 C 59.49472045898438 18.75815010070801 60.22610092163086 17.3492603302002 60.22610092163086 16.07670021057129 L 60.22610092163086 1.000000238418579 L 1.000000476837158 1.000000238418579 L 1.000000476837158 16.07670021057129 C 1.000000476837158 17.34923934936523 1.731420516967773 18.75813102722168 3.115190505981445 20.15106010437012 C 4.581360340118408 21.62693023681641 6.750350475311279 23.05442047119141 9.387670516967773 24.27919006347656 C 12.15198040008545 25.56294059753418 15.44205093383789 26.62430000305176 18.90220069885254 27.34852981567383 C 22.67599105834961 28.13840103149414 26.61625099182129 28.53890037536621 30.61350059509277 28.53890037536621 M 30.61350059509277 29.53890037536621 C 13.70610046386719 29.53890037536621 4.608154426932742e-07 22.41900062561035 4.608154426932742e-07 16.07670021057129 L 4.608154426932742e-07 1.87683099284186e-07 L 61.22610092163086 1.87683099284186e-07 L 61.22610092163086 16.07670021057129 C 61.22610092163086 22.41900062561035 47.52090072631836 29.53890037536621 30.61350059509277 29.53890037536621 Z" stroke="none" fill="#101010"/>
      </g>
      <g id="합치기_" data-name="합치기 " transform="translate(0 17.254)" fill="#fff">
        <path d="M 30.61350059509277 29.03890037536621 C 26.58189964294434 29.03890037536621 22.60717964172363 28.63483047485352 18.79976081848145 27.83791923522949 C 15.25293064117432 27.09555053710938 12.01539039611816 26.05080032348633 9.177070617675781 24.73267936706543 C 3.743770360946655 22.20944023132324 0.5000004768371582 18.97356033325195 0.5000004768371582 16.07670021057129 L 0.5000004768371582 0.5000001788139343 L 60.72610092163086 0.5000001788139343 L 60.72610092163086 16.07670021057129 C 60.72610092163086 18.97359085083008 57.48250198364258 22.20947074890137 52.04946899414062 24.73267936706543 C 49.21126174926758 26.05080032348633 45.97383117675781 27.09556007385254 42.42708969116211 27.83791923522949 C 38.61975860595703 28.63483047485352 34.64509963989258 29.03890037536621 30.61350059509277 29.03890037536621 Z" stroke="none"/>
        <path d="M 30.61350059509277 28.53890037536621 C 34.61075210571289 28.53890037536621 38.55094909667969 28.13840103149414 42.32466125488281 27.34852981567383 C 45.78470993041992 26.62430953979492 49.07466888427734 25.56295013427734 51.83885955810547 24.27919960021973 C 54.47605895996094 23.05443000793457 56.64493942260742 21.62694931030273 58.11103057861328 20.15106964111328 C 59.49472045898438 18.75815010070801 60.22610092163086 17.3492603302002 60.22610092163086 16.07670021057129 L 60.22610092163086 1.000000238418579 L 1.000000476837158 1.000000238418579 L 1.000000476837158 16.07670021057129 C 1.000000476837158 17.34923934936523 1.731420516967773 18.75813102722168 3.115190505981445 20.15106010437012 C 4.581360340118408 21.62693023681641 6.750350475311279 23.05442047119141 9.387670516967773 24.27919006347656 C 12.15198040008545 25.56294059753418 15.44205093383789 26.62430000305176 18.90220069885254 27.34852981567383 C 22.67599105834961 28.13840103149414 26.61625099182129 28.53890037536621 30.61350059509277 28.53890037536621 M 30.61350059509277 29.53890037536621 C 13.70610046386719 29.53890037536621 4.608154426932742e-07 22.41900062561035 4.608154426932742e-07 16.07670021057129 L 4.608154426932742e-07 1.87683099284186e-07 L 61.22610092163086 1.87683099284186e-07 L 61.22610092163086 16.07670021057129 C 61.22610092163086 22.41900062561035 47.52090072631836 29.53890037536621 30.61350059509277 29.53890037536621 Z" stroke="none" fill="#101010"/>
      </g>
      <g id="합치기_2" data-name="합치기 " transform="translate(0 14.195)" fill="#fff">
        <path d="M 30.61350059509277 24.4453010559082 C 26.58189964294434 24.4453010559082 22.60717964172363 24.04123115539551 18.79976081848145 23.24431991577148 C 15.25293064117432 22.50195121765137 12.01539039611816 21.45720100402832 9.177070617675781 20.13908004760742 C 3.743770360946655 17.61584091186523 0.5000004768371582 14.37996006011963 0.5000004768371582 11.48310089111328 L 0.5000004768371582 2.236100435256958 L 14.42011070251465 2.236100435256958 L 14.47789001464844 2.236100435256958 L 14.53414058685303 2.222920417785645 C 19.34601020812988 1.095780491828918 24.90616035461426 0.500000536441803 30.61350059509277 0.500000536441803 C 36.32081985473633 0.500000536441803 41.8808708190918 1.095780491828918 46.69258117675781 2.222920417785645 L 46.74884033203125 2.236100435256958 L 46.80662155151367 2.236100435256958 L 60.72610092163086 2.236100435256958 L 60.72610092163086 11.48310089111328 C 60.72610092163086 14.37999057769775 57.48250198364258 17.61587142944336 52.04946899414062 20.13908004760742 C 49.21126174926758 21.45720100402832 45.97383117675781 22.50196075439453 42.42708969116211 23.24431991577148 C 38.61975860595703 24.04123115539551 34.64509963989258 24.4453010559082 30.61350059509277 24.4453010559082 Z" stroke="none"/>
        <path d="M 30.61350059509277 1 C 24.94396209716797 1 19.42324066162109 1.591220855712891 14.6481819152832 2.709739685058594 L 14.53567123413086 2.736101150512695 L 1 2.736101150512695 L 1 11.48310089111328 C 1 12.75564098358154 1.731418609619141 14.16453075408936 3.115188598632812 15.55746078491211 C 4.58135986328125 17.0333309173584 6.750350952148438 18.4608211517334 9.387668609619141 19.68559074401855 C 12.15198135375977 20.96934127807617 15.44205093383789 22.03070068359375 18.90219879150391 22.75493049621582 C 22.67599105834961 23.5447998046875 26.61624908447266 23.9453010559082 30.61350059509277 23.9453010559082 C 34.61074829101562 23.9453010559082 38.55094909667969 23.5447998046875 42.32466125488281 22.75493049621582 C 45.78470993041992 22.03071022033691 49.07466888427734 20.96935081481934 51.83885955810547 19.68560028076172 C 54.47605895996094 18.46083068847656 56.64493942260742 17.03334999084473 58.11103057861328 15.55747032165527 C 59.49472045898438 14.16455078125 60.22610092163086 12.75566005706787 60.22610092163086 11.48310089111328 L 60.22610092163086 2.736101150512695 L 46.69105911254883 2.736101150512695 L 46.57854080200195 2.709739685058594 C 41.80364227294922 1.591220855712891 36.28302001953125 1 30.61350059509277 1 M 30.61350059509277 0 C 36.5595703125 0 42.10951232910156 0.6358013153076172 46.80662155151367 1.736101150512695 L 61.22610092163086 1.736101150512695 L 61.22610092163086 11.48310089111328 C 61.22610092163086 17.82540130615234 47.52090072631836 24.9453010559082 30.61350059509277 24.9453010559082 C 13.70610046386719 24.9453010559082 0 17.82540130615234 0 11.48310089111328 L 0 1.736101150512695 L 14.42010879516602 1.736101150512695 C 19.11737060546875 0.6358013153076172 24.66743087768555 0 30.61350059509277 0 Z" stroke="none" fill="#101010"/>
      </g>
      <g id="합치기_3" data-name="합치기 " transform="translate(0 8.239)" fill="#fff">
        <path d="M 30.61350059509277 21.87310028076172 C 26.57842063903809 21.87310028076172 22.60028076171875 21.51040077209473 18.78958129882812 20.79507064819336 C 15.23971080780029 20.12870979309082 11.99942016601562 19.1909294128418 9.158720016479492 18.00778007507324 C 3.736900568008423 15.74960994720459 0.5000004768371582 12.86805057525635 0.5000004768371582 10.29960060119629 L 0.5000004768371582 3.665300130844116 L 8.533880233764648 3.665300130844116 L 8.618900299072266 3.665300130844116 L 8.699140548706055 3.637200117111206 C 11.4963207244873 2.657630205154419 14.78767013549805 1.88670015335083 18.48176002502441 1.345820188522339 C 22.31495094299316 0.7845801115036011 26.39665985107422 0.5000001192092896 30.61350059509277 0.5000001192092896 C 34.83032989501953 0.5000001192092896 38.91199111938477 0.7845801115036011 42.74509048461914 1.345820188522339 C 46.43907928466797 1.88670015335083 49.73031234741211 2.657630205154419 52.52737045288086 3.637200117111206 L 52.60762023925781 3.665300130844116 L 52.69264221191406 3.665300130844116 L 60.72610092163086 3.665300130844116 L 60.72610092163086 10.29960060119629 C 60.72610092163086 12.86807060241699 57.48936080932617 15.74964046478271 52.06782913208008 18.00778961181641 C 49.22723007202148 19.1909294128418 45.9870491027832 20.12870979309082 42.43727874755859 20.79507064819336 C 38.62667083740234 21.51040077209473 34.6485710144043 21.87310028076172 30.61350059509277 21.87310028076172 Z" stroke="none"/>
        <path d="M 30.61350059509277 1 C 26.42082214355469 1 22.36347961425781 1.282800674438477 18.55419158935547 1.840549468994141 C 14.89163208007812 2.376810073852539 11.63151168823242 3.140060424804688 8.864398956298828 4.109100341796875 L 8.703922271728516 4.165300369262695 L 1 4.165300369262695 L 1 10.29960060119629 C 1 12.6240701675415 4.199901580810547 15.40081977844238 9.350959777832031 17.54622077941895 C 12.11997222900391 18.69950103759766 15.41569137573242 19.65300941467285 18.88182067871094 20.30365943908691 C 22.66218948364258 21.01329040527344 26.60929107666016 21.37310028076172 30.61350059509277 21.37310028076172 C 34.61769866943359 21.37310028076172 38.56475830078125 21.01329040527344 42.34503173828125 20.30365943908691 C 45.81106948852539 19.65302085876465 49.10668182373047 18.69951057434082 51.87557983398438 17.54622077941895 C 57.02637100219727 15.40085029602051 60.22610092163086 12.62409973144531 60.22610092163086 10.29960060119629 L 60.22610092163086 4.165300369262695 L 52.52259063720703 4.165300369262695 L 52.36209869384766 4.109100341796875 C 49.59510040283203 3.140060424804688 46.33509826660156 2.376810073852539 42.67265319824219 1.840549468994141 C 38.86344909667969 1.282800674438477 34.80616760253906 1 30.61350059509277 1 M 30.61350059509277 0 C 39.28907012939453 0 47.12229156494141 1.21449089050293 52.69263076782227 3.165300369262695 L 61.22610092163086 3.165300369262695 L 61.22610092163086 10.29960060119629 C 61.22610092163086 15.98760032653809 47.52090072631836 22.37310028076172 30.61350059509277 22.37310028076172 C 13.70610046386719 22.37310028076172 0 15.98760032653809 0 10.29960060119629 L 0 3.165300369262695 L 8.533882141113281 3.165300369262695 C 14.10446166992188 1.21449089050293 21.93793106079102 0 30.61350059509277 0 Z" stroke="none" fill="#101010"/>
      </g>
      <g id="타원_" data-name="타원 " fill="#fff" stroke="#101010" stroke-width="1">
        <ellipse cx="30.613" cy="11.008" rx="30.613" ry="11.008" stroke="none"/>
        <ellipse cx="30.613" cy="11.008" rx="30.113" ry="10.508" fill="none"/>
      </g>
    </g>
    <g id="coin-2" data-name="coin" transform="translate(133.75 281.811)">
      <g id="합치기_4" data-name="합치기 " transform="translate(0 16.962)" fill="#fff">
        <path d="M 30.61350059509277 28.53849983215332 C 26.58134078979492 28.53849983215332 22.60606956481934 28.14122009277344 18.79809951782227 27.35770988464355 C 15.25080013275146 26.62783050537109 12.01283073425293 25.60065078735352 9.174120903015137 24.30471992492676 C 3.742660522460938 21.82513046264648 0.5000004768371582 18.64763069152832 0.5000004768371582 15.80490016937256 L 0.5000004768371582 0.4999999105930328 L 60.72610092163086 0.4999999105930328 L 60.72610092163086 15.80490016937256 C 60.72610092163086 18.64765930175781 57.48360061645508 21.82515907287598 52.05242156982422 24.30471992492676 C 49.21382904052734 25.60066032409668 45.97595977783203 26.62783050537109 42.42876052856445 27.35770988464355 C 38.62088012695312 28.14122009277344 34.64564895629883 28.53849983215332 30.61350059509277 28.53849983215332 Z" stroke="none"/>
        <path d="M 30.61350059509277 28.03849983215332 C 34.61186981201172 28.03849983215332 38.55319213867188 27.64468002319336 42.3279914855957 26.86796951293945 C 45.78897857666016 26.15583038330078 49.07981872558594 25.11219024658203 51.84477233886719 23.84988021850586 C 54.48226928710938 22.64575004577637 56.65119934082031 21.24254035949707 58.11709213256836 19.79194068908691 C 59.49682235717773 18.42660903930664 60.22610092163086 17.04791069030762 60.22610092163086 15.80490016937256 L 60.22610092163086 0.9999999403953552 L 1.000000476837158 0.9999999403953552 L 1.000000476837158 15.80490016937256 C 1.000000476837158 17.04789924621582 1.729320406913757 18.42658996582031 3.109130382537842 19.79191970825195 C 4.575100421905518 21.24251937866211 6.744140625 22.6457405090332 9.381770133972168 23.8498706817627 C 12.14682006835938 25.11219024658203 15.43778038024902 26.15583038330078 18.89887046813965 26.86796951293945 C 22.67374992370605 27.64468002319336 26.61511993408203 28.03849983215332 30.61350059509277 28.03849983215332 M 30.61350059509277 29.03849983215332 C 13.70610046386719 29.03849983215332 4.608154426932742e-07 22.03919982910156 4.608154426932742e-07 15.80490016937256 L 4.608154426932742e-07 -8.392333938900265e-08 L 61.22610092163086 -8.392333938900265e-08 L 61.22610092163086 15.80490016937256 C 61.22610092163086 22.03919982910156 47.52090072631836 29.03849983215332 30.61350059509277 29.03849983215332 Z" stroke="none" fill="#101010"/>
      </g>
      <g id="합치기_5" data-name="합치기 " transform="translate(0 13.955)" fill="#fff">
        <path d="M 30.61350059509277 24.02230072021484 C 26.58134078979492 24.02230072021484 22.60606956481934 23.62502098083496 18.79809951782227 22.84151077270508 C 15.25080013275146 22.11162948608398 12.01283073425293 21.08444976806641 9.174120903015137 19.78852081298828 C 3.742660522460938 17.30892944335938 0.5000004768371582 14.13143062591553 0.5000004768371582 11.28870010375977 L 0.5000004768371582 2.206400394439697 L 14.42118072509766 2.206400394439697 L 14.47800064086914 2.206400394439697 L 14.53338050842285 2.193650245666504 C 19.34509086608887 1.085650324821472 24.90550994873047 0.5000003576278687 30.61350059509277 0.5000003576278687 C 36.32147216796875 0.5000003576278687 41.88179016113281 1.085650324821472 46.69335174560547 2.193650245666504 L 46.74872207641602 2.206400394439697 L 46.80554962158203 2.206400394439697 L 60.72610092163086 2.206400394439697 L 60.72610092163086 11.28870010375977 C 60.72610092163086 14.13146018981934 57.48360061645508 17.3089599609375 52.05242156982422 19.78852081298828 C 49.21382904052734 21.0844612121582 45.97595977783203 22.11162948608398 42.42876052856445 22.84151077270508 C 38.62088012695312 23.62502098083496 34.64564895629883 24.02230072021484 30.61350059509277 24.02230072021484 Z" stroke="none"/>
        <path d="M 30.61350059509277 1 C 24.94268035888672 1 19.42105865478516 1.581239700317383 14.64558029174805 2.680900573730469 L 14.53483200073242 2.706399917602539 L 1 2.706399917602539 L 1 11.28870010375977 C 1 12.53170013427734 1.729320526123047 13.91038990020752 3.109130859375 15.27572059631348 C 4.575099945068359 16.72632026672363 6.744140625 18.12953948974609 9.381771087646484 19.33366966247559 C 12.14682006835938 20.59599113464355 15.43778228759766 21.63962936401367 18.89886856079102 22.35177040100098 C 22.67375183105469 23.12848091125488 26.61511993408203 23.52230072021484 30.61350059509277 23.52230072021484 C 34.61186981201172 23.52230072021484 38.55319213867188 23.12848091125488 42.32798767089844 22.35177040100098 C 45.78897857666016 21.63962936401367 49.07981872558594 20.59599113464355 51.84477233886719 19.33367919921875 C 54.48226928710938 18.12955093383789 56.65119934082031 16.72634124755859 58.11709213256836 15.27574062347412 C 59.49681854248047 13.91040992736816 60.22610092163086 12.53171062469482 60.22610092163086 11.28870010375977 L 60.22610092163086 2.706399917602539 L 46.69190216064453 2.706399917602539 L 46.58115005493164 2.680900573730469 C 41.80582046508789 1.581239700317383 36.2843017578125 1 30.61350059509277 1 M 30.61350059509277 0 C 36.5595703125 0 42.10844039916992 0.6247596740722656 46.80554962158203 1.706399917602539 L 61.22610092163086 1.706399917602539 L 61.22610092163086 11.28870010375977 C 61.22610092163086 17.52300071716309 47.52090072631836 24.52230072021484 30.61350059509277 24.52230072021484 C 13.70610046386719 24.52230072021484 0 17.52300071716309 0 11.28870010375977 L 0 1.706399917602539 L 14.42118072509766 1.706399917602539 C 19.11843872070312 0.6247596740722656 24.66743087768555 0 30.61350059509277 0 Z" stroke="none" fill="#101010"/>
      </g>
      <g id="합치기_6" data-name="합치기 " transform="translate(0 8.099)" fill="#fff">
        <path d="M 30.61350059509277 21.49419975280762 C 26.57791137695312 21.49419975280762 22.5992603302002 21.1375904083252 18.78807067871094 20.43426895141602 C 15.2377405166626 19.77910041809082 11.99702072143555 18.85705947875977 9.155930519104004 17.69376945495605 C 6.464040279388428 16.5915699005127 4.244630336761475 15.30204963684082 2.737650394439697 13.964599609375 C 1.273770451545715 12.6653995513916 0.5000004768371582 11.33768939971924 0.5000004768371582 10.125 L 0.5000004768371582 3.611299991607666 L 8.534749984741211 3.611299991607666 L 8.618410110473633 3.611299991607666 L 8.697510719299316 3.584069967269897 C 11.4950008392334 2.621009826660156 14.78664016723633 1.863099932670593 18.48097991943359 1.331409931182861 C 22.31418991088867 0.7797299027442932 26.39616012573242 0.4999998807907104 30.61350059509277 0.4999998807907104 C 34.83082962036133 0.4999998807907104 38.91275024414062 0.7797299027442932 42.74586868286133 1.331409931182861 C 46.44010162353516 1.863099932670593 49.73163223266602 2.620999813079834 52.52902221679688 3.584069967269897 L 52.60811996459961 3.611299991607666 L 52.69178009033203 3.611299991607666 L 60.72610092163086 3.611299991607666 L 60.72610092163086 10.125 C 60.72610092163086 11.33769989013672 59.9523811340332 12.66541957855225 58.48857879638672 13.96461009979248 C 56.98168182373047 15.3020601272583 54.76237869262695 16.59157943725586 52.07061004638672 17.69377899169922 C 49.22962951660156 18.85705947875977 45.98902130126953 19.77910041809082 42.43878936767578 20.43426895141602 C 38.62768936157227 21.1375904083252 34.64908218383789 21.49419975280762 30.61350059509277 21.49419975280762 Z" stroke="none"/>
        <path d="M 30.61350059509277 1 C 26.4199104309082 1 22.36190032958984 1.278009414672852 18.55220031738281 1.826309204101562 C 14.88891983032227 2.35352897644043 11.62808227539062 3.10399055480957 8.860248565673828 4.056838989257812 L 8.702049255371094 4.111299514770508 L 1 4.111299514770508 L 1 10.125 C 1 12.40048027038574 4.197769165039062 15.12335968017578 9.345390319824219 17.23106002807617 C 12.11515045166016 18.36513900756836 15.41176223754883 19.30277061462402 18.87881088256836 19.94256973266602 C 22.66014862060547 20.640380859375 26.60826873779297 20.99419975280762 30.61350059509277 20.99419975280762 C 34.61872863769531 20.99419975280762 38.56680297851562 20.640380859375 42.34805297851562 19.94257926940918 C 45.81500244140625 19.30277061462402 49.11148834228516 18.36513900756836 51.88114166259766 17.23106002807617 C 57.02849960327148 15.12339019775391 60.22610092163086 12.40050029754639 60.22610092163086 10.125 L 60.22610092163086 4.111299514770508 L 52.52445220947266 4.111299514770508 L 52.36624908447266 4.056829452514648 C 49.59854125976562 3.103979110717773 46.33781051635742 2.35352897644043 42.67464065551758 1.826309204101562 C 38.86502838134766 1.278009414672852 34.80708312988281 1 30.61350059509277 1 M 30.61350059509277 0 C 39.28907012939453 0 47.12142944335938 1.193580627441406 52.6917724609375 3.111299514770508 L 61.22610092163086 3.111299514770508 L 61.22610092163086 10.125 C 61.22610092163086 15.71669960021973 47.52090072631836 21.99419975280762 30.61350059509277 21.99419975280762 C 13.70610046386719 21.99419975280762 0 15.71669960021973 0 10.125 L 0 3.111299514770508 L 8.534740447998047 3.111299514770508 C 14.10531997680664 1.193580627441406 21.93793106079102 0 30.61350059509277 0 Z" stroke="none" fill="#101010"/>
      </g>
      <g id="타원_2" data-name="타원 " transform="translate(0)" fill="#fff" stroke="#101010" stroke-width="1">
        <ellipse cx="30.613" cy="10.822" rx="30.613" ry="10.822" stroke="none"/>
        <ellipse cx="30.613" cy="10.822" rx="30.113" ry="10.322" fill="none"/>
      </g>
    </g>
    <g id="coin-3" data-name="coin" transform="translate(154.127 242)">
      <g id="타원_3" data-name="타원 " fill="#fff" stroke="#101010" stroke-width="2">
        <circle cx="45" cy="45" r="45" stroke="none"/>
        <circle cx="45" cy="45" r="44" fill="none"/>
      </g>
      <g id="타원_4" data-name="타원 " transform="translate(5.943 5.943)" fill="#fff" stroke="#101010" stroke-width="1">
        <circle cx="39.056" cy="39.056" r="39.056" stroke="none"/>
        <circle cx="39.056" cy="39.056" r="38.556" fill="none"/>
      </g>
    </g>
  </g>
</svg>
