<svg xmlns="http://www.w3.org/2000/svg" xmlns:xlink="http://www.w3.org/1999/xlink" width="128.307" height="67.074" viewBox="0 0 128.307 67.074">
  <defs>
    <clipPath id="clip-path">
      <rect id="사각형_" data-name="사각형 " width="62" height="62" transform="translate(0.21 -0.34)" fill="none"/>
    </clipPath>
    <clipPath id="clip-path-2">
      <rect id="사각형_2" data-name="사각형 " width="63.675" height="67.074" fill="none"/>
    </clipPath>
  </defs>
  <g id="icon_생체인식로그인" transform="translate(-184.231 -441.262)">
    <g id="icon_face" transform="translate(184.021 443.944)" clip-path="url(#clip-path)">
      <path id="패스_" data-name="패스 " d="M3.2,17.059v-6.93A6.822,6.822,0,0,1,10.128,3.2h6.931a1.6,1.6,0,0,0,0-3.2H10.128A10.019,10.019,0,0,0,0,10.129v6.93a1.6,1.6,0,1,0,3.2,0" transform="translate(-0.039 -0.288)" fill="#101010"/>
      <path id="패스_2" data-name="패스 " d="M71.46,17.059v-6.93A6.822,6.822,0,0,0,64.53,3.2H57.6a1.6,1.6,0,0,1,0-3.2H64.53A10.019,10.019,0,0,1,74.658,10.129v6.93a1.6,1.6,0,0,1-3.2,0" transform="translate(-12.503 -0.288)" fill="#101010"/>
      <path id="패스_3" data-name="패스 " d="M3.2,57.6v6.93a6.822,6.822,0,0,0,6.93,6.931h6.931a1.6,1.6,0,0,1,0,3.2H10.128A10.019,10.019,0,0,1,0,64.529V57.6a1.6,1.6,0,0,1,3.2,0" transform="translate(-0.039 -12.752)" fill="#101010"/>
      <path id="패스_4" data-name="패스 " d="M71.46,57.6v6.93a6.822,6.822,0,0,1-6.93,6.931H57.6a1.6,1.6,0,0,0,0,3.2H64.53A10.019,10.019,0,0,0,74.658,64.529V57.6a1.6,1.6,0,0,0-3.2,0" transform="translate(-12.503 -12.752)" fill="#101010"/>
      <path id="패스_5" data-name="패스 " d="M21.754,29.736v4.445a1.559,1.559,0,1,0,3.11,0V29.736a1.559,1.559,0,1,0-3.11,0" transform="translate(-4.881 -6.535)" fill="#101010"/>
      <path id="패스_6" data-name="패스 " d="M54.737,29.736v4.445a1.558,1.558,0,1,0,3.11,0V29.736a1.559,1.559,0,1,0-3.11,0" transform="translate(-12.222 -6.535)" fill="#101010"/>
      <path id="패스_7" data-name="패스 " d="M25.783,58.272A15.521,15.521,0,0,0,36.72,62.531a15.521,15.521,0,0,0,10.937-4.259,1.637,1.637,0,1,0-2.234-2.393,12.251,12.251,0,0,1-8.7,3.379,12.251,12.251,0,0,1-8.7-3.379,1.637,1.637,0,1,0-2.234,2.393" transform="translate(-5.662 -12.627)" fill="#101010"/>
      <path id="패스_8" data-name="패스 " d="M38.907,29.706V41.163a.961.961,0,0,1-1.1,1.091H36.724a1.637,1.637,0,0,0,0,3.274h1.087a4.21,4.21,0,0,0,4.369-4.364V29.706a1.637,1.637,0,0,0-3.274,0" transform="translate(-7.849 -6.535)" fill="#101010"/>
    </g>
    <g id="icon_fingerprint" transform="translate(248.863 441.262)" clip-path="url(#clip-path-2)">
      <path id="패스_9" data-name="패스 " d="M35.158,66.811a1.272,1.272,0,0,1-.57-.771c-.184-.6-.173-.626,1.062-2.571a53.261,53.261,0,0,0,3.516-6.853A50.266,50.266,0,0,0,42.8,38.83c.078-3.041.106-3.231.514-3.639a1.377,1.377,0,0,1,2.074.184c.419.6.252,5.707-.324,9.748a50.892,50.892,0,0,1-7.216,20.122c-1.112,1.794-1.727,2.152-2.689,1.571Zm-7.21,0a1.508,1.508,0,0,1-.771-1.4,6.21,6.21,0,0,1,1.034-1.7,39.706,39.706,0,0,0,6.473-12.358c.928-2.845,1.123-3.147,2-3.147A1.36,1.36,0,0,1,38,49.17c.123.374.073.671-.33,2.063a45.155,45.155,0,0,1-7.059,13.94C29.311,66.894,28.853,67.18,27.947,66.811Zm15.656-2.3a1.655,1.655,0,0,1-.755-1.2,5.494,5.494,0,0,1,.475-1.224,55.923,55.923,0,0,0,5.232-18.535c.47-4.265.352-13.4-.2-15.829A16.922,16.922,0,0,0,35.247,15.1a15.69,15.69,0,0,0-3.538-.235,12.911,12.911,0,0,0-3.667.313,17.235,17.235,0,0,0-3.415,1.191,1.442,1.442,0,0,1-2.219-.71,1.081,1.081,0,0,1,.045-.9c.252-.592.537-.783,2.141-1.409A19.885,19.885,0,0,1,49.4,22.542a21.584,21.584,0,0,1,1.777,5.025A87.21,87.21,0,0,1,51.5,41.591,58.813,58.813,0,0,1,46.012,62.9c-.565,1.168-.743,1.431-1.118,1.6a1.177,1.177,0,0,1-1.286.006ZM18,63.96a1.4,1.4,0,0,1-.369-1.828A7.451,7.451,0,0,1,18.971,61.1a27.158,27.158,0,0,0,4.455-3.644,9.689,9.689,0,0,1,1.191-1.118,1.518,1.518,0,0,1,1.414.089,1.4,1.4,0,0,1,.2,2.074,27.673,27.673,0,0,1-5.712,4.924C19.222,64.267,18.551,64.407,18,63.96Zm33.76-2.951a1.738,1.738,0,0,1-.581-.643l-.257-.475.755-2.281a63.189,63.189,0,0,0,3.108-16.673,118.9,118.9,0,0,0-.145-11.928A22.247,22.247,0,0,0,47.03,14.448c-1.526-1.336-1.71-1.666-1.369-2.471a1.516,1.516,0,0,1,1.28-.855c1.034.006,4.36,3.292,6.411,6.338a24.429,24.429,0,0,1,3.98,10.631,119.66,119.66,0,0,1,.207,13.487A65.784,65.784,0,0,1,54.084,59.2c-.442,1.252-.587,1.526-.933,1.733A1.346,1.346,0,0,1,51.758,61.009ZM11.14,59.382a1.405,1.405,0,0,1-.727-1.951c.2-.363.458-.525,1.694-1.04a21.717,21.717,0,0,0,7.49-4.84,18.13,18.13,0,0,0,5.187-9.932c.24-1.28.291-2.146.369-6.646.084-4.936.1-5.215.386-6.031a7.569,7.569,0,0,1,2.035-3.113,6.7,6.7,0,0,1,4.835-1.867,7.415,7.415,0,0,1,5.2,2.107,6.908,6.908,0,0,1,1.805,2.856c.274.755.335,1.3.5,4.209.24,4.382.24,5.919,0,6.495a1.391,1.391,0,0,1-2.348.291c-.246-.33-.274-.581-.307-2.756a44.279,44.279,0,0,0-.486-7.406,4.792,4.792,0,0,0-2.705-2.739,5.483,5.483,0,0,0-3.415.056,5.012,5.012,0,0,0-2.04,1.85c-.615,1.045-.693,1.727-.693,6.1,0,2.219-.067,4.606-.14,5.3-.961,8.815-5.964,15.164-14.734,18.7-1.112.447-1.487.52-1.9.369ZM6.2,54.346a1.319,1.319,0,0,1-.956-1.308c0-.8.464-1.174,2.158-1.75,4.572-1.537,7.261-3.969,8.507-7.68.665-1.99.76-2.934.861-8.77.1-5.4.1-5.444.447-6.618A14.717,14.717,0,0,1,30.407,17.975a13.783,13.783,0,0,1,13.627,8.641c.727,1.878,1.073,4.3.738,5.114a1.343,1.343,0,0,1-1.923.682c-.548-.285-.665-.587-.794-2.046a10.387,10.387,0,0,0-4.69-7.769,11.433,11.433,0,0,0-10.978-.8,12.158,12.158,0,0,0-6.277,6.579c-.5,1.453-.587,2.381-.587,6.752,0,5.467-.252,7.428-1.3,10.134-1.459,3.79-4.863,6.869-9.385,8.485C7.177,54.341,6.646,54.464,6.2,54.346Zm22.145-.5c-.878-.537-.9-1.112-.1-2.795a28.655,28.655,0,0,0,1.817-5.411,38.748,38.748,0,0,0,.682-8.183,32.886,32.886,0,0,1,.218-4.567,1.354,1.354,0,0,1,2.09-.3l.43.38-.006,4.432a44.467,44.467,0,0,1-.235,6.07,30.772,30.772,0,0,1-2.5,8.854c-.783,1.671-1.436,2.09-2.387,1.509ZM60.461,52.6a1.3,1.3,0,0,1-.838-1.146c0-.2.145-1.263.324-2.364a78.169,78.169,0,0,0,.872-16.109c-.157-4.706-.33-6.238-.956-8.692A28.755,28.755,0,0,0,41.468,4.438a27.042,27.042,0,0,0-9.625-1.61,24.275,24.275,0,0,0-7.143.889,28.51,28.51,0,0,0-8.647,3.834A29.985,29.985,0,0,0,9.485,13.37c-1.123,1.314-1.571,1.554-2.325,1.241a1.518,1.518,0,0,1-.872-1.3c0-.509.749-1.487,2.554-3.348a30.763,30.763,0,0,1,9.044-6.64A29.2,29.2,0,0,1,24.158.972a31.186,31.186,0,0,1,15.729.073,27.691,27.691,0,0,1,6.176,2.348A28.7,28.7,0,0,1,54.1,9.083a30.648,30.648,0,0,1,9.061,17.372,100.685,100.685,0,0,1,.391,15.332c-.246,4.03-.984,9.463-1.392,10.257a1.449,1.449,0,0,1-.643.565C60.987,52.831,60.975,52.831,60.461,52.6ZM1.973,49.025a1.34,1.34,0,0,1-.419-.688c-.089-1.185.173-1.386,2.767-2.146,5.942-1.744,7.345-3.214,7.674-8.01a5.087,5.087,0,0,1,.279-1.615,1.407,1.407,0,0,1,2.286,0c.24.375.257.559.19,1.828-.224,4.013-1.459,6.417-4.226,8.228a19.632,19.632,0,0,1-5.209,2.163c-2.331.693-2.8.721-3.342.224Zm.173-5.919a1.42,1.42,0,0,1-.637-1.979c.246-.486.475-.6,1.392-.71a2.847,2.847,0,0,0,2.275-1.526l.391-.71.084-4.98c.078-4.7.1-5.07.419-6.556A26.276,26.276,0,0,1,22.732,7.557,26.807,26.807,0,0,1,39.9,7.283c2.336.749,2.677,1,2.683,1.984a1.092,1.092,0,0,1-.38.95c-.514.514-.878.492-2.739-.134a23.548,23.548,0,0,0-29.68,13.75,25.6,25.6,0,0,0-1.151,4.2c-.084.475-.19,3-.24,5.763-.089,4.673-.106,4.952-.386,5.662a5.948,5.948,0,0,1-3.471,3.432A4.9,4.9,0,0,1,2.146,43.106Zm-1.2-5.4a1.263,1.263,0,0,1-.688-.548C.017,36.767,0,36.482,0,33.319a36.49,36.49,0,0,1,.6-7.954c.755-3.9,2.532-8.591,3.4-8.988a1.415,1.415,0,0,1,1.638.235c.553.553.509,1.079-.229,2.683a27.565,27.565,0,0,0-1.682,4.8,35.7,35.7,0,0,0-.984,9.7c0,3.421-.022,3.521-.866,3.874a3.25,3.25,0,0,1-.47.173ZM12.42,32.34l-.4-.4.078-1.66a18.95,18.95,0,0,1,5.528-12.286c1.308-1.336,1.688-1.515,2.471-1.191a1.338,1.338,0,0,1,.81,1.476c-.061.324-.363.732-1.09,1.464a16.436,16.436,0,0,0-4.969,10.7c-.078,1.4-.089,1.453-.5,1.867a1.255,1.255,0,0,1-1.923,0Z" transform="translate(0 0)" fill="#101010"/>
    </g>
  </g>
</svg>
